SplineFontDB: 3.2
FontName: PixelCode-
FullName: Pixel Code
FamilyName: Pixel Code
Weight: Book
Copyright: Copyright c Qwerasd 2024
Version: 2.2
ItalicAngle: 0
UnderlinePosition: -280
UnderlineWidth: 112
Ascent: 806
Descent: 202
InvalidEm: 0
sfntRevision: 0x00020083
LayerCount: 2
Layer: 0 0 "Back" 1
Layer: 1 0 "Fore" 0
XUID: [1021 303 -1819028496 14298536]
StyleMap: 0x0040
FSType: 4
OS2Version: 4
OS2_WeightWidthSlopeOnly: 0
OS2_UseTypoMetrics: 1
CreationTime: 1712958226
ModificationTime: 1739382000
PfmFamily: 17
TTFWeight: 400
TTFWidth: 5
LineGap: 0
VLineGap: 0
Panose: 2 0 0 9 0 0 0 8 0 3
OS2TypoAscent: 1119
OS2TypoAOffset: 0
OS2TypoDescent: -223
OS2TypoDOffset: 0
OS2TypoLinegap: 0
OS2WinAscent: 1120
OS2WinAOffset: 0
OS2WinDescent: 224
OS2WinDOffset: 0
HheadAscent: 1119
HheadAOffset: 0
HheadDescent: -223
HheadDOffset: 0
OS2SubXSize: 655
OS2SubYSize: 605
OS2SubXOff: 0
OS2SubYOff: 76
OS2SupXSize: 655
OS2SupYSize: 605
OS2SupXOff: 0
OS2SupYOff: 353
OS2StrikeYSize: 112
OS2StrikeYPos: 336
OS2CapHeight: 784
OS2XHeight: 560
OS2Vendor: 'qwer'
OS2CodePages: 000000bf.cf430000
OS2UnicodeRanges: a0000ab7.1200b821.00040020.00000000
Lookup: 1 0 0 "Single Substitution lookup 0" { "Single Substitution lookup 0 subtable"  } []
Lookup: 6 0 0 "'ss20' Style Set 20 lookup 1" { "'ss20' Style Set 20 lookup 1 subtable"  } ['ss20' ('DFLT' <'dflt' > ) ]
Lookup: 1 0 0 "'onum' Oldstyle Figures lookup 2" { "'onum' Oldstyle Figures lookup 2 subtable" ("oldstyle") } ['onum' ('DFLT' <'dflt' > ) ]
Lookup: 1 0 0 "'ss01' Style Set 1 lookup 3" { "'ss01' Style Set 1 lookup 3 subtable"  } ['ss01' ('DFLT' <'dflt' > ) ]
Lookup: 4 0 1 "'liga' Standard Ligatures lookup 4" { "'liga' Standard Ligatures lookup 4 subtable"  } ['liga' ('DFLT' <'dflt' > ) ]
Lookup: 6 0 0 "'liga' Standard Ligatures lookup 5" { "'liga' Standard Ligatures lookup 5 subtable"  } ['liga' ('DFLT' <'dflt' > ) ]
Lookup: 4 0 0 "Ligature Substitution lookup 6" { "Ligature Substitution lookup 6 subtable"  } []

StartChar: .notdef
Encoding: 0 0 0
Width: 672
GlyphClass: 1
Flags: W
HStem: -112 112<280 392> 0 21G<392 504> 112 112<280 392> 560 112<168 280 392 504> 672 112<280 392>
VStem: 56 112<448 560> 168 112<0 112 560 672> 280 112<-112 0 448 560 672 784> 392 112<0 112 560 672> 504 112<336 560>
LayerCount: 2
Fore
SplineSet
280 112 m 1xa280
 280 0 l 1xa280
 392 0 l 1
 392 -112 l 1
 280 -112 l 1xa1
 280 0 l 1xa2
 168 0 l 1
 168 112 l 1x62
 56 112 l 1
 56 560 l 1
 168 560 l 1x74
 168 672 l 1
 280 672 l 1x72
 280 784 l 1
 392 784 l 1x29
 392 672 l 1x31
 504 672 l 1
 504 560 l 1x3080
 616 560 l 1
 616 112 l 1x3040
 504 112 l 1
 504 0 l 1x7080
 392 0 l 1xa1
 392 112 l 1
 280 112 l 1xa280
280 672 m 1x32
 280 560 l 1x32
 392 560 l 1
 392 672 l 1x31
 280 672 l 1x32
168 560 m 1x34
 168 448 l 1
 280 448 l 1x35
 280 560 l 1x32
 168 560 l 1x34
392 560 m 1
 392 336 l 1x3080
 504 336 l 1x3040
 504 560 l 1x3080
 392 560 l 1
280 336 m 1x21
 280 224 l 1x21
 392 224 l 1
 392 336 l 1x2080
 280 336 l 1x21
EndSplineSet
Validated: 5
EndChar

StartChar: uni2705
Encoding: 9989 9989 1
Width: 1344
GlyphClass: 1
Flags: W
HStem: -112 224<392 504 616 728> -112 112<504 616> 784 112<840 952>
VStem: 168 224<112 336> 504 112<224 336> 840 336<336 560> 952 224<560 784>
LayerCount: 2
Fore
SplineSet
280 896 m 1x7a
 1064 896 l 1
 1064 784 l 1
 1176 784 l 1
 1176 0 l 1
 1064 0 l 1
 1064 -112 l 1
 280 -112 l 1
 280 0 l 1
 168 0 l 1
 168 784 l 1
 280 784 l 1
 280 896 l 1x7a
840 784 m 1xbc
 840 672 l 1
 728 672 l 1
 728 448 l 1
 616 448 l 1
 616 224 l 1
 504 224 l 1
 504 336 l 1
 392 336 l 1
 392 112 l 1
 504 112 l 1xbc
 504 0 l 1
 616 0 l 1x7c
 616 112 l 1
 728 112 l 1
 728 336 l 1
 840 336 l 1
 840 560 l 1xbc
 952 560 l 1
 952 784 l 1xba
 840 784 l 1xbc
EndSplineSet
Validated: 1
EndChar

StartChar: uni270C
Encoding: 9996 9996 2
Width: 672
GlyphClass: 1
Flags: W
HStem: 0 112<392 504> 224 112<392 504> 336 112<280 392>
VStem: 56 336<112 224 336 448> 168 112<448 672> 392 112<448 672> 504 112<112 224>
LayerCount: 2
Fore
SplineSet
504 448 m 1xa4
 392 448 l 1xb0
 392 672 l 1
 504 672 l 1
 504 448 l 1xa4
392 224 m 1xd2
 392 112 l 1xd2
 504 112 l 1
 504 0 l 1
 168 0 l 1
 168 112 l 1xca
 56 112 l 1
 56 448 l 1xb0
 168 448 l 1
 168 672 l 1
 280 672 l 1
 280 448 l 1xa8
 392 448 l 1xb0
 392 336 l 1xd0
 616 336 l 1xb2
 616 112 l 1
 504 112 l 1
 504 224 l 1
 392 224 l 1xd2
280 336 m 1xa8
 280 224 l 1xc8
 392 224 l 1
 392 336 l 1xd0
 280 336 l 1xa8
EndSplineSet
Validated: 5
EndChar

StartChar: uni2713
Encoding: 10003 10003 3
Width: 672
GlyphClass: 1
Flags: W
HStem: 0 21G<168 280> 224 112<56 168> 672 112<504 616>
VStem: 56 112<224 336> 168 112<0 224> 280 112<224 448> 392 112<448 672> 504 112<672 784>
LayerCount: 2
Fore
SplineSet
504 784 m 1xe1
 616 784 l 1
 616 672 l 1xe1
 504 672 l 1
 504 448 l 1xe2
 392 448 l 1
 392 224 l 1xe4
 280 224 l 1xe8
 280 448 l 1
 392 448 l 1xe4
 392 672 l 1
 504 672 l 1xe2
 504 784 l 1xe1
280 224 m 1xe8
 280 0 l 1
 168 0 l 1xe8
 168 224 l 1
 56 224 l 1
 56 336 l 1
 168 336 l 1
 168 224 l 1xf0
 280 224 l 1xe8
EndSplineSet
Validated: 5
EndChar

StartChar: uni2714
Encoding: 10004 10004 4
Width: 672
GlyphClass: 1
Flags: W
HStem: 0 21G<168 280> 764 20G<504 616>
VStem: 56 112<224 336> 168 112<0 112> 280 112<224 336> 392 112<448 560> 504 112<672 784>
LayerCount: 2
Fore
SplineSet
504 784 m 1xc2
 616 784 l 1
 616 560 l 1xc2
 504 560 l 1xc4
 504 336 l 1
 392 336 l 1xca
 392 112 l 1
 280 112 l 1
 280 0 l 1
 168 0 l 1
 168 112 l 1xd4
 56 112 l 1
 56 336 l 1
 168 336 l 1
 168 224 l 1
 280 224 l 1
 280 448 l 1xe8
 392 448 l 1
 392 672 l 1xc4
 504 672 l 1
 504 784 l 1xc2
EndSplineSet
Validated: 1
EndChar

StartChar: uni2715
Encoding: 10005 10005 5
Width: 672
GlyphClass: 1
Flags: W
HStem: 0 112<56 168 504 616> 112 112<168 280 392 504> 224 112<280 392> 336 112<168 280 392 504> 448 112<56 168 504 616>
VStem: 56 112<0 112 448 560> 168 112<112 224 336 448> 280 112<224 336> 392 112<112 224 336 448> 504 112<0 112 448 560>
LayerCount: 2
Fore
SplineSet
504 336 m 1x1080
 392 336 l 1x21
 392 448 l 1
 504 448 l 1x1080
 504 560 l 1
 616 560 l 1
 616 448 l 1x0840
 504 448 l 1
 504 336 l 1x1080
56 560 m 1x0c
 168 560 l 1x0c
 168 448 l 1x14
 280 448 l 1x12
 280 336 l 1x22
 392 336 l 1x21
 392 224 l 1x41
 504 224 l 1x4080
 504 112 l 1x8080
 616 112 l 1
 616 0 l 1
 504 0 l 1x8040
 504 112 l 1x8080
 392 112 l 1x4080
 392 224 l 1x41
 280 224 l 1
 280 112 l 1x42
 168 112 l 1
 168 0 l 1
 56 0 l 1
 56 112 l 1
 168 112 l 1x84
 168 224 l 1
 280 224 l 1x42
 280 336 l 1x22
 168 336 l 1x12
 168 448 l 1x14
 56 448 l 1
 56 560 l 1x0c
EndSplineSet
Validated: 5
EndChar

StartChar: uni2716
Encoding: 10006 10006 6
Width: 672
GlyphClass: 1
Flags: W
HStem: 0 224<56 168 504 616> 112 224<168 280 392 504> 448 224<168 280 392 504> 560 224<56 168 504 616>
VStem: 56 224<112 224 560 672> 56 112<0 112 672 784> 168 336<224 336 448 560> 392 224<112 224 560 672> 504 112<0 112 672 784>
LayerCount: 2
Fore
SplineSet
56 784 m 1x14
 168 784 l 1x14
 168 672 l 1x24
 280 672 l 1x28
 280 560 l 1
 392 560 l 1x19
 392 672 l 1x29
 504 672 l 1x2080
 504 784 l 1
 616 784 l 1x1080
 616 560 l 1x11
 504 560 l 1x12
 504 448 l 1x22
 392 448 l 1
 392 336 l 1x61
 504 336 l 1x62
 504 224 l 1x82
 616 224 l 1x81
 616 0 l 1
 504 0 l 1x8080
 504 112 l 1x4080
 392 112 l 1x41
 392 224 l 1
 280 224 l 1x89
 280 112 l 1x49
 168 112 l 1x44
 168 0 l 1
 56 0 l 1x84
 56 224 l 1x88
 168 224 l 1x82
 168 336 l 1x42
 280 336 l 1
 280 448 l 1x68
 168 448 l 1x62
 168 560 l 1x12
 56 560 l 1x18
 56 784 l 1x14
EndSplineSet
Validated: 1
EndChar

StartChar: uni2717
Encoding: 10007 10007 7
Width: 672
GlyphClass: 1
Flags: W
HStem: 0 112<56 168> 112 112<504 616> 224 112<392 504> 336 112<280 392> 448 112<168 280> 560 112<56 168> 672 112<504 616>
VStem: 56 112<0 112 560 672> 168 112<112 336 448 560> 280 112<336 448> 392 112<224 336 448 672> 504 112<112 224 672 784>
LayerCount: 2
Fore
SplineSet
504 784 m 1x1210
 616 784 l 1
 616 672 l 1x1210
 504 672 l 1
 504 448 l 1x0a20
 392 448 l 1x1040
 392 672 l 1
 504 672 l 1x1220
 504 784 l 1x1210
168 112 m 1x81
 168 0 l 1
 56 0 l 1
 56 112 l 1
 168 112 l 1x81
 168 336 l 1
 280 336 l 1
 280 448 l 1x9080
 168 448 l 1x0880
 168 560 l 1x09
 56 560 l 1
 56 672 l 1
 168 672 l 1x05
 168 560 l 1x09
 280 560 l 1x0880
 280 448 l 1x1080
 392 448 l 1x1040
 392 336 l 1x2040
 504 336 l 1x2020
 504 224 l 1x4020
 616 224 l 1
 616 112 l 1
 504 112 l 1x4010
 504 224 l 1x4020
 392 224 l 1x2020
 392 336 l 1x2040
 280 336 l 1
 280 112 l 1x5080
 168 112 l 1x81
EndSplineSet
Validated: 5
EndChar

StartChar: uni2718
Encoding: 10008 10008 8
Width: 672
GlyphClass: 1
Flags: W
HStem: 0 21G<56 168> 112 224<168 280 392 504> 112 112<504 616> 448 224<168 280 392 504> 560 112<56 168> 764 20G<504 616>
VStem: 56 224<112 224 560 672> 56 112<0 112> 168 336<224 336 448 560> 392 224<112 224 560 672> 504 112<672 784>
LayerCount: 2
Fore
SplineSet
504 784 m 1x9420
 616 784 l 1x9420
 616 560 l 1x8c40
 504 560 l 1x8c80
 504 448 l 1x9480
 392 448 l 1
 392 336 l 1xd440
 504 336 l 1xd480
 504 224 l 1xa480
 616 224 l 1
 616 112 l 1xa440
 392 112 l 1xc440
 392 224 l 1
 280 224 l 1xa640
 280 112 l 1xc640
 168 112 l 1
 168 0 l 1
 56 0 l 1xc5
 56 224 l 1xa6
 168 224 l 1xa480
 168 336 l 1xc480
 280 336 l 1
 280 448 l 1xd6
 168 448 l 1xd480
 168 560 l 1x8c80
 56 560 l 1
 56 672 l 1x8e
 280 672 l 1x96
 280 560 l 1
 392 560 l 1x8e40
 392 672 l 1x9640
 504 672 l 1
 504 784 l 1x9420
EndSplineSet
Validated: 1
EndChar

StartChar: uni2728
Encoding: 10024 10024 9
Width: 1344
GlyphClass: 1
Flags: W
HStem: 0 112<56 280 392 616> 224 112<728 840 952 1064> 336 112<504 728 1064 1288> 448 112<728 840 952 1064> 560 112<392 504> 672 112<280 392 504 616> 784 112<392 504>
VStem: 280 112<-224 0 112 336 672 784> 392 112<560 672 784 896> 504 112<672 784> 728 112<224 336 448 560> 840 112<0 224 560 784> 952 112<224 336 448 560>
LayerCount: 2
Fore
SplineSet
392 784 m 1x85
 392 896 l 1
 504 896 l 1x8280
 504 784 l 1x8480
 616 784 l 1
 616 672 l 1x8440
 504 672 l 1x8880
 504 784 l 1x8480
 392 784 l 1x85
 392 672 l 1x89
 504 672 l 1
 504 560 l 1
 392 560 l 1x8880
 392 672 l 1x89
 280 672 l 1
 280 784 l 1
 392 784 l 1x85
840 560 m 1x9060
 840 784 l 1
 952 784 l 1
 952 560 l 1x9210
 1064 560 l 1x9208
 1064 448 l 1
 1288 448 l 1
 1288 336 l 1xa008
 1064 336 l 1
 1064 224 l 1xc008
 952 224 l 1xc010
 952 336 l 1
 1064 336 l 1xc008
 1064 448 l 1xa008
 952 448 l 1x9008
 952 560 l 1x9010
 840 560 l 1
 840 448 l 1x9020
 728 448 l 1xa020
 728 336 l 1
 840 336 l 1
 840 224 l 1xc020
 952 224 l 1
 952 0 l 1
 840 0 l 1xc010
 840 224 l 1
 728 224 l 1
 728 336 l 1xc020
 504 336 l 1
 504 448 l 1
 728 448 l 1xa060
 728 560 l 1
 840 560 l 1x9060
280 112 m 1xa140
 280 336 l 1
 392 336 l 1
 392 112 l 1
 616 112 l 1
 616 0 l 1
 392 0 l 1
 392 112 l 1
 280 112 l 1
 280 0 l 1
 392 0 l 1
 392 -224 l 1
 280 -224 l 1
 280 0 l 1
 56 0 l 1
 56 112 l 1
 280 112 l 1xa140
EndSplineSet
Validated: 5
EndChar

StartChar: uni274C
Encoding: 10060 10060 10
Width: 1344
GlyphClass: 1
Flags: W
HStem: -112 336<280 392 952 1064> -112 224<168 280 1064 1176> 0 336<392 504 840 952> 448 336<392 504 840 952> 560 336<280 392 952 1064> 672 224<168 280 1064 1176>
VStem: 168 336<0 112 672 784> 168 224<-112 0 784 896> 280 336<112 224 560 672> 728 336<112 224 560 672> 840 336<0 112 672 784> 952 224<-112 0 784 896>
LayerCount: 2
Fore
SplineSet
168 896 m 1x05
 392 896 l 1x09
 392 784 l 1x11
 504 784 l 1x12
 504 672 l 1x06
 616 672 l 1x0480
 616 560 l 1
 728 560 l 1x08c0
 728 672 l 1x04c0
 840 672 l 1x0420
 840 784 l 1x1020
 952 784 l 1x1010
 952 896 l 1x0810
 1176 896 l 1x0410
 1176 672 l 1x0420
 1064 672 l 1x0440
 1064 560 l 1x0840
 952 560 l 1x0810
 952 448 l 1x1010
 840 448 l 1
 840 336 l 1x3020
 952 336 l 1x3010
 952 224 l 1x8010
 1064 224 l 1x8040
 1064 112 l 1x4040
 1176 112 l 1x4020
 1176 -112 l 1x4010
 952 -112 l 1x8010
 952 0 l 1x2010
 840 0 l 1x2020
 840 112 l 1x4020
 728 112 l 1x4040
 728 224 l 1
 616 224 l 1x80c0
 616 112 l 1x40c0
 504 112 l 1x42
 504 0 l 1x22
 392 0 l 1x21
 392 -112 l 1x81
 168 -112 l 1x41
 168 112 l 1x42
 280 112 l 1x4080
 280 224 l 1x8080
 392 224 l 1x81
 392 336 l 1x21
 504 336 l 1
 504 448 l 1x32
 392 448 l 1x31
 392 560 l 1x09
 280 560 l 1x0880
 280 672 l 1x0480
 168 672 l 1x06
 168 896 l 1x05
EndSplineSet
Validated: 1
EndChar

StartChar: uni274E
Encoding: 10062 10062 11
Width: 1344
GlyphClass: 1
Flags: W
HStem: -112 224<504 616 728 840> -112 112<392 504 840 952> 224 336<392 504 840 952> 336 112<504 616 728 840> 560 21G<616 728> 672 224<504 616 728 840> 784 112<392 504 840 952>
VStem: 168 336<224 336 448 560> 168 224<0 224 560 784> 504 336<0 112 672 784> 616 112<112 224 560 672> 840 336<224 336 448 560> 952 224<0 224 560 784>
LayerCount: 2
Fore
SplineSet
280 896 m 1x4288
 1064 896 l 1
 1064 784 l 1
 1176 784 l 1
 1176 0 l 1
 1064 0 l 1
 1064 -112 l 1
 280 -112 l 1
 280 0 l 1
 168 0 l 1
 168 784 l 1
 280 784 l 1
 280 896 l 1x4288
392 784 m 1
 392 560 l 1x22c0
 504 560 l 1x23
 504 448 l 1
 616 448 l 1
 616 336 l 1
 504 336 l 1x1120
 504 224 l 1x2120
 392 224 l 1
 392 0 l 1
 504 0 l 1x60c0
 504 112 l 1x80c0
 616 112 l 1
 616 224 l 1
 728 224 l 1
 728 112 l 1xa020
 840 112 l 1xa040
 840 0 l 1
 952 0 l 1
 952 224 l 1x6048
 840 224 l 1x6010
 840 336 l 1
 728 336 l 1
 728 448 l 1
 840 448 l 1x1030
 840 560 l 1x2030
 952 560 l 1
 952 784 l 1
 840 784 l 1x2248
 840 672 l 1x0448
 728 672 l 1
 728 560 l 1
 616 560 l 1
 616 672 l 1x0c20
 504 672 l 1x0c40
 504 784 l 1x0240
 392 784 l 1
EndSplineSet
Validated: 1
EndChar

StartChar: uni274F
Encoding: 10063 10063 12
Width: 672
GlyphClass: 1
Flags: W
HStem: 0 224<168 392> 448 112<168 392>
VStem: 56 112<224 448> 392 224<224 448>
LayerCount: 2
Fore
SplineSet
56 560 m 1
 504 560 l 1
 504 448 l 1
 616 448 l 1
 616 0 l 1
 168 0 l 1
 168 112 l 1
 56 112 l 1
 56 560 l 1
168 448 m 1
 168 224 l 1
 392 224 l 1
 392 448 l 1
 168 448 l 1
EndSplineSet
Validated: 1
EndChar

StartChar: uni2750
Encoding: 10064 10064 13
Width: 672
GlyphClass: 1
Flags: W
HStem: 0 112<168 392> 336 224<168 392>
VStem: 56 112<112 336> 392 224<112 336>
LayerCount: 2
Fore
SplineSet
168 560 m 1
 616 560 l 1
 616 112 l 1
 504 112 l 1
 504 0 l 1
 56 0 l 1
 56 448 l 1
 168 448 l 1
 168 560 l 1
168 336 m 1
 168 112 l 1
 392 112 l 1
 392 336 l 1
 168 336 l 1
EndSplineSet
Validated: 1
EndChar

StartChar: uni275B
Encoding: 10075 10075 14
Width: 672
GlyphClass: 1
Flags: W
HStem: 336 224<280 504> 672 112<280 392>
VStem: 168 112<560 672> 280 112<672 784>
LayerCount: 2
Fore
SplineSet
280 784 m 1xd0
 392 784 l 1
 392 672 l 1xd0
 280 672 l 1
 280 560 l 1xe0
 504 560 l 1
 504 336 l 1
 280 336 l 1
 280 448 l 1xd0
 168 448 l 1
 168 672 l 1
 280 672 l 1xe0
 280 784 l 1xd0
EndSplineSet
Validated: 5
EndChar

StartChar: uni275C
Encoding: 10076 10076 15
Width: 672
GlyphClass: 1
Flags: W
HStem: 336 112<280 392> 560 224<168 392>
VStem: 280 112<336 448> 392 112<448 560>
LayerCount: 2
Fore
SplineSet
168 784 m 1xd0
 392 784 l 1
 392 672 l 1
 504 672 l 1
 504 448 l 1xd0
 392 448 l 1
 392 336 l 1
 280 336 l 1
 280 448 l 1
 392 448 l 1xe0
 392 560 l 1
 168 560 l 1
 168 784 l 1xd0
EndSplineSet
Validated: 5
EndChar

StartChar: uni275D
Encoding: 10077 10077 16
Width: 672
GlyphClass: 1
Flags: W
HStem: 336 336<56 168 392 504> 336 224<168 280 504 616> 672 112<168 280 504 616>
VStem: 56 112<560 672> 168 112<672 784> 392 112<560 672> 504 112<672 784>
LayerCount: 2
Fore
SplineSet
168 784 m 1x28
 280 784 l 1
 280 672 l 1x28
 168 672 l 1x90
 168 560 l 1x50
 280 560 l 1
 280 336 l 1x48
 56 336 l 1
 56 672 l 1
 168 672 l 1x90
 168 784 l 1x28
504 784 m 1x22
 616 784 l 1
 616 672 l 1x22
 504 672 l 1x84
 504 560 l 1x44
 616 560 l 1
 616 336 l 1x42
 392 336 l 1
 392 672 l 1
 504 672 l 1x84
 504 784 l 1x22
EndSplineSet
Validated: 5
EndChar

StartChar: uni275E
Encoding: 10078 10078 17
Width: 672
GlyphClass: 1
Flags: W
HStem: 336 112<56 168 392 504> 448 336<168 280 504 616> 560 224<56 168 392 504>
VStem: 56 112<336 448> 168 112<448 560> 392 112<336 448> 504 112<448 560>
LayerCount: 2
Fore
SplineSet
56 784 m 1xb0
 280 784 l 1
 280 448 l 1x48
 168 448 l 1
 168 336 l 1
 56 336 l 1
 56 448 l 1
 168 448 l 1x90
 168 560 l 1xa8
 56 560 l 1
 56 784 l 1xb0
392 784 m 1xa4
 616 784 l 1
 616 448 l 1x42
 504 448 l 1
 504 336 l 1
 392 336 l 1
 392 448 l 1
 504 448 l 1x84
 504 560 l 1xa2
 392 560 l 1
 392 784 l 1xa4
EndSplineSet
Validated: 5
EndChar

StartChar: uni2762
Encoding: 10082 10082 18
Width: 672
GlyphClass: 1
Flags: W
HStem: 0 112<280 392> 336 336<168 280 392 504> 764 20G<280 392>
VStem: 168 336<336 672> 280 112<0 112 224 336 672 784>
LayerCount: 2
Fore
SplineSet
280 784 m 1xe8
 392 784 l 1
 392 672 l 1xe8
 504 672 l 1
 504 336 l 1xf0
 392 336 l 1
 392 224 l 1
 280 224 l 1
 280 336 l 1xe8
 168 336 l 1
 168 672 l 1xf0
 280 672 l 1
 280 784 l 1xe8
280 112 m 1
 392 112 l 1
 392 0 l 1
 280 0 l 1
 280 112 l 1
EndSplineSet
Validated: 1
EndChar

StartChar: uni2763
Encoding: 10083 10083 19
Width: 672
GlyphClass: 1
Flags: W
HStem: 0 112<280 392> 336 336<168 280 392 504> 448 112<56 168 504 616>
VStem: 168 112<560 672> 280 112<0 112 224 336> 392 112<560 672>
LayerCount: 2
Fore
SplineSet
168 672 m 1xd0
 280 672 l 1xd0
 280 560 l 1
 392 560 l 1xb4
 392 672 l 1
 504 672 l 1xd4
 504 560 l 1
 616 560 l 1
 616 448 l 1
 504 448 l 1xb4
 504 336 l 1xd4
 392 336 l 1
 392 224 l 1
 280 224 l 1
 280 336 l 1xc8
 168 336 l 1xd0
 168 448 l 1
 56 448 l 1
 56 560 l 1
 168 560 l 1xb0
 168 672 l 1xd0
280 112 m 1x88
 392 112 l 1
 392 0 l 1
 280 0 l 1
 280 112 l 1x88
EndSplineSet
Validated: 1
EndChar

StartChar: uni2764
Encoding: 10084 10084 20
Width: 672
GlyphClass: 1
Flags: W
HStem: 336 224<56 168 504 616>
VStem: 168 112<560 672> 280 112<112 224> 392 112<560 672>
LayerCount: 2
Fore
SplineSet
168 672 m 1xc0
 280 672 l 1
 280 560 l 1
 392 560 l 1
 392 672 l 1
 504 672 l 1
 504 560 l 1
 616 560 l 1
 616 336 l 1
 504 336 l 1
 504 224 l 1xd0
 392 224 l 1
 392 112 l 1
 280 112 l 1
 280 224 l 1xa0
 168 224 l 1
 168 336 l 1
 56 336 l 1
 56 560 l 1
 168 560 l 1
 168 672 l 1xc0
EndSplineSet
Validated: 1
EndChar

StartChar: uni2765
Encoding: 10085 10085 21
Width: 672
GlyphClass: 1
Flags: W
HStem: 224 112<56 168> 336 112<504 616> 448 112<56 168>
VStem: 168 224<112 224 560 672>
LayerCount: 2
Fore
SplineSet
168 672 m 1xb0
 392 672 l 1
 392 560 l 1
 504 560 l 1xb0
 504 448 l 1
 616 448 l 1
 616 336 l 1
 504 336 l 1x50
 504 224 l 1
 392 224 l 1
 392 112 l 1
 168 112 l 1
 168 224 l 1
 56 224 l 1
 56 336 l 1
 168 336 l 1
 168 448 l 1
 56 448 l 1
 56 560 l 1
 168 560 l 1
 168 672 l 1xb0
EndSplineSet
Validated: 1
EndChar

StartChar: uni2768
Encoding: 10088 10088 22
Width: 672
GlyphClass: 1
Flags: W
HStem: 0 112<504 616> 672 112<504 616>
VStem: 168 224<224 560> 280 224<112 224 560 672> 392 224<0 112 672 784>
LayerCount: 2
Fore
SplineSet
392 784 m 1xc8
 616 784 l 1
 616 672 l 1xc8
 504 672 l 1
 504 560 l 1xd0
 392 560 l 1
 392 224 l 1xe0
 504 224 l 1
 504 112 l 1xd0
 616 112 l 1
 616 0 l 1
 392 0 l 1
 392 112 l 1xc8
 280 112 l 1
 280 224 l 1xd0
 168 224 l 1
 168 560 l 1xe0
 280 560 l 1
 280 672 l 1xd0
 392 672 l 1
 392 784 l 1xc8
EndSplineSet
Validated: 1
EndChar

StartChar: uni2769
Encoding: 10089 10089 23
Width: 672
GlyphClass: 1
Flags: W
HStem: 0 112<56 168> 672 112<56 168>
VStem: 56 224<0 112 672 784> 168 224<112 224 560 672> 280 224<224 560>
LayerCount: 2
Fore
SplineSet
56 784 m 1xe0
 280 784 l 1
 280 672 l 1xe0
 392 672 l 1
 392 560 l 1xd0
 504 560 l 1
 504 224 l 1xc8
 392 224 l 1
 392 112 l 1xd0
 280 112 l 1
 280 0 l 1
 56 0 l 1
 56 112 l 1xe0
 168 112 l 1
 168 224 l 1xd0
 280 224 l 1
 280 560 l 1xc8
 168 560 l 1
 168 672 l 1xd0
 56 672 l 1
 56 784 l 1xe0
EndSplineSet
Validated: 1
EndChar

StartChar: uni276A
Encoding: 10090 10090 24
Width: 672
GlyphClass: 1
Flags: W
HStem: 0 112<504 616> 672 112<504 616>
VStem: 168 336<224 336 448 560> 280 224<112 224 560 672> 392 224<0 112 672 784>
LayerCount: 2
Fore
SplineSet
392 784 m 1xc8
 616 784 l 1
 616 672 l 1xc8
 504 672 l 1xd0
 504 448 l 1xe0
 392 448 l 1
 392 336 l 1xc8
 504 336 l 1xe0
 504 112 l 1xd0
 616 112 l 1
 616 0 l 1
 392 0 l 1
 392 112 l 1xc8
 280 112 l 1
 280 224 l 1xd0
 168 224 l 1
 168 560 l 1xe0
 280 560 l 1
 280 672 l 1xd0
 392 672 l 1
 392 784 l 1xc8
EndSplineSet
Validated: 1
EndChar

StartChar: uni276B
Encoding: 10091 10091 25
Width: 672
GlyphClass: 1
Flags: W
HStem: 0 112<56 168> 672 112<56 168>
VStem: 56 224<0 112 672 784> 168 336<224 336 448 560> 168 224<112 224 560 672>
LayerCount: 2
Fore
SplineSet
56 784 m 1xe0
 280 784 l 1
 280 672 l 1xe0
 392 672 l 1
 392 560 l 1xc8
 504 560 l 1
 504 224 l 1xd0
 392 224 l 1
 392 112 l 1xc8
 280 112 l 1
 280 0 l 1
 56 0 l 1
 56 112 l 1xe0
 168 112 l 1xc8
 168 336 l 1xd0
 280 336 l 1
 280 448 l 1xe0
 168 448 l 1xd0
 168 672 l 1xc8
 56 672 l 1
 56 784 l 1xe0
EndSplineSet
Validated: 1
EndChar

StartChar: uni276C
Encoding: 10092 10092 26
Width: 672
GlyphClass: 1
Flags: W
HStem: 0 112<392 504> 336 112<56 168> 672 112<392 504>
VStem: 168 224<224 336 448 560> 280 112<112 224 560 672> 392 112<0 112 672 784>
CounterMasks: 1 e0
LayerCount: 2
Fore
SplineSet
392 784 m 1xe4
 504 784 l 1
 504 672 l 1xe4
 392 672 l 1xe8
 392 448 l 1xf0
 280 448 l 1
 280 336 l 1xe8
 392 336 l 1xf0
 392 112 l 1xe8
 504 112 l 1
 504 0 l 1
 392 0 l 1xe4
 392 112 l 1
 280 112 l 1
 280 224 l 1xe8
 168 224 l 1
 168 336 l 1
 56 336 l 1
 56 448 l 1
 168 448 l 1
 168 560 l 1xf0
 280 560 l 1
 280 672 l 1
 392 672 l 1xe8
 392 784 l 1xe4
EndSplineSet
Validated: 5
EndChar

StartChar: uni276D
Encoding: 10093 10093 27
Width: 672
GlyphClass: 1
Flags: W
HStem: 0 112<168 280> 336 112<504 616> 672 112<168 280>
VStem: 168 112<0 112 672 784> 280 224<224 336 448 560> 280 112<112 224 560 672>
CounterMasks: 1 e0
LayerCount: 2
Fore
SplineSet
168 784 m 1xf0
 280 784 l 1
 280 672 l 1xf0
 392 672 l 1
 392 560 l 1xe4
 504 560 l 1
 504 448 l 1
 616 448 l 1
 616 336 l 1
 504 336 l 1
 504 224 l 1xe8
 392 224 l 1
 392 112 l 1xe4
 280 112 l 1
 280 0 l 1
 168 0 l 1
 168 112 l 1
 280 112 l 1xf0
 280 336 l 1xe8
 392 336 l 1
 392 448 l 1xe4
 280 448 l 1xe8
 280 672 l 1
 168 672 l 1
 168 784 l 1xf0
EndSplineSet
Validated: 5
EndChar

StartChar: uni276E
Encoding: 10094 10094 28
Width: 672
GlyphClass: 1
Flags: W
HStem: 0 112<504 616> 336 112<56 168> 672 112<504 616>
VStem: 168 224<224 336 448 560> 280 224<112 224 560 672> 392 224<0 112 672 784>
CounterMasks: 1 e0
LayerCount: 2
Fore
SplineSet
392 784 m 1xe4
 616 784 l 1
 616 672 l 1xe4
 504 672 l 1
 504 560 l 1xe8
 392 560 l 1
 392 448 l 1xf0
 280 448 l 1
 280 336 l 1xe8
 392 336 l 1
 392 224 l 1xf0
 504 224 l 1
 504 112 l 1xe8
 616 112 l 1
 616 0 l 1
 392 0 l 1
 392 112 l 1xe4
 280 112 l 1
 280 224 l 1xe8
 168 224 l 1
 168 336 l 1
 56 336 l 1
 56 448 l 1
 168 448 l 1
 168 560 l 1xf0
 280 560 l 1
 280 672 l 1xe8
 392 672 l 1
 392 784 l 1xe4
EndSplineSet
Validated: 1
EndChar

StartChar: uni276F
Encoding: 10095 10095 29
Width: 672
GlyphClass: 1
Flags: W
HStem: 0 112<56 168> 336 112<504 616> 672 112<56 168>
VStem: 56 224<0 112 672 784> 168 224<112 224 560 672> 280 224<224 336 448 560>
CounterMasks: 1 e0
LayerCount: 2
Fore
SplineSet
56 784 m 1xf0
 280 784 l 1
 280 672 l 1xf0
 392 672 l 1
 392 560 l 1xe8
 504 560 l 1
 504 448 l 1
 616 448 l 1
 616 336 l 1
 504 336 l 1
 504 224 l 1xe4
 392 224 l 1
 392 112 l 1xe8
 280 112 l 1
 280 0 l 1
 56 0 l 1
 56 112 l 1xf0
 168 112 l 1
 168 224 l 1xe8
 280 224 l 1
 280 336 l 1xe4
 392 336 l 1
 392 448 l 1xe8
 280 448 l 1
 280 560 l 1xe4
 168 560 l 1
 168 672 l 1xe8
 56 672 l 1
 56 784 l 1xf0
EndSplineSet
Validated: 1
EndChar

StartChar: uni2770
Encoding: 10096 10096 30
Width: 672
GlyphClass: 1
Flags: W
HStem: 0 112<504 616> 336 112<56 168> 672 112<504 616>
VStem: 168 336<224 336 448 560> 280 224<112 224 560 672> 392 224<0 112 672 784>
CounterMasks: 1 e0
LayerCount: 2
Fore
SplineSet
392 784 m 1xe4
 616 784 l 1
 616 672 l 1xe4
 504 672 l 1xe8
 504 448 l 1xf0
 392 448 l 1
 392 336 l 1xe4
 504 336 l 1xf0
 504 112 l 1xe8
 616 112 l 1
 616 0 l 1
 392 0 l 1
 392 112 l 1xe4
 280 112 l 1
 280 224 l 1xe8
 168 224 l 1
 168 336 l 1
 56 336 l 1
 56 448 l 1
 168 448 l 1
 168 560 l 1xf0
 280 560 l 1
 280 672 l 1xe8
 392 672 l 1
 392 784 l 1xe4
EndSplineSet
Validated: 1
EndChar

StartChar: uni2771
Encoding: 10097 10097 31
Width: 672
GlyphClass: 1
Flags: W
HStem: 0 112<56 168> 336 112<504 616> 672 112<56 168>
VStem: 56 224<0 112 672 784> 168 336<224 336 448 560> 168 224<112 224 560 672>
CounterMasks: 1 e0
LayerCount: 2
Fore
SplineSet
56 784 m 1xf0
 280 784 l 1
 280 672 l 1xf0
 392 672 l 1
 392 560 l 1xe4
 504 560 l 1
 504 448 l 1
 616 448 l 1
 616 336 l 1
 504 336 l 1
 504 224 l 1xe8
 392 224 l 1
 392 112 l 1xe4
 280 112 l 1
 280 0 l 1
 56 0 l 1
 56 112 l 1xf0
 168 112 l 1xe4
 168 336 l 1xe8
 280 336 l 1
 280 448 l 1xf0
 168 448 l 1xe8
 168 672 l 1xe4
 56 672 l 1
 56 784 l 1xf0
EndSplineSet
Validated: 1
EndChar

StartChar: uni2772
Encoding: 10098 10098 32
Width: 672
GlyphClass: 1
Flags: W
HStem: 0 112<392 504> 112 112<280 392> 560 112<280 392> 672 112<392 504>
VStem: 168 112<224 560> 280 112<112 224 560 672> 392 112<0 112 672 784>
LayerCount: 2
Fore
SplineSet
392 784 m 1x12
 504 784 l 1
 504 672 l 1x12
 392 672 l 1
 392 560 l 1x24
 280 560 l 1
 280 224 l 1x68
 392 224 l 1x64
 392 112 l 1x84
 504 112 l 1
 504 0 l 1
 392 0 l 1x82
 392 112 l 1x84
 280 112 l 1x44
 280 224 l 1
 168 224 l 1
 168 560 l 1
 280 560 l 1x68
 280 672 l 1
 392 672 l 1x64
 392 784 l 1x12
EndSplineSet
Validated: 5
EndChar

StartChar: uni2773
Encoding: 10099 10099 33
Width: 672
GlyphClass: 1
Flags: W
HStem: 0 112<168 280> 112 112<280 392> 560 112<280 392> 672 112<168 280>
VStem: 168 112<0 112 672 784> 280 112<112 224 560 672> 392 112<224 560>
LayerCount: 2
Fore
SplineSet
168 784 m 1x18
 280 784 l 1x18
 280 672 l 1x28
 392 672 l 1
 392 560 l 1x24
 504 560 l 1
 504 224 l 1x62
 392 224 l 1
 392 112 l 1x64
 280 112 l 1
 280 0 l 1
 168 0 l 1
 168 112 l 1
 280 112 l 1x88
 280 224 l 1
 392 224 l 1
 392 560 l 1
 280 560 l 1x64
 280 672 l 1x68
 168 672 l 1
 168 784 l 1x18
EndSplineSet
Validated: 5
EndChar

StartChar: uni2774
Encoding: 10100 10100 34
Width: 672
GlyphClass: 1
Flags: W
HStem: 0 112<504 616> 336 112<168 280> 672 112<504 616>
VStem: 280 224<112 336 448 672> 392 224<0 112 672 784>
CounterMasks: 1 e0
LayerCount: 2
Fore
SplineSet
392 784 m 1xe8
 616 784 l 1
 616 672 l 1xe8
 504 672 l 1
 504 112 l 1xf0
 616 112 l 1
 616 0 l 1
 392 0 l 1
 392 112 l 1xe8
 280 112 l 1
 280 336 l 1
 168 336 l 1
 168 448 l 1
 280 448 l 1
 280 672 l 1xf0
 392 672 l 1
 392 784 l 1xe8
EndSplineSet
Validated: 1
EndChar

StartChar: uni2775
Encoding: 10101 10101 35
Width: 672
GlyphClass: 1
Flags: W
HStem: 0 112<56 168> 336 112<392 504> 672 112<56 168>
VStem: 56 224<0 112 672 784> 168 224<112 336 448 672>
CounterMasks: 1 e0
LayerCount: 2
Fore
SplineSet
56 784 m 1xf0
 280 784 l 1
 280 672 l 1xf0
 392 672 l 1
 392 448 l 1
 504 448 l 1
 504 336 l 1
 392 336 l 1
 392 112 l 1xe8
 280 112 l 1
 280 0 l 1
 56 0 l 1
 56 112 l 1xf0
 168 112 l 1
 168 672 l 1xe8
 56 672 l 1
 56 784 l 1xf0
EndSplineSet
Validated: 1
EndChar

StartChar: uni2776
Encoding: 10102 10102 36
Width: 672
GlyphClass: 1
Flags: W
HStem: 0 112<168 504> 672 112<280 392>
VStem: 56 224<224 448 560 672> 56 112<112 224 448 560> 168 336<0 112 672 784> 392 224<224 672> 504 112<112 224>
LayerCount: 2
Fore
SplineSet
280 672 m 1xe4
 280 560 l 1xe4
 168 560 l 1
 168 448 l 1xd0
 280 448 l 1
 280 224 l 1xe0
 168 224 l 1
 168 112 l 1xd0
 504 112 l 1
 504 0 l 1
 168 0 l 1xc8
 168 112 l 1
 56 112 l 1xd0
 56 672 l 1xe0
 168 672 l 1
 168 784 l 1
 504 784 l 1
 504 672 l 1xc8
 616 672 l 1xc4
 616 112 l 1xc2
 504 112 l 1xc8
 504 224 l 1xc2
 392 224 l 1
 392 672 l 1
 280 672 l 1xe4
EndSplineSet
Validated: 5
EndChar

StartChar: uni2777
Encoding: 10103 10103 37
Width: 672
GlyphClass: 1
Flags: W
HStem: 0 112<168 504> 224 112<280 392> 448 112<280 392> 672 112<168 392>
VStem: 56 112<112 336 560 672> 168 336<0 112 672 784> 392 224<336 448 560 672> 504 112<112 224 448 560>
LayerCount: 2
Fore
SplineSet
168 336 m 1xf9
 168 112 l 1xf9
 504 112 l 1
 504 0 l 1
 168 0 l 1xf4
 168 112 l 1
 56 112 l 1
 56 672 l 1
 168 672 l 1xf8
 168 784 l 1
 504 784 l 1
 504 672 l 1xf4
 616 672 l 1xf2
 616 112 l 1xf1
 504 112 l 1xf4
 504 224 l 1
 280 224 l 1
 280 336 l 1
 168 336 l 1xf9
168 672 m 1
 168 560 l 1
 392 560 l 1
 392 672 l 1xfa
 168 672 l 1
392 560 m 1
 392 448 l 1xf2
 504 448 l 1
 504 560 l 1xf1
 392 560 l 1
280 448 m 1
 280 336 l 1
 392 336 l 1
 392 448 l 1
 280 448 l 1
EndSplineSet
Validated: 5
EndChar

StartChar: uni2778
Encoding: 10104 10104 38
Width: 672
GlyphClass: 1
Flags: W
HStem: 0 112<168 392> 224 112<280 392> 448 112<280 392> 672 112<168 392>
VStem: 56 336<224 336 448 560> 56 112<112 224 560 672> 168 336<0 112 672 784> 392 224<112 224 336 448 560 672> 504 112<224 336 448 560>
LayerCount: 2
Fore
SplineSet
168 672 m 1xf4
 168 784 l 1
 504 784 l 1
 504 672 l 1xf2
 616 672 l 1
 616 112 l 1xf1
 504 112 l 1
 504 0 l 1
 168 0 l 1xf2
 168 112 l 1
 56 112 l 1
 56 672 l 1
 168 672 l 1xf4
168 672 m 1xf5
 168 560 l 1xf5
 392 560 l 1xf8
 392 672 l 1
 168 672 l 1xf5
392 560 m 1xf880
 392 448 l 1
 504 448 l 1
 504 560 l 1
 392 560 l 1xf880
280 448 m 1
 280 336 l 1
 392 336 l 1
 392 448 l 1
 280 448 l 1
392 336 m 1
 392 224 l 1
 504 224 l 1
 504 336 l 1
 392 336 l 1
168 224 m 1xf4
 168 112 l 1
 392 112 l 1xf5
 392 224 l 1xf8
 168 224 l 1xf4
EndSplineSet
Validated: 5
EndChar

StartChar: uni2779
Encoding: 10105 10105 39
Width: 672
GlyphClass: 1
Flags: W
HStem: 0 336<168 392> 0 112<392 504> 672 112<168 280 392 504>
VStem: 56 112<336 672> 168 336<0 112 672 784> 280 112<448 672> 504 112<112 672>
LayerCount: 2
Fore
SplineSet
168 672 m 1x70
 168 784 l 1
 504 784 l 1
 504 672 l 1x68
 616 672 l 1
 616 112 l 1x62
 504 112 l 1
 504 672 l 1x68
 392 672 l 1
 392 448 l 1
 280 448 l 1
 280 672 l 1
 168 672 l 1
 168 336 l 1
 392 336 l 1xb4
 392 112 l 1x74
 504 112 l 1
 504 0 l 1x68
 168 0 l 1xa8
 168 112 l 1x68
 56 112 l 1
 56 672 l 1
 168 672 l 1x70
EndSplineSet
Validated: 5
EndChar

StartChar: uni277A
Encoding: 10106 10106 40
Width: 672
GlyphClass: 1
Flags: W
HStem: 0 112<168 392> 224 112<168 392> 448 112<280 504> 672 112<168 504>
VStem: 56 112<112 224 336 672> 168 336<0 112 672 784> 504 112<224 448 560 672>
LayerCount: 2
Fore
SplineSet
168 672 m 1xf8
 168 784 l 1
 504 784 l 1
 504 672 l 1xf4
 616 672 l 1
 616 112 l 1xf2
 504 112 l 1
 504 0 l 1
 168 0 l 1xf4
 168 112 l 1
 56 112 l 1
 56 672 l 1
 168 672 l 1xf8
168 672 m 1xf8
 168 336 l 1
 392 336 l 1
 392 224 l 1
 504 224 l 1
 504 448 l 1
 280 448 l 1
 280 560 l 1
 504 560 l 1xfa
 504 672 l 1xf4
 168 672 l 1xf8
168 224 m 1
 168 112 l 1
 392 112 l 1
 392 224 l 1
 168 224 l 1
EndSplineSet
Validated: 5
EndChar

StartChar: uni277B
Encoding: 10107 10107 41
Width: 672
GlyphClass: 1
Flags: W
HStem: 0 224<168 280 392 504> 0 112<280 392> 224 112<280 392> 448 112<280 392> 672 112<280 504>
VStem: 56 224<112 224 560 672> 56 112<224 560> 168 336<0 112 672 784> 280 112<224 336> 392 224<112 224 336 448> 504 112<224 336 560 672>
LayerCount: 2
Fore
SplineSet
168 784 m 1x59
 504 784 l 1
 504 672 l 1x59
 616 672 l 1x5820
 616 112 l 1x5840
 504 112 l 1x59
 504 0 l 1
 168 0 l 1x99
 168 112 l 1x59
 56 112 l 1
 56 672 l 1x5c
 168 672 l 1
 168 784 l 1x59
280 672 m 1x1c
 280 560 l 1
 504 560 l 1x1c20
 504 672 l 1x19
 280 672 l 1x1c
168 560 m 1x3a
 168 224 l 1x9a
 280 224 l 1x9c
 280 336 l 1
 392 336 l 1x3880
 392 448 l 1x3840
 280 448 l 1x3880
 280 560 l 1x3c
 168 560 l 1x3a
392 336 m 1x38a0
 392 224 l 1
 504 224 l 1x98a0
 504 336 l 1
 392 336 l 1x38a0
280 224 m 1x9c
 280 112 l 1
 392 112 l 1x5c40
 392 224 l 1x9880
 280 224 l 1x9c
EndSplineSet
Validated: 5
EndChar

StartChar: uni277C
Encoding: 10108 10108 42
Width: 672
GlyphClass: 1
Flags: W
HStem: 0 112<280 392> 448 112<280 392> 672 112<168 504>
VStem: 56 224<112 448> 56 112<560 672> 168 336<0 112 672 784> 392 224<112 448> 504 112<448 672>
LayerCount: 2
Fore
SplineSet
168 672 m 1xe8
 168 784 l 1
 504 784 l 1
 504 672 l 1xe4
 616 672 l 1xe1
 616 112 l 1xe2
 504 112 l 1
 504 0 l 1
 168 0 l 1
 168 112 l 1xe4
 56 112 l 1xf0
 56 672 l 1
 168 672 l 1xe8
168 672 m 1xe8
 168 560 l 1
 392 560 l 1
 392 448 l 1xea
 504 448 l 1xe1
 504 672 l 1xe4
 168 672 l 1xe8
280 448 m 1xf2
 280 112 l 1
 392 112 l 1
 392 448 l 1
 280 448 l 1xf2
EndSplineSet
Validated: 5
EndChar

StartChar: uni277D
Encoding: 10109 10109 43
Width: 672
GlyphClass: 1
Flags: W
HStem: 0 224<168 280 392 504> 0 112<280 392> 336 112<168 280 392 504> 560 224<168 280 392 504> 672 112<280 392>
VStem: 56 224<112 224 336 448 560 672> 56 112<224 336 448 560> 168 336<0 112 672 784> 280 112<224 336 448 560> 392 224<112 224 336 448 560 672> 504 112<224 336 448 560>
LayerCount: 2
Fore
SplineSet
168 784 m 1x31
 504 784 l 1x31
 504 672 l 1x29
 616 672 l 1
 616 112 l 1x6840
 504 112 l 1x69
 504 0 l 1
 168 0 l 1xa1
 168 112 l 1x61
 56 112 l 1
 56 672 l 1x6c
 168 672 l 1x69
 168 784 l 1x31
280 672 m 1x2c40
 280 560 l 1x3440
 392 560 l 1x3080
 392 672 l 1
 280 672 l 1x2c40
168 560 m 1x32
 168 448 l 1x32
 280 448 l 1
 280 560 l 1x34
 168 560 l 1x32
392 560 m 1x30a0
 392 448 l 1
 504 448 l 1
 504 560 l 1
 392 560 l 1x30a0
280 448 m 1x24
 280 336 l 1x24
 392 336 l 1
 392 448 l 1x2080
 280 448 l 1x24
168 336 m 1xa2
 168 224 l 1xa2
 280 224 l 1
 280 336 l 1xa4
 168 336 l 1xa2
392 336 m 1xa0a0
 392 224 l 1
 504 224 l 1
 504 336 l 1
 392 336 l 1xa0a0
280 224 m 1xa4
 280 112 l 1
 392 112 l 1x6440
 392 224 l 1xa080
 280 224 l 1xa4
EndSplineSet
Validated: 5
EndChar

StartChar: uni277E
Encoding: 10110 10110 44
Width: 672
GlyphClass: 1
Flags: W
HStem: 0 112<168 392> 224 112<280 392> 448 112<280 392> 560 224<168 280 392 504> 672 112<280 392>
VStem: 56 224<336 448 560 672> 56 112<112 224 448 560> 168 336<0 112 672 784> 280 112<448 560> 392 224<112 224 560 672> 504 112<224 560>
LayerCount: 2
Fore
SplineSet
168 784 m 1xd1
 504 784 l 1xd1
 504 672 l 1xc9
 616 672 l 1
 616 112 l 1xc840
 504 112 l 1
 504 0 l 1
 168 0 l 1xc9
 168 112 l 1
 56 112 l 1xca
 56 672 l 1xcc
 168 672 l 1xc9
 168 784 l 1xd1
280 672 m 1xec40
 280 560 l 1xec40
 392 560 l 1xe880
 392 672 l 1
 280 672 l 1xec40
168 560 m 1xd2
 168 448 l 1xe2
 280 448 l 1
 280 336 l 1
 392 336 l 1
 392 224 l 1xe440
 504 224 l 1
 504 560 l 1xd020
 392 560 l 1
 392 448 l 1xe0a0
 280 448 l 1
 280 560 l 1xe4
 168 560 l 1xd2
168 224 m 1
 168 112 l 1
 392 112 l 1
 392 224 l 1xc240
 168 224 l 1
EndSplineSet
Validated: 5
EndChar

StartChar: uni277F
Encoding: 10111 10111 45
Width: 672
GlyphClass: 1
Flags: W
HStem: 112 112<392 504> 224 336<280 392 504 616> 560 112<392 504>
VStem: 56 112<112 672> 280 112<224 560> 392 112<112 224 560 672> 504 112<224 560>
LayerCount: 2
Fore
SplineSet
56 672 m 1xb0
 168 672 l 1
 168 112 l 1
 56 112 l 1
 56 672 l 1xb0
392 560 m 1x58
 392 672 l 1
 504 672 l 1x34
 504 560 l 1x54
 616 560 l 1
 616 224 l 1x52
 504 224 l 1x94
 504 560 l 1x54
 392 560 l 1x58
 392 224 l 1x98
 504 224 l 1
 504 112 l 1
 392 112 l 1x94
 392 224 l 1x98
 280 224 l 1
 280 560 l 1
 392 560 l 1x58
EndSplineSet
Validated: 5
EndChar

StartChar: uni2780
Encoding: 10112 10112 46
Width: 672
GlyphClass: 1
Flags: W
HStem: 112 112<168 280 392 504> 448 112<168 280>
VStem: 280 112<224 448 560 672>
LayerCount: 2
Fore
SplineSet
280 672 m 1
 392 672 l 1
 392 224 l 1
 504 224 l 1
 504 112 l 1
 168 112 l 1
 168 224 l 1
 280 224 l 1
 280 448 l 1
 168 448 l 1
 168 560 l 1
 280 560 l 1
 280 672 l 1
EndSplineSet
Validated: 1
EndChar

StartChar: uni2781
Encoding: 10113 10113 47
Width: 672
GlyphClass: 1
Flags: W
HStem: 112 112<280 504> 336 112<280 392> 560 112<168 392>
VStem: 168 112<224 336> 280 112<336 448> 392 112<448 560>
CounterMasks: 1 e0
LayerCount: 2
Fore
SplineSet
168 672 m 1xf4
 392 672 l 1
 392 560 l 1
 504 560 l 1
 504 448 l 1xf4
 392 448 l 1
 392 336 l 1xe8
 280 336 l 1
 280 224 l 1
 504 224 l 1
 504 112 l 1
 168 112 l 1
 168 336 l 1
 280 336 l 1xf4
 280 448 l 1
 392 448 l 1xe8
 392 560 l 1
 168 560 l 1
 168 672 l 1xf4
EndSplineSet
Validated: 5
EndChar

StartChar: uni2782
Encoding: 10114 10114 48
Width: 672
GlyphClass: 1
Flags: W
HStem: 112 112<168 392> 336 112<280 392> 560 112<168 392>
VStem: 168 224<112 224 560 672> 280 112<336 448> 392 112<224 336 448 560>
CounterMasks: 1 e0
LayerCount: 2
Fore
SplineSet
168 672 m 1xf0
 392 672 l 1
 392 560 l 1xf0
 504 560 l 1
 504 448 l 1xe4
 392 448 l 1
 392 336 l 1xe8
 504 336 l 1
 504 224 l 1xe4
 392 224 l 1
 392 112 l 1
 168 112 l 1
 168 224 l 1
 392 224 l 1xf0
 392 336 l 1
 280 336 l 1
 280 448 l 1
 392 448 l 1xe8
 392 560 l 1
 168 560 l 1
 168 672 l 1xf0
EndSplineSet
Validated: 5
EndChar

StartChar: uni2783
Encoding: 10115 10115 49
Width: 672
GlyphClass: 1
Flags: W
HStem: 336 112<280 392>
VStem: 168 112<448 672> 392 112<112 336 448 672>
LayerCount: 2
Fore
SplineSet
168 672 m 1
 280 672 l 1
 280 448 l 1
 392 448 l 1
 392 672 l 1
 504 672 l 1
 504 112 l 1
 392 112 l 1
 392 336 l 1
 168 336 l 1
 168 672 l 1
EndSplineSet
Validated: 1
EndChar

StartChar: uni2784
Encoding: 10116 10116 50
Width: 672
GlyphClass: 1
Flags: W
HStem: 112 112<168 392> 336 112<280 392> 560 112<280 504>
VStem: 168 112<448 560> 392 112<224 336>
CounterMasks: 1 e0
LayerCount: 2
Fore
SplineSet
168 672 m 1
 504 672 l 1
 504 560 l 1
 280 560 l 1
 280 448 l 1
 504 448 l 1
 504 224 l 1
 392 224 l 1
 392 112 l 1
 168 112 l 1
 168 224 l 1
 392 224 l 1
 392 336 l 1
 168 336 l 1
 168 672 l 1
EndSplineSet
Validated: 5
EndChar

StartChar: uni2785
Encoding: 10117 10117 51
Width: 672
GlyphClass: 1
Flags: W
HStem: 112 112<280 392> 224 112<392 504> 336 112<280 392> 560 112<280 504>
VStem: 168 112<224 336 448 560> 280 112<112 224> 392 112<224 336>
LayerCount: 2
Fore
SplineSet
280 336 m 1x3a
 280 224 l 1xba
 392 224 l 1
 392 112 l 1
 280 112 l 1xb4
 280 224 l 1xb8
 168 224 l 1
 168 560 l 1
 280 560 l 1x58
 280 672 l 1x54
 504 672 l 1
 504 560 l 1
 280 560 l 1
 280 448 l 1
 392 448 l 1x3a
 392 336 l 1
 504 336 l 1
 504 224 l 1x5a
 392 224 l 1x94
 392 336 l 1x52
 280 336 l 1x3a
EndSplineSet
Validated: 5
EndChar

StartChar: uni2786
Encoding: 10118 10118 52
Width: 672
GlyphClass: 1
Flags: W
HStem: 560 112<168 392>
VStem: 280 112<112 448> 392 112<448 560>
LayerCount: 2
Fore
SplineSet
168 672 m 1xa0
 504 672 l 1
 504 448 l 1xa0
 392 448 l 1
 392 112 l 1
 280 112 l 1
 280 448 l 1
 392 448 l 1xc0
 392 560 l 1
 168 560 l 1
 168 672 l 1xa0
EndSplineSet
Validated: 5
EndChar

StartChar: uni2787
Encoding: 10119 10119 53
Width: 672
GlyphClass: 1
Flags: W
HStem: 112 112<280 392> 224 112<168 280 392 504> 336 112<280 392> 448 112<168 280 392 504> 560 112<280 392>
VStem: 168 112<224 336 448 560> 280 112<112 224 336 448 560 672> 392 112<224 336 448 560>
LayerCount: 2
Fore
SplineSet
280 336 m 1x44
 280 448 l 1x24
 168 448 l 1
 168 560 l 1
 280 560 l 1x14
 280 672 l 1
 392 672 l 1x0a
 392 560 l 1x12
 504 560 l 1
 504 448 l 1x11
 392 448 l 1x22
 392 560 l 1x12
 280 560 l 1x14
 280 448 l 1x24
 392 448 l 1x22
 392 336 l 1x42
 504 336 l 1
 504 224 l 1x41
 392 224 l 1x82
 392 336 l 1x42
 280 336 l 1x44
 280 224 l 1x84
 392 224 l 1
 392 112 l 1
 280 112 l 1x82
 280 224 l 1x84
 168 224 l 1
 168 336 l 1
 280 336 l 1x44
EndSplineSet
Validated: 5
EndChar

StartChar: uni2788
Encoding: 10120 10120 54
Width: 672
GlyphClass: 1
Flags: W
HStem: 112 112<168 392> 336 112<280 392> 448 112<168 280> 560 112<280 392>
VStem: 168 112<448 560> 280 112<560 672> 392 112<224 336 448 560>
LayerCount: 2
Fore
SplineSet
280 560 m 1xa8
 280 672 l 1
 392 672 l 1
 392 560 l 1x94
 504 560 l 1
 504 224 l 1
 392 224 l 1
 392 112 l 1
 168 112 l 1
 168 224 l 1
 392 224 l 1
 392 336 l 1xda
 280 336 l 1xd4
 280 448 l 1xd8
 168 448 l 1
 168 560 l 1
 280 560 l 1xa8
280 560 m 1xa8
 280 448 l 1
 392 448 l 1xca
 392 560 l 1xd4
 280 560 l 1xa8
EndSplineSet
Validated: 5
EndChar

StartChar: uni2789
Encoding: 10121 10121 55
Width: 672
GlyphClass: 1
Flags: W
HStem: 112 112<392 504> 224 336<280 392 504 616> 560 112<392 504>
VStem: 56 112<112 672> 280 112<224 560> 392 112<112 224 560 672> 504 112<224 560>
LayerCount: 2
Fore
SplineSet
56 672 m 1xb0
 168 672 l 1
 168 112 l 1
 56 112 l 1
 56 672 l 1xb0
392 560 m 1x58
 392 672 l 1
 504 672 l 1x34
 504 560 l 1x54
 616 560 l 1
 616 224 l 1x52
 504 224 l 1x94
 504 560 l 1x54
 392 560 l 1x58
 392 224 l 1x98
 504 224 l 1
 504 112 l 1
 392 112 l 1x94
 392 224 l 1x98
 280 224 l 1
 280 560 l 1
 392 560 l 1x58
EndSplineSet
Validated: 5
EndChar

StartChar: uni278A
Encoding: 10122 10122 56
Width: 672
GlyphClass: 1
Flags: W
HStem: 0 112<168 504> 672 112<280 392>
VStem: 56 224<224 448 560 672> 56 112<112 224 448 560> 168 336<0 112 672 784> 392 224<224 672> 504 112<112 224>
LayerCount: 2
Fore
SplineSet
280 672 m 1xe4
 280 560 l 1xe4
 168 560 l 1
 168 448 l 1xd0
 280 448 l 1
 280 224 l 1xe0
 168 224 l 1
 168 112 l 1xd0
 504 112 l 1
 504 0 l 1
 168 0 l 1xc8
 168 112 l 1
 56 112 l 1xd0
 56 672 l 1xe0
 168 672 l 1
 168 784 l 1
 504 784 l 1
 504 672 l 1xc8
 616 672 l 1xc4
 616 112 l 1xc2
 504 112 l 1xc8
 504 224 l 1xc2
 392 224 l 1
 392 672 l 1
 280 672 l 1xe4
EndSplineSet
Validated: 5
EndChar

StartChar: uni278B
Encoding: 10123 10123 57
Width: 672
GlyphClass: 1
Flags: W
HStem: 0 112<168 504> 224 112<280 392> 448 112<280 392> 672 112<168 392>
VStem: 56 112<112 336 560 672> 168 336<0 112 672 784> 392 224<336 448 560 672> 504 112<112 224 448 560>
LayerCount: 2
Fore
SplineSet
168 336 m 1xf9
 168 112 l 1xf9
 504 112 l 1
 504 0 l 1
 168 0 l 1xf4
 168 112 l 1
 56 112 l 1
 56 672 l 1
 168 672 l 1xf8
 168 784 l 1
 504 784 l 1
 504 672 l 1xf4
 616 672 l 1xf2
 616 112 l 1xf1
 504 112 l 1xf4
 504 224 l 1
 280 224 l 1
 280 336 l 1
 168 336 l 1xf9
168 672 m 1
 168 560 l 1
 392 560 l 1
 392 672 l 1xfa
 168 672 l 1
392 560 m 1
 392 448 l 1xf2
 504 448 l 1
 504 560 l 1xf1
 392 560 l 1
280 448 m 1
 280 336 l 1
 392 336 l 1
 392 448 l 1
 280 448 l 1
EndSplineSet
Validated: 5
EndChar

StartChar: uni278C
Encoding: 10124 10124 58
Width: 672
GlyphClass: 1
Flags: W
HStem: 0 112<168 392> 224 112<280 392> 448 112<280 392> 672 112<168 392>
VStem: 56 336<224 336 448 560> 56 112<112 224 560 672> 168 336<0 112 672 784> 392 224<112 224 336 448 560 672> 504 112<224 336 448 560>
LayerCount: 2
Fore
SplineSet
168 672 m 1xf4
 168 784 l 1
 504 784 l 1
 504 672 l 1xf2
 616 672 l 1
 616 112 l 1xf1
 504 112 l 1
 504 0 l 1
 168 0 l 1xf2
 168 112 l 1
 56 112 l 1
 56 672 l 1
 168 672 l 1xf4
168 672 m 1xf5
 168 560 l 1xf5
 392 560 l 1xf8
 392 672 l 1
 168 672 l 1xf5
392 560 m 1xf880
 392 448 l 1
 504 448 l 1
 504 560 l 1
 392 560 l 1xf880
280 448 m 1
 280 336 l 1
 392 336 l 1
 392 448 l 1
 280 448 l 1
392 336 m 1
 392 224 l 1
 504 224 l 1
 504 336 l 1
 392 336 l 1
168 224 m 1xf4
 168 112 l 1
 392 112 l 1xf5
 392 224 l 1xf8
 168 224 l 1xf4
EndSplineSet
Validated: 5
EndChar

StartChar: uni278D
Encoding: 10125 10125 59
Width: 672
GlyphClass: 1
Flags: W
HStem: 0 336<168 392> 0 112<392 504> 672 112<168 280 392 504>
VStem: 56 112<336 672> 168 336<0 112 672 784> 280 112<448 672> 504 112<112 672>
LayerCount: 2
Fore
SplineSet
168 672 m 1x70
 168 784 l 1
 504 784 l 1
 504 672 l 1x68
 616 672 l 1
 616 112 l 1x62
 504 112 l 1
 504 672 l 1x68
 392 672 l 1
 392 448 l 1
 280 448 l 1
 280 672 l 1
 168 672 l 1
 168 336 l 1
 392 336 l 1xb4
 392 112 l 1x74
 504 112 l 1
 504 0 l 1x68
 168 0 l 1xa8
 168 112 l 1x68
 56 112 l 1
 56 672 l 1
 168 672 l 1x70
EndSplineSet
Validated: 5
EndChar

StartChar: uni278E
Encoding: 10126 10126 60
Width: 672
GlyphClass: 1
Flags: W
HStem: 0 112<168 392> 224 112<168 392> 448 112<280 504> 672 112<168 504>
VStem: 56 112<112 224 336 672> 168 336<0 112 672 784> 504 112<224 448 560 672>
LayerCount: 2
Fore
SplineSet
168 672 m 1xf8
 168 784 l 1
 504 784 l 1
 504 672 l 1xf4
 616 672 l 1
 616 112 l 1xf2
 504 112 l 1
 504 0 l 1
 168 0 l 1xf4
 168 112 l 1
 56 112 l 1
 56 672 l 1
 168 672 l 1xf8
168 672 m 1xf8
 168 336 l 1
 392 336 l 1
 392 224 l 1
 504 224 l 1
 504 448 l 1
 280 448 l 1
 280 560 l 1
 504 560 l 1xfa
 504 672 l 1xf4
 168 672 l 1xf8
168 224 m 1
 168 112 l 1
 392 112 l 1
 392 224 l 1
 168 224 l 1
EndSplineSet
Validated: 5
EndChar

StartChar: uni278F
Encoding: 10127 10127 61
Width: 672
GlyphClass: 1
Flags: W
HStem: 0 224<168 280 392 504> 0 112<280 392> 224 112<280 392> 448 112<280 392> 672 112<280 504>
VStem: 56 224<112 224 560 672> 56 112<224 560> 168 336<0 112 672 784> 280 112<224 336> 392 224<112 224 336 448> 504 112<224 336 560 672>
LayerCount: 2
Fore
SplineSet
168 784 m 1x59
 504 784 l 1
 504 672 l 1x59
 616 672 l 1x5820
 616 112 l 1x5840
 504 112 l 1x59
 504 0 l 1
 168 0 l 1x99
 168 112 l 1x59
 56 112 l 1
 56 672 l 1x5c
 168 672 l 1
 168 784 l 1x59
280 672 m 1x1c
 280 560 l 1
 504 560 l 1x1c20
 504 672 l 1x19
 280 672 l 1x1c
168 560 m 1x3a
 168 224 l 1x9a
 280 224 l 1x9c
 280 336 l 1
 392 336 l 1x3880
 392 448 l 1x3840
 280 448 l 1x3880
 280 560 l 1x3c
 168 560 l 1x3a
392 336 m 1x38a0
 392 224 l 1
 504 224 l 1x98a0
 504 336 l 1
 392 336 l 1x38a0
280 224 m 1x9c
 280 112 l 1
 392 112 l 1x5c40
 392 224 l 1x9880
 280 224 l 1x9c
EndSplineSet
Validated: 5
EndChar

StartChar: uni2790
Encoding: 10128 10128 62
Width: 672
GlyphClass: 1
Flags: W
HStem: 0 112<280 392> 448 112<280 392> 672 112<168 504>
VStem: 56 224<112 448> 56 112<560 672> 168 336<0 112 672 784> 392 224<112 448> 504 112<448 672>
LayerCount: 2
Fore
SplineSet
168 672 m 1xe8
 168 784 l 1
 504 784 l 1
 504 672 l 1xe4
 616 672 l 1xe1
 616 112 l 1xe2
 504 112 l 1
 504 0 l 1
 168 0 l 1
 168 112 l 1xe4
 56 112 l 1xf0
 56 672 l 1
 168 672 l 1xe8
168 672 m 1xe8
 168 560 l 1
 392 560 l 1
 392 448 l 1xea
 504 448 l 1xe1
 504 672 l 1xe4
 168 672 l 1xe8
280 448 m 1xf2
 280 112 l 1
 392 112 l 1
 392 448 l 1
 280 448 l 1xf2
EndSplineSet
Validated: 5
EndChar

StartChar: uni2791
Encoding: 10129 10129 63
Width: 672
GlyphClass: 1
Flags: W
HStem: 0 224<168 280 392 504> 0 112<280 392> 336 112<168 280 392 504> 560 224<168 280 392 504> 672 112<280 392>
VStem: 56 224<112 224 336 448 560 672> 56 112<224 336 448 560> 168 336<0 112 672 784> 280 112<224 336 448 560> 392 224<112 224 336 448 560 672> 504 112<224 336 448 560>
LayerCount: 2
Fore
SplineSet
168 784 m 1x31
 504 784 l 1x31
 504 672 l 1x29
 616 672 l 1
 616 112 l 1x6840
 504 112 l 1x69
 504 0 l 1
 168 0 l 1xa1
 168 112 l 1x61
 56 112 l 1
 56 672 l 1x6c
 168 672 l 1x69
 168 784 l 1x31
280 672 m 1x2c40
 280 560 l 1x3440
 392 560 l 1x3080
 392 672 l 1
 280 672 l 1x2c40
168 560 m 1x32
 168 448 l 1x32
 280 448 l 1
 280 560 l 1x34
 168 560 l 1x32
392 560 m 1x30a0
 392 448 l 1
 504 448 l 1
 504 560 l 1
 392 560 l 1x30a0
280 448 m 1x24
 280 336 l 1x24
 392 336 l 1
 392 448 l 1x2080
 280 448 l 1x24
168 336 m 1xa2
 168 224 l 1xa2
 280 224 l 1
 280 336 l 1xa4
 168 336 l 1xa2
392 336 m 1xa0a0
 392 224 l 1
 504 224 l 1
 504 336 l 1
 392 336 l 1xa0a0
280 224 m 1xa4
 280 112 l 1
 392 112 l 1x6440
 392 224 l 1xa080
 280 224 l 1xa4
EndSplineSet
Validated: 5
EndChar

StartChar: uni2792
Encoding: 10130 10130 64
Width: 672
GlyphClass: 1
Flags: W
HStem: 0 112<168 392> 224 112<280 392> 448 112<280 392> 560 224<168 280 392 504> 672 112<280 392>
VStem: 56 224<336 448 560 672> 56 112<112 224 448 560> 168 336<0 112 672 784> 280 112<448 560> 392 224<112 224 560 672> 504 112<224 560>
LayerCount: 2
Fore
SplineSet
168 784 m 1xd1
 504 784 l 1xd1
 504 672 l 1xc9
 616 672 l 1
 616 112 l 1xc840
 504 112 l 1
 504 0 l 1
 168 0 l 1xc9
 168 112 l 1
 56 112 l 1xca
 56 672 l 1xcc
 168 672 l 1xc9
 168 784 l 1xd1
280 672 m 1xec40
 280 560 l 1xec40
 392 560 l 1xe880
 392 672 l 1
 280 672 l 1xec40
168 560 m 1xd2
 168 448 l 1xe2
 280 448 l 1
 280 336 l 1
 392 336 l 1
 392 224 l 1xe440
 504 224 l 1
 504 560 l 1xd020
 392 560 l 1
 392 448 l 1xe0a0
 280 448 l 1
 280 560 l 1xe4
 168 560 l 1xd2
168 224 m 1
 168 112 l 1
 392 112 l 1
 392 224 l 1xc240
 168 224 l 1
EndSplineSet
Validated: 5
EndChar

StartChar: uni2793
Encoding: 10131 10131 65
Width: 672
GlyphClass: 1
Flags: W
HStem: 112 112<392 504> 224 336<280 392 504 616> 560 112<392 504>
VStem: 56 112<112 672> 280 112<224 560> 392 112<112 224 560 672> 504 112<224 560>
LayerCount: 2
Fore
SplineSet
56 672 m 1xb0
 168 672 l 1
 168 112 l 1
 56 112 l 1
 56 672 l 1xb0
392 560 m 1x58
 392 672 l 1
 504 672 l 1x34
 504 560 l 1x54
 616 560 l 1
 616 224 l 1x52
 504 224 l 1x94
 504 560 l 1x54
 392 560 l 1x58
 392 224 l 1x98
 504 224 l 1
 504 112 l 1
 392 112 l 1x94
 392 224 l 1x98
 280 224 l 1
 280 560 l 1
 392 560 l 1x58
EndSplineSet
Validated: 5
EndChar

StartChar: uni27B0
Encoding: 10160 10160 66
Width: 1344
GlyphClass: 1
Flags: W
HStem: 0 112<504 840> 112 336<392 504 840 952> 448 112<504 616 728 840> 560 112<168 280 616 728 1064 1176> 672 112<280 616 728 1064>
VStem: 168 112<560 672> 392 112<112 448> 504 112<448 560> 728 112<448 560> 840 112<112 448> 1064 112<560 672>
LayerCount: 2
Fore
SplineSet
616 560 m 1x2520
 616 672 l 1
 280 672 l 1
 280 560 l 1
 168 560 l 1
 168 672 l 1
 280 672 l 1x1520
 280 784 l 1
 616 784 l 1x0d20
 616 672 l 1
 728 672 l 1x15a0
 728 784 l 1
 1064 784 l 1x0da0
 1064 672 l 1
 1176 672 l 1
 1176 560 l 1
 1064 560 l 1
 1064 672 l 1
 728 672 l 1x15a0
 728 560 l 1
 840 560 l 1x25a0
 840 448 l 1x45a0
 952 448 l 1
 952 112 l 1x4460
 840 112 l 1x8460
 840 448 l 1x44a0
 728 448 l 1
 728 560 l 1
 616 560 l 1
 616 448 l 1x25a0
 504 448 l 1x4620
 504 112 l 1x8620
 840 112 l 1
 840 0 l 1
 504 0 l 1x8560
 504 112 l 1x8620
 392 112 l 1
 392 448 l 1
 504 448 l 1x4620
 504 560 l 1
 616 560 l 1x2520
EndSplineSet
Validated: 5
EndChar

StartChar: uni27BF
Encoding: 10175 10175 67
Width: 1344
GlyphClass: 1
Flags: W
HStem: 0 112<168 504 840 1176> 112 336<56 168 504 616 728 840 1176 1288> 448 112<168 280 392 504 840 952 1064 1176> 560 112<280 392 952 1064> 672 112<56 280 392 952 1064 1288>
VStem: 56 112<112 448> 168 112<448 560> 392 112<448 560> 504 112<112 448> 728 112<112 448> 840 112<448 560> 952 112<560 672> 1064 112<448 560> 1176 112<112 448>
LayerCount: 2
Fore
SplineSet
1288 672 m 1x0804
 1064 672 l 1x1014
 1064 784 l 1x0808
 1288 784 l 1
 1288 672 l 1x0804
280 560 m 1x22
 280 672 l 1x12
 56 672 l 1
 56 784 l 1x0c
 280 784 l 1x0a
 280 672 l 1
 392 672 l 1x13
 392 784 l 1
 952 784 l 1x0b10
 952 672 l 1
 1064 672 l 1x1310
 1064 560 l 1x2310
 1176 560 l 1x2008
 1176 448 l 1x4008
 1288 448 l 1
 1288 112 l 1x4004
 1176 112 l 1x8004
 1176 448 l 1x4008
 1064 448 l 1x2008
 1064 560 l 1x2010
 952 560 l 1
 952 448 l 1x2020
 840 448 l 1x4040
 840 112 l 1x8040
 1176 112 l 1
 1176 0 l 1
 840 0 l 1x8024
 840 112 l 1x8040
 728 112 l 1
 728 448 l 1
 840 448 l 1x4040
 840 560 l 1
 952 560 l 1x2020
 952 672 l 1
 392 672 l 1x1110
 392 560 l 1
 504 560 l 1x2110
 504 448 l 1x4110
 616 448 l 1
 616 112 l 1x4080
 504 112 l 1x8080
 504 448 l 1x41
 392 448 l 1
 392 560 l 1
 280 560 l 1
 280 448 l 1x23
 168 448 l 1x44
 168 112 l 1x84
 504 112 l 1
 504 0 l 1
 168 0 l 1x8280
 168 112 l 1x84
 56 112 l 1
 56 448 l 1
 168 448 l 1x44
 168 560 l 1
 280 560 l 1x22
EndSplineSet
Validated: 5
EndChar

StartChar: uni2C7C
Encoding: 11388 11388 68
Width: 672
GlyphClass: 1
Flags: W
HStem: -224 112<168 280> 224 112<280 392>
VStem: 168 112<-224 -112> 280 112<-112 112 224 336>
LayerCount: 2
Fore
SplineSet
280 336 m 1xd0
 392 336 l 1
 392 224 l 1
 280 224 l 1
 280 336 l 1xd0
280 112 m 1
 392 112 l 1
 392 -112 l 1xd0
 280 -112 l 1
 280 -224 l 1
 168 -224 l 1
 168 -112 l 1
 280 -112 l 1xe0
 280 112 l 1
EndSplineSet
Validated: 5
EndChar

StartChar: uni2C7D
Encoding: 11389 11389 69
Width: 672
GlyphClass: 1
Flags: W
HStem: 336 112<280 392> 448 224<168 280 392 504> 672 224<56 168 504 616>
VStem: 56 112<672 896> 168 112<448 672> 280 112<336 448> 392 112<448 672> 504 112<672 896>
LayerCount: 2
Fore
SplineSet
504 448 m 1x42
 392 448 l 1x84
 392 672 l 1
 504 672 l 1x42
 504 896 l 1
 616 896 l 1
 616 672 l 1x21
 504 672 l 1
 504 448 l 1x42
56 896 m 1x30
 168 896 l 1x30
 168 672 l 1x50
 280 672 l 1x48
 280 448 l 1x88
 392 448 l 1
 392 336 l 1
 280 336 l 1x84
 280 448 l 1x88
 168 448 l 1x48
 168 672 l 1x50
 56 672 l 1
 56 896 l 1x30
EndSplineSet
Validated: 5
EndChar

StartChar: uniEE00
Encoding: 60928 60928 70
Width: 672
GlyphClass: 1
Flags: W
HStem: -112 112<168 728> 784 112<168 728>
VStem: 56 112<0 784>
LayerCount: 2
Fore
SplineSet
56 896 m 1
 728 896 l 1
 728 784 l 1
 168 784 l 1
 168 0 l 1
 728 0 l 1
 728 -112 l 1
 56 -112 l 1
 56 896 l 1
EndSplineSet
Validated: 1
EndChar

StartChar: uniEE01
Encoding: 60929 60929 71
Width: 672
GlyphClass: 1
Flags: W
HStem: -112 112<56 728> 784 112<56 728>
LayerCount: 2
Fore
SplineSet
56 896 m 1
 728 896 l 1
 728 784 l 1
 56 784 l 1
 56 896 l 1
56 0 m 1
 728 0 l 1
 728 -112 l 1
 56 -112 l 1
 56 0 l 1
EndSplineSet
Validated: 1
EndChar

StartChar: uniEE02
Encoding: 60930 60930 72
Width: 672
GlyphClass: 1
Flags: W
HStem: -112 112<56 504> 784 112<56 504>
VStem: 504 112<0 784>
LayerCount: 2
Fore
SplineSet
56 896 m 1
 616 896 l 1
 616 -112 l 1
 56 -112 l 1
 56 0 l 1
 504 0 l 1
 504 784 l 1
 56 784 l 1
 56 896 l 1
EndSplineSet
Validated: 1
EndChar

StartChar: uniEE03
Encoding: 60931 60931 73
Width: 672
GlyphClass: 1
Flags: W
HStem: -112 112<168 728> 112 560<280 728> 784 112<168 728>
VStem: 56 112<0 784> 280 448<112 672>
CounterMasks: 1 e0
LayerCount: 2
Fore
SplineSet
56 896 m 1
 728 896 l 1
 728 784 l 1
 168 784 l 1
 168 0 l 1
 728 0 l 1
 728 -112 l 1
 56 -112 l 1
 56 896 l 1
280 672 m 1
 728 672 l 1
 728 112 l 1
 280 112 l 1
 280 672 l 1
EndSplineSet
Validated: 1
EndChar

StartChar: uniEE04
Encoding: 60932 60932 74
Width: 672
GlyphClass: 1
Flags: W
HStem: -112 112<56 728> 112 560<56 728> 784 112<56 728>
VStem: 56 672<-112 0 112 672 784 896>
CounterMasks: 1 e0
LayerCount: 2
Fore
SplineSet
56 896 m 1
 728 896 l 1
 728 784 l 1
 56 784 l 1
 56 896 l 1
56 672 m 1
 728 672 l 1
 728 112 l 1
 56 112 l 1
 56 672 l 1
56 0 m 1
 728 0 l 1
 728 -112 l 1
 56 -112 l 1
 56 0 l 1
EndSplineSet
Validated: 1
EndChar

StartChar: uniEE05
Encoding: 60933 60933 75
Width: 672
GlyphClass: 1
Flags: W
HStem: -112 112<56 504> 784 112<56 504>
VStem: 56 336<112 672> 504 112<0 784>
LayerCount: 2
Fore
SplineSet
56 896 m 1
 616 896 l 1
 616 -112 l 1
 56 -112 l 1
 56 0 l 1
 504 0 l 1
 504 784 l 1
 56 784 l 1
 56 896 l 1
56 672 m 1
 392 672 l 1
 392 112 l 1
 56 112 l 1
 56 672 l 1
EndSplineSet
Validated: 1
EndChar

StartChar: uniEE06
Encoding: 60934 60934 76
Width: 672
GlyphClass: 1
Flags: W
HStem: 448 112<56 168 504 616> 560 112<168 504>
VStem: 56 112<448 560> 504 112<448 560>
LayerCount: 2
Fore
SplineSet
168 672 m 1x70
 504 672 l 1x70
 504 560 l 1
 616 560 l 1
 616 448 l 1
 504 448 l 1
 504 560 l 1
 168 560 l 1
 168 448 l 1
 56 448 l 1
 56 560 l 1
 168 560 l 1xb0
 168 672 l 1x70
EndSplineSet
Validated: 5
EndChar

StartChar: uniEE07
Encoding: 60935 60935 77
Width: 672
GlyphClass: 1
Flags: W
HStem: 560 112<280 504>
VStem: 504 112<224 560>
LayerCount: 2
Fore
SplineSet
280 672 m 1
 504 672 l 1
 504 560 l 1
 616 560 l 1
 616 224 l 1
 504 224 l 1
 504 560 l 1
 280 560 l 1
 280 672 l 1
EndSplineSet
Validated: 5
EndChar

StartChar: uniEE08
Encoding: 60936 60936 78
Width: 672
GlyphClass: 1
Flags: W
HStem: 112 112<280 504> 540 20G<504 616>
VStem: 504 112<224 560>
LayerCount: 2
Fore
SplineSet
504 560 m 1
 616 560 l 1
 616 224 l 1
 504 224 l 1
 504 112 l 1
 280 112 l 1
 280 224 l 1
 504 224 l 1
 504 560 l 1
EndSplineSet
Validated: 5
EndChar

StartChar: uniEE09
Encoding: 60937 60937 79
Width: 672
GlyphClass: 1
Flags: W
HStem: 112 112<168 504> 224 112<56 168 504 616>
VStem: 56 112<224 336> 504 112<224 336>
LayerCount: 2
Fore
SplineSet
616 224 m 1x70
 504 224 l 1xb0
 504 336 l 1
 616 336 l 1
 616 224 l 1x70
56 336 m 1x70
 168 336 l 1x70
 168 224 l 1
 504 224 l 1
 504 112 l 1
 168 112 l 1
 168 224 l 1xb0
 56 224 l 1
 56 336 l 1x70
EndSplineSet
Validated: 5
EndChar

StartChar: uniEE0A
Encoding: 60938 60938 80
Width: 672
GlyphClass: 1
Flags: W
HStem: 112 112<168 392> 540 20G<56 168>
VStem: 56 112<224 560>
LayerCount: 2
Fore
SplineSet
56 560 m 1
 168 560 l 1
 168 224 l 1
 392 224 l 1
 392 112 l 1
 168 112 l 1
 168 224 l 1
 56 224 l 1
 56 560 l 1
EndSplineSet
Validated: 5
EndChar

StartChar: uniEE0B
Encoding: 60939 60939 81
Width: 672
GlyphClass: 1
Flags: W
HStem: 560 112<168 392>
VStem: 56 112<224 560>
LayerCount: 2
Fore
SplineSet
168 672 m 1
 392 672 l 1
 392 560 l 1
 168 560 l 1
 168 224 l 1
 56 224 l 1
 56 560 l 1
 168 560 l 1
 168 672 l 1
EndSplineSet
Validated: 5
EndChar

StartChar: exclam
Encoding: 33 33 83
Width: 672
GlyphClass: 1
Flags: W
HStem: 0 112<280 392> 764 20G<280 392>
VStem: 280 112<0 112 224 784>
LayerCount: 2
Fore
SplineSet
280 784 m 1
 392 784 l 1
 392 224 l 1
 280 224 l 1
 280 784 l 1
280 112 m 1
 392 112 l 1
 392 0 l 1
 280 0 l 1
 280 112 l 1
EndSplineSet
Validated: 1
EndChar

StartChar: quotedbl
Encoding: 34 34 84
Width: 672
GlyphClass: 1
Flags: W
HStem: 560 224<168 280 392 504>
VStem: 168 112<560 784> 392 112<560 784>
LayerCount: 2
Fore
SplineSet
168 784 m 1
 280 784 l 1
 280 560 l 1
 168 560 l 1
 168 784 l 1
392 784 m 1
 504 784 l 1
 504 560 l 1
 392 560 l 1
 392 784 l 1
EndSplineSet
Validated: 1
EndChar

StartChar: numbersign
Encoding: 35 35 85
Width: 672
GlyphClass: 1
Flags: W
HStem: 0 21G<168 280 392 504> 224 112<56 168 280 392 504 616> 448 112<56 168 280 392 504 616> 764 20G<168 280 392 504>
VStem: 168 112<0 224 336 448 560 784> 392 112<0 224 336 448 560 784>
LayerCount: 2
Fore
SplineSet
168 784 m 1
 280 784 l 1
 280 560 l 1
 392 560 l 1
 392 784 l 1
 504 784 l 1
 504 560 l 1
 616 560 l 1
 616 448 l 1
 504 448 l 1
 504 336 l 1
 616 336 l 1
 616 224 l 1
 504 224 l 1
 504 0 l 1
 392 0 l 1
 392 224 l 1
 280 224 l 1
 280 0 l 1
 168 0 l 1
 168 224 l 1
 56 224 l 1
 56 336 l 1
 168 336 l 1
 168 448 l 1
 56 448 l 1
 56 560 l 1
 168 560 l 1
 168 784 l 1
280 448 m 1
 280 336 l 1
 392 336 l 1
 392 448 l 1
 280 448 l 1
EndSplineSet
Validated: 1
EndChar

StartChar: dollar
Encoding: 36 36 86
Width: 672
GlyphClass: 1
Flags: W
HStem: -112 21G<280 392> 0 112<168 280 392 504> 112 112<56 168> 336 112<168 280 392 504> 560 112<504 616> 672 112<168 280 392 504>
VStem: 56 112<112 224 448 672> 168 336<0 112 336 448 672 784> 280 112<-112 0 112 336 448 672 784 896> 504 112<112 336 560 672>
LayerCount: 2
Fore
SplineSet
392 336 m 1xd080
 392 112 l 1xd080
 504 112 l 1
 504 0 l 1xd1
 392 0 l 1
 392 -112 l 1
 280 -112 l 1
 280 0 l 1xd080
 168 0 l 1xd1
 168 112 l 1xd2
 56 112 l 1
 56 224 l 1
 168 224 l 1xb2
 168 112 l 1
 280 112 l 1
 280 336 l 1xd280
 168 336 l 1xd1
 168 448 l 1
 56 448 l 1
 56 672 l 1
 168 672 l 1xd6
 168 784 l 1xd5
 280 784 l 1
 280 896 l 1
 392 896 l 1
 392 784 l 1xd480
 504 784 l 1xd5
 504 672 l 1x99
 616 672 l 1
 616 560 l 1
 504 560 l 1x9840
 504 672 l 1x99
 392 672 l 1
 392 448 l 1x9480
 504 448 l 1
 504 336 l 1x95
 616 336 l 1
 616 112 l 1xb440
 504 112 l 1
 504 336 l 1xd1
 392 336 l 1xd080
168 672 m 1x9680
 168 448 l 1
 280 448 l 1
 280 672 l 1
 168 672 l 1x9680
EndSplineSet
Validated: 5
EndChar

StartChar: percent
Encoding: 37 37 87
Width: 672
GlyphClass: 1
Flags: W
HStem: 0 112<56 168> 336 112<280 392> 560 21G<56 168> 672 112<504 616>
VStem: 56 112<0 112 560 784> 168 112<112 336> 280 112<336 448> 392 112<448 672> 504 112<0 224 672 784>
LayerCount: 2
Fore
SplineSet
56 784 m 1xf8
 168 784 l 1
 168 560 l 1
 56 560 l 1
 56 784 l 1xf8
504 784 m 1xf080
 616 784 l 1
 616 672 l 1xf080
 504 672 l 1
 504 448 l 1xf1
 392 448 l 1
 392 336 l 1xf2
 280 336 l 1
 280 112 l 1xf4
 168 112 l 1
 168 0 l 1
 56 0 l 1
 56 112 l 1
 168 112 l 1xf8
 168 336 l 1
 280 336 l 1xf4
 280 448 l 1
 392 448 l 1xf2
 392 672 l 1
 504 672 l 1xf1
 504 784 l 1xf080
504 224 m 1
 616 224 l 1
 616 0 l 1
 504 0 l 1
 504 224 l 1
EndSplineSet
Validated: 5
EndChar

StartChar: ampersand
Encoding: 38 38 88
Width: 672
GlyphClass: 1
Flags: W
HStem: 0 112<168 392 504 616> 336 112<280 392 504 616> 448 112<168 280> 560 112<56 168 280 392> 672 112<168 280>
VStem: 56 112<112 448 560 672> 168 112<448 560 672 784> 280 112<336 448 560 672> 392 112<112 336> 504 112<0 112 336 448>
LayerCount: 2
Fore
SplineSet
168 448 m 1xa4
 168 560 l 1xa4
 56 560 l 1
 56 672 l 1
 168 672 l 1x94
 168 784 l 1
 280 784 l 1x8a
 280 672 l 1x92
 392 672 l 1
 392 560 l 1x91
 280 560 l 1xa2
 280 672 l 1x92
 168 672 l 1x94
 168 560 l 1xa4
 280 560 l 1xa2
 280 448 l 1xc2
 392 448 l 1
 392 336 l 1xc1
 504 336 l 1
 504 112 l 1xc080
 616 112 l 1
 616 0 l 1
 504 0 l 1xc040
 504 112 l 1
 392 112 l 1
 392 0 l 1
 168 0 l 1xc280
 168 112 l 1
 56 112 l 1
 56 448 l 1
 168 448 l 1xa4
616 336 m 1xc040
 504 336 l 1xc080
 504 448 l 1
 616 448 l 1
 616 336 l 1xc040
168 448 m 1xa4
 168 112 l 1
 392 112 l 1xa480
 392 336 l 1
 280 336 l 1xc1
 280 448 l 1xc2
 168 448 l 1xa4
EndSplineSet
Validated: 5
EndChar

StartChar: quotesingle
Encoding: 39 39 89
Width: 672
GlyphClass: 1
Flags: W
HStem: 560 224<280 392>
VStem: 280 112<560 784>
LayerCount: 2
Fore
SplineSet
280 784 m 1
 392 784 l 1
 392 560 l 1
 280 560 l 1
 280 784 l 1
EndSplineSet
Validated: 1
EndChar

StartChar: parenleft
Encoding: 40 40 90
Width: 672
GlyphClass: 1
Flags: W
HStem: -112 112<392 504> 0 112<280 392> 672 112<280 392> 784 112<392 504>
VStem: 168 112<112 672> 280 112<0 112 672 784> 392 112<-112 0 784 896>
LayerCount: 2
Fore
SplineSet
392 896 m 1x12
 504 896 l 1
 504 784 l 1x12
 392 784 l 1
 392 672 l 1x24
 280 672 l 1
 280 112 l 1x68
 392 112 l 1x64
 392 0 l 1x84
 504 0 l 1
 504 -112 l 1
 392 -112 l 1x82
 392 0 l 1x84
 280 0 l 1x44
 280 112 l 1
 168 112 l 1
 168 672 l 1
 280 672 l 1x68
 280 784 l 1
 392 784 l 1x64
 392 896 l 1x12
EndSplineSet
Validated: 5
EndChar

StartChar: parenright
Encoding: 41 41 91
Width: 672
GlyphClass: 1
Flags: W
HStem: -112 112<168 280> 0 112<280 392> 672 112<280 392> 784 112<168 280>
VStem: 168 112<-112 0 784 896> 280 112<0 112 672 784> 392 112<112 672>
LayerCount: 2
Fore
SplineSet
168 896 m 1x18
 280 896 l 1x18
 280 784 l 1x28
 392 784 l 1
 392 672 l 1x24
 504 672 l 1
 504 112 l 1x62
 392 112 l 1
 392 0 l 1x64
 280 0 l 1
 280 -112 l 1
 168 -112 l 1
 168 0 l 1
 280 0 l 1x88
 280 112 l 1
 392 112 l 1
 392 672 l 1
 280 672 l 1x64
 280 784 l 1x68
 168 784 l 1
 168 896 l 1x18
EndSplineSet
Validated: 5
EndChar

StartChar: asterisk
Encoding: 42 42 92
Width: 672
GlyphClass: 1
Flags: W
HStem: 448 112<168 280 392 504> 560 112<280 392> 672 112<168 280 392 504>
VStem: 168 112<448 560 672 784> 280 112<560 672> 392 112<448 560 672 784>
LayerCount: 2
Fore
SplineSet
504 672 m 1x24
 392 672 l 1x48
 392 784 l 1
 504 784 l 1
 504 672 l 1x24
168 784 m 1x30
 280 784 l 1x30
 280 672 l 1x50
 392 672 l 1x48
 392 560 l 1x88
 504 560 l 1
 504 448 l 1
 392 448 l 1x84
 392 560 l 1x88
 280 560 l 1
 280 448 l 1
 168 448 l 1
 168 560 l 1
 280 560 l 1x90
 280 672 l 1x50
 168 672 l 1
 168 784 l 1x30
EndSplineSet
Validated: 5
Substitution2: "Single Substitution lookup 21 subtable" asterisk
Substitution2: "Single Substitution lookup 18 subtable" asterisk.calt
EndChar

StartChar: plus
Encoding: 43 43 93
Width: 672
GlyphClass: 1
Flags: W
HStem: 336 112<56 280 392 616>
VStem: 280 112<112 336 448 672>
LayerCount: 2
Fore
SplineSet
280 672 m 1
 392 672 l 1
 392 448 l 1
 616 448 l 1
 616 336 l 1
 392 336 l 1
 392 112 l 1
 280 112 l 1
 280 336 l 1
 56 336 l 1
 56 448 l 1
 280 448 l 1
 280 672 l 1
EndSplineSet
Validated: 1
Substitution2: "Single Substitution lookup 18 subtable" plus.calt
EndChar

StartChar: comma
Encoding: 44 44 94
Width: 672
GlyphClass: 1
Flags: W
HStem: -112 112<56 168> 0 112<168 280>
VStem: 56 112<-112 0> 168 112<0 112>
LayerCount: 2
Fore
SplineSet
168 112 m 1x50
 280 112 l 1
 280 0 l 1x50
 168 0 l 1
 168 -112 l 1
 56 -112 l 1
 56 0 l 1
 168 0 l 1xa0
 168 112 l 1x50
EndSplineSet
Validated: 5
Substitution2: "'ss01' Style Set 1 lookup 3 subtable" comma.ss01
EndChar

StartChar: hyphen
Encoding: 45 45 95
Width: 672
GlyphClass: 1
Flags: W
HStem: 336 112<56 616>
LayerCount: 2
Fore
SplineSet
56 448 m 1
 616 448 l 1
 616 336 l 1
 56 336 l 1
 56 448 l 1
EndSplineSet
Validated: 1
Substitution2: "Single Substitution lookup 18 subtable" hyphen.calt
EndChar

StartChar: period
Encoding: 46 46 96
Width: 672
GlyphClass: 1
Flags: W
HStem: 0 112<280 392>
VStem: 280 112<0 112>
LayerCount: 2
Fore
SplineSet
280 112 m 1
 392 112 l 1
 392 0 l 1
 280 0 l 1
 280 112 l 1
EndSplineSet
Validated: 1
EndChar

StartChar: slash
Encoding: 47 47 97
Width: 672
GlyphClass: 1
Flags: W
HStem: 0 112<56 168> 336 112<280 392> 672 112<504 616>
VStem: 56 112<0 112> 168 112<112 336> 280 112<336 448> 392 112<448 672> 504 112<672 784>
CounterMasks: 1 e0
LayerCount: 2
Fore
SplineSet
504 784 m 1xe1
 616 784 l 1
 616 672 l 1xe1
 504 672 l 1
 504 448 l 1xe2
 392 448 l 1
 392 336 l 1xe4
 280 336 l 1
 280 112 l 1xe8
 168 112 l 1
 168 0 l 1
 56 0 l 1
 56 112 l 1
 168 112 l 1xf0
 168 336 l 1
 280 336 l 1xe8
 280 448 l 1
 392 448 l 1xe4
 392 672 l 1
 504 672 l 1xe2
 504 784 l 1xe1
EndSplineSet
Validated: 5
Substitution2: "Single Substitution lookup 21 subtable" slash
EndChar

StartChar: zero
Encoding: 48 48 98
Width: 672
GlyphClass: 1
Flags: W
HStem: 0 112<168 504> 336 112<280 392> 448 112<392 504> 672 112<168 504>
VStem: 56 112<112 224 336 672> 168 336<0 112 672 784> 280 112<336 448> 504 112<112 448 560 672>
LayerCount: 2
Fore
SplineSet
392 448 m 1xd3
 392 336 l 1
 280 336 l 1
 280 448 l 1
 392 448 l 1xd3
 392 560 l 1
 504 560 l 1xb3
 504 672 l 1xb4
 168 672 l 1
 168 336 l 1
 280 336 l 1
 280 224 l 1
 168 224 l 1
 168 112 l 1xda
 504 112 l 1
 504 0 l 1
 168 0 l 1xd4
 168 112 l 1
 56 112 l 1
 56 672 l 1
 168 672 l 1xd8
 168 784 l 1
 504 784 l 1
 504 672 l 1xd4
 616 672 l 1
 616 112 l 1xd1
 504 112 l 1xd4
 504 448 l 1xb1
 392 448 l 1xd3
EndSplineSet
Validated: 5
Substitution2: "'onum' Oldstyle Figures lookup 2 subtable" zero.onum
EndChar

StartChar: one
Encoding: 49 49 99
Width: 672
GlyphClass: 1
Flags: W
HStem: 0 112<56 280 392 616> 448 112<56 168> 560 112<168 280> 764 20G<280 392>
VStem: 56 112<448 560> 280 112<112 560 672 784>
LayerCount: 2
Fore
SplineSet
280 784 m 1xbc
 392 784 l 1
 392 112 l 1
 616 112 l 1
 616 0 l 1
 56 0 l 1
 56 112 l 1
 280 112 l 1
 280 560 l 1xbc
 168 560 l 1
 168 448 l 1
 56 448 l 1
 56 560 l 1
 168 560 l 1xdc
 168 672 l 1
 280 672 l 1
 280 784 l 1xbc
EndSplineSet
Validated: 5
Substitution2: "'onum' Oldstyle Figures lookup 2 subtable" one.onum
EndChar

StartChar: two
Encoding: 50 50 100
Width: 672
GlyphClass: 1
Flags: W
HStem: 0 112<56 168 280 616> 224 112<280 392> 336 112<392 504> 560 112<56 168> 672 112<168 504>
VStem: 56 112<560 672> 168 112<112 224> 280 112<224 336> 392 112<336 448> 504 112<448 672>
LayerCount: 2
Fore
SplineSet
168 784 m 1x8a
 504 784 l 1
 504 672 l 1
 616 672 l 1
 616 448 l 1xaa40
 504 448 l 1
 504 336 l 1xa880
 392 336 l 1
 392 224 l 1xc1
 280 224 l 1
 280 112 l 1xc2
 616 112 l 1
 616 0 l 1
 56 0 l 1
 56 112 l 1xc440
 168 112 l 1
 168 224 l 1
 280 224 l 1xc2
 280 336 l 1
 392 336 l 1xc1
 392 448 l 1
 504 448 l 1xa080
 504 672 l 1xa840
 168 672 l 1
 168 560 l 1
 56 560 l 1
 56 672 l 1
 168 672 l 1x9440
 168 784 l 1x8a
EndSplineSet
Validated: 5
Substitution2: "'onum' Oldstyle Figures lookup 2 subtable" two.onum
EndChar

StartChar: three
Encoding: 51 51 101
Width: 672
GlyphClass: 1
Flags: W
HStem: 0 112<168 504> 112 112<56 168> 336 112<280 504> 560 112<56 168> 672 112<168 504>
VStem: 56 112<112 224 560 672> 168 336<0 112 672 784> 504 112<112 336 448 672>
LayerCount: 2
Fore
SplineSet
168 784 m 1x2a
 504 784 l 1
 504 672 l 1x2a
 616 672 l 1
 616 448 l 1
 504 448 l 1
 504 336 l 1
 616 336 l 1
 616 112 l 1x69
 504 112 l 1xa2
 504 336 l 1
 280 336 l 1
 280 448 l 1
 504 448 l 1xa1
 504 672 l 1xaa
 168 672 l 1
 168 560 l 1
 56 560 l 1
 56 672 l 1
 168 672 l 1x34
 168 784 l 1x2a
504 112 m 1xa2
 504 0 l 1
 168 0 l 1xa2
 168 112 l 1xa4
 56 112 l 1
 56 224 l 1
 168 224 l 1x64
 168 112 l 1xa4
 504 112 l 1xa2
EndSplineSet
Validated: 5
Substitution2: "'onum' Oldstyle Figures lookup 2 subtable" three.onum
EndChar

StartChar: four
Encoding: 52 52 102
Width: 672
GlyphClass: 1
Flags: W
HStem: 0 21G<392 504> 336 112<168 392 504 616> 560 112<168 280> 672 112<280 392>
VStem: 56 112<448 560> 168 112<560 672> 392 112<0 336 448 672>
LayerCount: 2
Fore
SplineSet
280 672 m 1xe6
 280 784 l 1
 504 784 l 1xd6
 504 448 l 1
 616 448 l 1
 616 336 l 1
 504 336 l 1
 504 0 l 1
 392 0 l 1
 392 336 l 1
 56 336 l 1
 56 560 l 1
 168 560 l 1xea
 168 672 l 1
 280 672 l 1xe6
280 672 m 1xe6
 280 560 l 1xe6
 168 560 l 1xea
 168 448 l 1
 392 448 l 1
 392 672 l 1xda
 280 672 l 1xe6
EndSplineSet
Validated: 5
Substitution2: "'onum' Oldstyle Figures lookup 2 subtable" four.onum
EndChar

StartChar: five
Encoding: 53 53 103
Width: 672
GlyphClass: 1
Flags: W
HStem: 0 112<168 504> 112 112<56 168> 448 112<168 504> 672 112<168 616>
VStem: 56 112<112 224 560 672> 504 112<112 448>
LayerCount: 2
Fore
SplineSet
56 784 m 1xbc
 616 784 l 1
 616 672 l 1
 168 672 l 1
 168 560 l 1
 504 560 l 1
 504 448 l 1
 616 448 l 1
 616 112 l 1x7c
 504 112 l 1
 504 448 l 1
 56 448 l 1
 56 784 l 1xbc
504 112 m 1xbc
 504 0 l 1
 168 0 l 1
 168 112 l 1xbc
 56 112 l 1
 56 224 l 1
 168 224 l 1x7c
 168 112 l 1
 504 112 l 1xbc
EndSplineSet
Validated: 5
Substitution2: "'onum' Oldstyle Figures lookup 2 subtable" five.onum
EndChar

StartChar: six
Encoding: 54 54 104
Width: 672
GlyphClass: 1
Flags: W
HStem: 0 112<168 504> 336 112<168 504> 560 112<168 280> 672 112<280 504>
VStem: 56 112<112 336 448 560> 168 112<560 672> 504 112<112 336>
LayerCount: 2
Fore
SplineSet
168 336 m 1xea
 168 112 l 1xea
 504 112 l 1
 504 0 l 1
 168 0 l 1xe6
 168 112 l 1
 56 112 l 1
 56 560 l 1
 168 560 l 1xea
 168 672 l 1
 280 672 l 1xe6
 280 784 l 1
 504 784 l 1
 504 672 l 1xd6
 280 672 l 1
 280 560 l 1xe6
 168 560 l 1
 168 448 l 1
 504 448 l 1
 504 336 l 1
 616 336 l 1
 616 112 l 1
 504 112 l 1
 504 336 l 1
 168 336 l 1xea
EndSplineSet
Validated: 5
Substitution2: "'onum' Oldstyle Figures lookup 2 subtable" six.onum
EndChar

StartChar: seven
Encoding: 55 55 105
Width: 672
GlyphClass: 1
Flags: W
HStem: 0 21G<280 392> 560 21G<56 168> 672 112<168 504>
VStem: 56 112<560 672> 280 112<0 224> 392 112<224 448> 504 112<448 672>
LayerCount: 2
Fore
SplineSet
56 784 m 1xf2
 616 784 l 1
 616 448 l 1xf2
 504 448 l 1
 504 224 l 1xf4
 392 224 l 1
 392 0 l 1
 280 0 l 1
 280 224 l 1
 392 224 l 1xf8
 392 448 l 1
 504 448 l 1xf4
 504 672 l 1
 168 672 l 1
 168 560 l 1
 56 560 l 1
 56 784 l 1xf2
EndSplineSet
Validated: 5
Substitution2: "'onum' Oldstyle Figures lookup 2 subtable" seven.onum
EndChar

StartChar: eight
Encoding: 56 56 106
Width: 672
GlyphClass: 1
Flags: W
HStem: 0 112<168 504> 112 224<56 168 504 616> 336 112<168 504> 448 224<56 168 504 616> 672 112<168 504>
VStem: 56 112<112 336 448 672> 168 336<0 112 336 448 672 784> 504 112<112 336 448 672>
LayerCount: 2
Fore
SplineSet
168 336 m 1x44
 168 448 l 1x24
 56 448 l 1
 56 672 l 1
 168 672 l 1x14
 168 784 l 1
 504 784 l 1x0a
 504 672 l 1x12
 616 672 l 1
 616 448 l 1x11
 504 448 l 1x22
 504 672 l 1x12
 168 672 l 1x14
 168 448 l 1x24
 504 448 l 1x22
 504 336 l 1x42
 616 336 l 1
 616 112 l 1x41
 504 112 l 1x82
 504 336 l 1x42
 168 336 l 1x44
 168 112 l 1x84
 504 112 l 1
 504 0 l 1
 168 0 l 1x82
 168 112 l 1x84
 56 112 l 1
 56 336 l 1
 168 336 l 1x44
EndSplineSet
Validated: 5
Substitution2: "'onum' Oldstyle Figures lookup 2 subtable" eight.onum
EndChar

StartChar: nine
Encoding: 57 57 107
Width: 672
GlyphClass: 1
Flags: W
HStem: 0 112<168 392> 112 112<392 504> 336 112<168 504> 672 112<168 504>
VStem: 56 112<448 672> 392 112<112 224> 504 112<224 336 448 672>
LayerCount: 2
Fore
SplineSet
168 672 m 1x7a
 168 784 l 1
 504 784 l 1
 504 672 l 1
 616 672 l 1
 616 224 l 1x7a
 504 224 l 1
 504 112 l 1x7c
 392 112 l 1
 392 0 l 1
 168 0 l 1
 168 112 l 1
 392 112 l 1xbc
 392 224 l 1
 504 224 l 1x7c
 504 336 l 1
 168 336 l 1
 168 448 l 1
 56 448 l 1
 56 672 l 1
 168 672 l 1x7a
168 672 m 1
 168 448 l 1
 504 448 l 1
 504 672 l 1
 168 672 l 1
EndSplineSet
Validated: 5
Substitution2: "'onum' Oldstyle Figures lookup 2 subtable" nine.onum
EndChar

StartChar: colon
Encoding: 58 58 108
Width: 672
GlyphClass: 1
Flags: W
HStem: 0 112<280 392> 448 112<280 392>
VStem: 280 112<0 112 448 560>
LayerCount: 2
Fore
SplineSet
280 560 m 1
 392 560 l 1
 392 448 l 1
 280 448 l 1
 280 560 l 1
280 112 m 1
 392 112 l 1
 392 0 l 1
 280 0 l 1
 280 112 l 1
EndSplineSet
Validated: 1
Substitution2: "Single Substitution lookup 18 subtable" colon.calt
EndChar

StartChar: semicolon
Encoding: 59 59 109
Width: 672
GlyphClass: 1
Flags: W
HStem: -112 112<168 280> 0 112<280 392> 448 112<280 392>
VStem: 168 112<-112 0> 280 112<0 112 448 560>
LayerCount: 2
Fore
SplineSet
280 560 m 1x28
 392 560 l 1
 392 448 l 1
 280 448 l 1
 280 560 l 1x28
280 112 m 1x68
 392 112 l 1
 392 0 l 1x68
 280 0 l 1
 280 -112 l 1
 168 -112 l 1
 168 0 l 1
 280 0 l 1xb0
 280 112 l 1x68
EndSplineSet
Validated: 5
Substitution2: "'ss01' Style Set 1 lookup 3 subtable" semicolon.ss01
EndChar

StartChar: less
Encoding: 60 60 110
Width: 672
GlyphClass: 1
Flags: W
HStem: 0 112<504 616> 112 112<392 504> 224 112<280 392> 448 112<280 392> 560 112<392 504> 672 112<504 616>
VStem: 168 112<336 448> 280 112<224 336 448 560> 392 112<112 224 560 672> 504 112<0 112 672 784>
LayerCount: 2
Fore
SplineSet
504 784 m 1x0440
 616 784 l 1
 616 672 l 1x0440
 504 672 l 1
 504 560 l 1x0880
 392 560 l 1
 392 448 l 1x11
 280 448 l 1
 280 336 l 1x32
 392 336 l 1x31
 392 224 l 1x41
 504 224 l 1x4080
 504 112 l 1x8080
 616 112 l 1
 616 0 l 1
 504 0 l 1x8040
 504 112 l 1x8080
 392 112 l 1x4080
 392 224 l 1x41
 280 224 l 1x21
 280 336 l 1
 168 336 l 1
 168 448 l 1
 280 448 l 1x32
 280 560 l 1
 392 560 l 1x31
 392 672 l 1
 504 672 l 1x0880
 504 784 l 1x0440
EndSplineSet
Validated: 5
EndChar

StartChar: equal
Encoding: 61 61 111
Width: 672
GlyphClass: 1
Flags: W
HStem: 224 112<56 616> 448 112<56 616>
LayerCount: 2
Fore
SplineSet
56 560 m 1
 616 560 l 1
 616 448 l 1
 56 448 l 1
 56 560 l 1
56 336 m 1
 616 336 l 1
 616 224 l 1
 56 224 l 1
 56 336 l 1
EndSplineSet
Validated: 1
Substitution2: "Single Substitution lookup 21 subtable" equal
EndChar

StartChar: greater
Encoding: 62 62 112
Width: 672
GlyphClass: 1
Flags: W
HStem: 0 112<56 168> 112 112<168 280> 224 112<280 392> 448 112<280 392> 560 112<168 280> 672 112<56 168>
VStem: 56 112<0 112 672 784> 168 112<112 224 560 672> 280 112<224 336 448 560> 392 112<336 448>
LayerCount: 2
Fore
SplineSet
56 784 m 1x06
 168 784 l 1x06
 168 672 l 1x0a
 280 672 l 1x09
 280 560 l 1x11
 392 560 l 1
 392 448 l 1x1080
 504 448 l 1
 504 336 l 1x3040
 392 336 l 1
 392 224 l 1x3080
 280 224 l 1
 280 112 l 1x41
 168 112 l 1
 168 0 l 1
 56 0 l 1
 56 112 l 1
 168 112 l 1x82
 168 224 l 1
 280 224 l 1x41
 280 336 l 1
 392 336 l 1
 392 448 l 1
 280 448 l 1x3080
 280 560 l 1x31
 168 560 l 1x09
 168 672 l 1x0a
 56 672 l 1
 56 784 l 1x06
EndSplineSet
Validated: 5
EndChar

StartChar: question
Encoding: 63 63 113
Width: 672
GlyphClass: 1
Flags: W
HStem: 0 112<280 392> 224 112<280 392> 336 112<392 504> 560 112<56 168> 672 112<168 504>
VStem: 56 112<560 672> 280 112<0 112 224 336> 392 112<336 448> 504 112<448 672>
LayerCount: 2
Fore
SplineSet
168 784 m 1x8c80
 504 784 l 1
 504 672 l 1
 616 672 l 1
 616 448 l 1xac80
 504 448 l 1
 504 336 l 1xad
 392 336 l 1
 392 224 l 1
 280 224 l 1
 280 336 l 1
 392 336 l 1xc6
 392 448 l 1
 504 448 l 1xa5
 504 672 l 1xac80
 168 672 l 1
 168 560 l 1
 56 560 l 1
 56 672 l 1
 168 672 l 1x9480
 168 784 l 1x8c80
280 112 m 1x86
 392 112 l 1
 392 0 l 1
 280 0 l 1
 280 112 l 1x86
EndSplineSet
Validated: 5
EndChar

StartChar: at
Encoding: 64 64 114
Width: 672
GlyphClass: 1
Flags: W
HStem: 0 112<168 616> 224 112<392 504> 540 20G<280 392> 672 112<168 504>
VStem: 56 112<112 672> 280 112<336 560> 504 112<336 672>
CounterMasks: 1 0e
LayerCount: 2
Fore
SplineSet
168 784 m 1
 504 784 l 1
 504 672 l 1
 616 672 l 1
 616 224 l 1
 280 224 l 1
 280 560 l 1
 392 560 l 1
 392 336 l 1
 504 336 l 1
 504 672 l 1
 168 672 l 1
 168 112 l 1
 616 112 l 1
 616 0 l 1
 168 0 l 1
 168 112 l 1
 56 112 l 1
 56 672 l 1
 168 672 l 1
 168 784 l 1
EndSplineSet
Validated: 5
EndChar

StartChar: A
Encoding: 65 65 115
Width: 672
GlyphClass: 1
Flags: W
HStem: 0 21G<56 168 504 616> 448 112<168 504> 672 112<168 504>
VStem: 56 112<0 448 560 672> 504 112<0 448 560 672>
LayerCount: 2
Fore
SplineSet
168 672 m 1
 168 784 l 1
 504 784 l 1
 504 672 l 1
 616 672 l 1
 616 0 l 1
 504 0 l 1
 504 448 l 1
 168 448 l 1
 168 0 l 1
 56 0 l 1
 56 672 l 1
 168 672 l 1
168 672 m 1
 168 560 l 1
 504 560 l 1
 504 672 l 1
 168 672 l 1
EndSplineSet
Validated: 5
EndChar

StartChar: B
Encoding: 66 66 116
Width: 672
GlyphClass: 1
Flags: W
HStem: 0 112<168 504> 448 112<168 504> 560 112<504 616> 672 112<168 504>
VStem: 56 448<0 112 448 560 672 784> 56 112<112 448 560 672> 504 112<112 448 560 672>
LayerCount: 2
Fore
SplineSet
168 448 m 1xd4
 168 112 l 1xd4
 504 112 l 1
 504 0 l 1
 56 0 l 1
 56 784 l 1
 504 784 l 1xd8
 504 672 l 1xa8
 616 672 l 1
 616 560 l 1xa2
 504 560 l 1xc8
 504 672 l 1xa8
 168 672 l 1
 168 560 l 1xd4
 504 560 l 1
 504 448 l 1xd8
 616 448 l 1
 616 112 l 1xd2
 504 112 l 1
 504 448 l 1xd8
 168 448 l 1xd4
EndSplineSet
Validated: 5
EndChar

StartChar: C
Encoding: 67 67 117
Width: 672
GlyphClass: 1
Flags: W
HStem: 0 112<168 504> 112 112<504 616> 560 112<504 616> 672 112<168 504>
VStem: 56 112<112 672> 168 336<0 112 672 784> 504 112<112 224 560 672>
LayerCount: 2
Fore
SplineSet
168 784 m 1x54
 504 784 l 1x54
 504 672 l 1x24
 616 672 l 1
 616 560 l 1
 504 560 l 1x22
 504 672 l 1x24
 168 672 l 1
 168 112 l 1x98
 504 112 l 1
 504 0 l 1
 168 0 l 1x94
 168 112 l 1x98
 56 112 l 1
 56 672 l 1
 168 672 l 1x58
 168 784 l 1x54
616 112 m 1x42
 504 112 l 1x84
 504 224 l 1
 616 224 l 1
 616 112 l 1x42
EndSplineSet
Validated: 5
EndChar

StartChar: D
Encoding: 68 68 118
Width: 672
GlyphClass: 1
Flags: W
HStem: 0 112<168 504> 672 112<168 504>
VStem: 56 112<112 672> 504 112<112 672>
LayerCount: 2
Fore
SplineSet
168 672 m 1
 168 112 l 1
 504 112 l 1
 504 0 l 1
 56 0 l 1
 56 784 l 1
 504 784 l 1
 504 672 l 1
 616 672 l 1
 616 112 l 1
 504 112 l 1
 504 672 l 1
 168 672 l 1
EndSplineSet
Validated: 5
EndChar

StartChar: E
Encoding: 69 69 119
Width: 672
GlyphClass: 1
Flags: W
HStem: 0 112<168 616> 336 112<168 392> 672 112<168 616>
VStem: 56 112<112 336 448 672>
CounterMasks: 1 e0
LayerCount: 2
Fore
SplineSet
56 784 m 1
 616 784 l 1
 616 672 l 1
 168 672 l 1
 168 448 l 1
 392 448 l 1
 392 336 l 1
 168 336 l 1
 168 112 l 1
 616 112 l 1
 616 0 l 1
 56 0 l 1
 56 784 l 1
EndSplineSet
Validated: 1
EndChar

StartChar: F
Encoding: 70 70 120
Width: 672
GlyphClass: 1
Flags: W
HStem: 0 21G<56 168> 336 112<168 504> 672 112<168 616>
VStem: 56 112<0 336 448 672>
LayerCount: 2
Fore
SplineSet
56 784 m 1
 616 784 l 1
 616 672 l 1
 168 672 l 1
 168 448 l 1
 504 448 l 1
 504 336 l 1
 168 336 l 1
 168 0 l 1
 56 0 l 1
 56 784 l 1
EndSplineSet
Validated: 1
EndChar

StartChar: G
Encoding: 71 71 121
Width: 672
GlyphClass: 1
Flags: W
HStem: 0 112<168 504> 336 112<392 504> 560 112<504 616> 672 112<168 504>
VStem: 56 112<112 672> 168 336<0 112 672 784> 504 112<112 336 560 672>
LayerCount: 2
Fore
SplineSet
168 784 m 1xd4
 504 784 l 1xd4
 504 672 l 1xe4
 616 672 l 1
 616 560 l 1
 504 560 l 1xe2
 504 672 l 1xe4
 168 672 l 1
 168 112 l 1xd8
 504 112 l 1
 504 0 l 1
 168 0 l 1xd4
 168 112 l 1
 56 112 l 1
 56 672 l 1
 168 672 l 1xd8
 168 784 l 1xd4
616 112 m 1xc2
 504 112 l 1xc4
 504 336 l 1
 392 336 l 1
 392 448 l 1
 616 448 l 1
 616 112 l 1xc2
EndSplineSet
Validated: 5
EndChar

StartChar: H
Encoding: 72 72 122
Width: 672
GlyphClass: 1
Flags: W
HStem: 0 21G<56 168 504 616> 448 112<168 504> 764 20G<56 168 504 616>
VStem: 56 112<0 448 560 784> 504 112<0 448 560 784>
LayerCount: 2
Fore
SplineSet
56 784 m 1
 168 784 l 1
 168 560 l 1
 504 560 l 1
 504 784 l 1
 616 784 l 1
 616 0 l 1
 504 0 l 1
 504 448 l 1
 168 448 l 1
 168 0 l 1
 56 0 l 1
 56 784 l 1
EndSplineSet
Validated: 1
EndChar

StartChar: I
Encoding: 73 73 123
Width: 672
GlyphClass: 1
Flags: W
HStem: 0 112<168 280 392 504> 672 112<168 280 392 504>
VStem: 168 336<0 112 672 784>
LayerCount: 2
Fore
SplineSet
168 784 m 1
 504 784 l 1
 504 672 l 1
 392 672 l 1
 392 112 l 1
 504 112 l 1
 504 0 l 1
 168 0 l 1
 168 112 l 1
 280 112 l 1
 280 672 l 1
 168 672 l 1
 168 784 l 1
EndSplineSet
Validated: 1
EndChar

StartChar: J
Encoding: 74 74 124
Width: 672
GlyphClass: 1
Flags: W
HStem: 0 112<168 392> 112 112<56 168> 672 112<280 392 504 616>
VStem: 56 112<112 224> 392 112<112 672>
LayerCount: 2
Fore
SplineSet
280 784 m 1xb8
 616 784 l 1
 616 672 l 1
 504 672 l 1
 504 112 l 1x78
 392 112 l 1
 392 672 l 1
 280 672 l 1
 280 784 l 1xb8
392 112 m 1xb8
 392 0 l 1
 168 0 l 1
 168 112 l 1xb8
 56 112 l 1
 56 224 l 1
 168 224 l 1x78
 168 112 l 1
 392 112 l 1xb8
EndSplineSet
Validated: 5
EndChar

StartChar: K
Encoding: 75 75 125
Width: 672
GlyphClass: 1
Flags: W
HStem: 0 21G<56 168 504 616> 336 112<392 504> 448 112<168 392> 560 112<392 504> 672 112<504 616>
VStem: 56 112<0 448 560 784> 392 112<336 448 560 672> 504 112<0 336 672 784>
LayerCount: 2
Fore
SplineSet
504 560 m 1x96
 392 560 l 1xa6
 392 672 l 1
 504 672 l 1x96
 504 784 l 1
 616 784 l 1
 616 672 l 1x8d
 504 672 l 1
 504 560 l 1x96
56 784 m 1xae
 168 784 l 1
 168 560 l 1
 392 560 l 1xae
 392 448 l 1
 504 448 l 1
 504 336 l 1xc6
 616 336 l 1
 616 0 l 1
 504 0 l 1xc5
 504 336 l 1
 392 336 l 1
 392 448 l 1xc6
 168 448 l 1
 168 0 l 1
 56 0 l 1
 56 784 l 1xae
EndSplineSet
Validated: 5
EndChar

StartChar: L
Encoding: 76 76 126
Width: 672
GlyphClass: 1
Flags: W
HStem: 0 112<168 616> 764 20G<56 168>
VStem: 56 112<112 784>
LayerCount: 2
Fore
SplineSet
56 784 m 1
 168 784 l 1
 168 112 l 1
 616 112 l 1
 616 0 l 1
 56 0 l 1
 56 784 l 1
EndSplineSet
Validated: 1
EndChar

StartChar: M
Encoding: 77 77 127
Width: 672
GlyphClass: 1
Flags: W
HStem: 0 21G<56 168 504 616> 448 112<280 392> 560 112<168 280 392 504> 764 20G<56 168 504 616>
VStem: 56 112<0 560 672 784> 280 112<448 560> 504 112<0 560 672 784>
CounterMasks: 1 0e
LayerCount: 2
Fore
SplineSet
56 784 m 1xbe
 168 784 l 1
 168 672 l 1
 280 672 l 1xbe
 280 560 l 1
 392 560 l 1xde
 392 672 l 1
 504 672 l 1
 504 784 l 1
 616 784 l 1
 616 0 l 1
 504 0 l 1
 504 560 l 1xbe
 392 560 l 1
 392 448 l 1
 280 448 l 1
 280 560 l 1xde
 168 560 l 1
 168 0 l 1
 56 0 l 1
 56 784 l 1xbe
EndSplineSet
Validated: 5
EndChar

StartChar: N
Encoding: 78 78 128
Width: 672
GlyphClass: 1
Flags: W
HStem: 0 21G<56 168 504 616> 336 112<392 504> 448 112<280 392> 560 112<168 280> 764 20G<56 168 504 616>
VStem: 56 112<0 560 672 784> 280 112<448 560> 504 112<0 336 448 784>
CounterMasks: 1 07
LayerCount: 2
Fore
SplineSet
56 784 m 1x9f
 168 784 l 1
 168 672 l 1
 280 672 l 1x9f
 280 560 l 1
 392 560 l 1xaf
 392 448 l 1
 504 448 l 1
 504 784 l 1
 616 784 l 1
 616 0 l 1
 504 0 l 1
 504 336 l 1
 392 336 l 1
 392 448 l 1xcf
 280 448 l 1
 280 560 l 1xaf
 168 560 l 1
 168 0 l 1
 56 0 l 1
 56 784 l 1x9f
EndSplineSet
Validated: 5
EndChar

StartChar: O
Encoding: 79 79 129
Width: 672
GlyphClass: 1
Flags: W
HStem: 0 112<168 504> 672 112<168 504>
VStem: 56 112<112 672> 168 336<0 112 672 784> 504 112<112 672>
LayerCount: 2
Fore
SplineSet
168 672 m 1xe0
 168 784 l 1
 504 784 l 1
 504 672 l 1xd0
 616 672 l 1
 616 112 l 1xc8
 504 112 l 1
 504 672 l 1xd0
 168 672 l 1
 168 112 l 1xe0
 504 112 l 1
 504 0 l 1
 168 0 l 1xd0
 168 112 l 1
 56 112 l 1
 56 672 l 1
 168 672 l 1xe0
EndSplineSet
Validated: 5
EndChar

StartChar: P
Encoding: 80 80 130
Width: 672
GlyphClass: 1
Flags: W
HStem: 0 21G<56 168> 336 112<168 504> 672 112<168 504>
VStem: 56 112<0 336 448 672> 504 112<448 672>
LayerCount: 2
Fore
SplineSet
168 672 m 1
 168 448 l 1
 504 448 l 1
 504 336 l 1
 168 336 l 1
 168 0 l 1
 56 0 l 1
 56 784 l 1
 504 784 l 1
 504 672 l 1
 616 672 l 1
 616 448 l 1
 504 448 l 1
 504 672 l 1
 168 672 l 1
EndSplineSet
Validated: 5
EndChar

StartChar: Q
Encoding: 81 81 131
Width: 672
GlyphClass: 1
Flags: W
HStem: 0 112<168 392 504 616> 112 112<392 504> 672 112<168 504>
VStem: 56 112<112 672> 392 112<112 224> 504 112<0 112 224 672>
LayerCount: 2
Fore
SplineSet
168 672 m 1x78
 168 784 l 1
 504 784 l 1
 504 672 l 1
 616 672 l 1
 616 224 l 1x74
 504 224 l 1x78
 504 112 l 1xb8
 616 112 l 1
 616 0 l 1
 504 0 l 1xb4
 504 112 l 1
 392 112 l 1
 392 0 l 1
 168 0 l 1
 168 112 l 1xb8
 56 112 l 1
 56 672 l 1
 168 672 l 1x78
168 672 m 1
 168 112 l 1
 392 112 l 1xb8
 392 224 l 1
 504 224 l 1x78
 504 672 l 1
 168 672 l 1
EndSplineSet
Validated: 5
EndChar

StartChar: R
Encoding: 82 82 132
Width: 672
GlyphClass: 1
Flags: W
HStem: 0 21G<56 168 504 616> 336 112<168 504> 672 112<168 504>
VStem: 56 112<0 336 448 672> 504 112<0 336 448 672>
LayerCount: 2
Fore
SplineSet
168 672 m 1
 168 448 l 1
 504 448 l 1
 504 336 l 1
 616 336 l 1
 616 0 l 1
 504 0 l 1
 504 336 l 1
 168 336 l 1
 168 0 l 1
 56 0 l 1
 56 784 l 1
 504 784 l 1
 504 672 l 1
 616 672 l 1
 616 448 l 1
 504 448 l 1
 504 672 l 1
 168 672 l 1
EndSplineSet
Validated: 5
EndChar

StartChar: S
Encoding: 83 83 133
Width: 672
GlyphClass: 1
Flags: W
HStem: 0 112<168 504> 112 112<56 168> 336 112<168 504> 560 112<504 616> 672 112<168 504>
VStem: 56 112<112 224 448 672> 168 336<0 112 336 448 672 784> 504 112<112 336 560 672>
LayerCount: 2
Fore
SplineSet
168 784 m 1xaa
 504 784 l 1xaa
 504 672 l 1x32
 616 672 l 1
 616 560 l 1
 504 560 l 1x31
 504 672 l 1x32
 168 672 l 1
 168 448 l 1x2c
 504 448 l 1
 504 336 l 1x2a
 616 336 l 1
 616 112 l 1x69
 504 112 l 1
 504 336 l 1
 168 336 l 1xa2
 168 448 l 1
 56 448 l 1
 56 672 l 1
 168 672 l 1xac
 168 784 l 1xaa
504 112 m 1
 504 0 l 1
 168 0 l 1xa2
 168 112 l 1xa4
 56 112 l 1
 56 224 l 1
 168 224 l 1x64
 168 112 l 1xa4
 504 112 l 1
EndSplineSet
Validated: 5
EndChar

StartChar: T
Encoding: 84 84 134
Width: 672
GlyphClass: 1
Flags: W
HStem: 0 21G<280 392> 672 112<56 280 392 616>
VStem: 280 112<0 672>
LayerCount: 2
Fore
SplineSet
56 784 m 1
 616 784 l 1
 616 672 l 1
 392 672 l 1
 392 0 l 1
 280 0 l 1
 280 672 l 1
 56 672 l 1
 56 784 l 1
EndSplineSet
Validated: 1
EndChar

StartChar: U
Encoding: 85 85 135
Width: 672
GlyphClass: 1
Flags: W
HStem: 0 112<168 504> 764 20G<56 168 504 616>
VStem: 56 112<112 784> 504 112<112 784>
LayerCount: 2
Fore
SplineSet
616 112 m 1
 504 112 l 1
 504 784 l 1
 616 784 l 1
 616 112 l 1
56 784 m 1
 168 784 l 1
 168 112 l 1
 504 112 l 1
 504 0 l 1
 168 0 l 1
 168 112 l 1
 56 112 l 1
 56 784 l 1
EndSplineSet
Validated: 5
EndChar

StartChar: V
Encoding: 86 86 136
Width: 672
GlyphClass: 1
Flags: W
HStem: 0 112<280 392> 112 224<168 280 392 504> 764 20G<56 168 504 616>
VStem: 56 112<336 784> 168 112<112 336> 280 112<0 112> 392 112<112 336> 504 112<336 784>
LayerCount: 2
Fore
SplineSet
504 112 m 1x62
 392 112 l 1xa4
 392 336 l 1
 504 336 l 1x62
 504 784 l 1
 616 784 l 1
 616 336 l 1x61
 504 336 l 1
 504 112 l 1x62
56 784 m 1x70
 168 784 l 1
 168 336 l 1x70
 280 336 l 1x68
 280 112 l 1xa8
 392 112 l 1
 392 0 l 1
 280 0 l 1xa4
 280 112 l 1xa8
 168 112 l 1x68
 168 336 l 1
 56 336 l 1
 56 784 l 1x70
EndSplineSet
Validated: 5
EndChar

StartChar: W
Encoding: 87 87 137
Width: 672
GlyphClass: 1
Flags: W
HStem: 0 224<168 280 392 504> 764 20G<56 168 504 616>
VStem: 56 112<224 784> 392 112<0 224> 504 112<224 784>
LayerCount: 2
Fore
SplineSet
616 224 m 1xe8
 504 224 l 1xf0
 504 784 l 1
 616 784 l 1
 616 224 l 1xe8
56 784 m 1
 168 784 l 1
 168 224 l 1
 280 224 l 1
 280 448 l 1
 392 448 l 1
 392 224 l 1
 504 224 l 1
 504 0 l 1
 392 0 l 1
 392 224 l 1
 280 224 l 1
 280 0 l 1
 168 0 l 1
 168 224 l 1
 56 224 l 1
 56 784 l 1
EndSplineSet
Validated: 5
EndChar

StartChar: X
Encoding: 88 88 138
Width: 672
GlyphClass: 1
Flags: W
HStem: 0 224<56 168 504 616> 224 112<168 280 392 504> 336 112<280 392> 448 112<168 280 392 504> 560 224<56 168 504 616>
VStem: 56 112<0 224 560 784> 168 112<224 336 448 560> 280 112<336 448> 392 112<224 336 448 560> 504 112<0 224 560 784>
LayerCount: 2
Fore
SplineSet
504 448 m 1x1080
 392 448 l 1x21
 392 560 l 1
 504 560 l 1x1080
 504 784 l 1
 616 784 l 1
 616 560 l 1x0840
 504 560 l 1
 504 448 l 1x1080
56 784 m 1x0c
 168 784 l 1x0c
 168 560 l 1x14
 280 560 l 1x12
 280 448 l 1x22
 392 448 l 1x21
 392 336 l 1x41
 504 336 l 1x4080
 504 224 l 1x8080
 616 224 l 1
 616 0 l 1
 504 0 l 1x8040
 504 224 l 1x8080
 392 224 l 1x4080
 392 336 l 1x41
 280 336 l 1
 280 224 l 1x42
 168 224 l 1
 168 0 l 1
 56 0 l 1
 56 224 l 1
 168 224 l 1x84
 168 336 l 1
 280 336 l 1x42
 280 448 l 1x22
 168 448 l 1x12
 168 560 l 1x14
 56 560 l 1
 56 784 l 1x0c
EndSplineSet
Validated: 5
EndChar

StartChar: Y
Encoding: 89 89 139
Width: 672
GlyphClass: 1
Flags: W
HStem: 0 21G<280 392> 448 112<168 280 392 504> 560 224<56 168 504 616>
VStem: 56 112<560 784> 168 112<448 560> 280 112<0 448> 392 112<448 560> 504 112<560 784>
LayerCount: 2
Fore
SplineSet
504 448 m 1xc2
 392 448 l 1xc4
 392 560 l 1
 504 560 l 1xc2
 504 784 l 1
 616 784 l 1
 616 560 l 1xa1
 504 560 l 1
 504 448 l 1xc2
56 784 m 1xb0
 168 784 l 1xb0
 168 560 l 1xd0
 280 560 l 1
 280 448 l 1xc8
 392 448 l 1
 392 0 l 1
 280 0 l 1xc4
 280 448 l 1
 168 448 l 1xc8
 168 560 l 1xd0
 56 560 l 1
 56 784 l 1xb0
EndSplineSet
Validated: 5
EndChar

StartChar: Z
Encoding: 90 90 140
Width: 672
GlyphClass: 1
Flags: W
HStem: 0 112<168 616> 224 112<168 280> 336 112<280 392> 448 112<392 504> 672 112<56 504>
VStem: 56 112<112 224> 168 112<224 336> 280 112<336 448> 392 112<448 560> 504 112<560 672>
LayerCount: 2
Fore
SplineSet
56 784 m 1x9c40
 616 784 l 1
 616 560 l 1x9c40
 504 560 l 1
 504 448 l 1x9880
 392 448 l 1
 392 336 l 1xa9
 280 336 l 1
 280 224 l 1xca
 168 224 l 1
 168 112 l 1
 616 112 l 1
 616 0 l 1
 56 0 l 1
 56 224 l 1
 168 224 l 1xcc40
 168 336 l 1
 280 336 l 1xca
 280 448 l 1
 392 448 l 1xa9
 392 560 l 1
 504 560 l 1x9880
 504 672 l 1
 56 672 l 1
 56 784 l 1x9c40
EndSplineSet
Validated: 5
EndChar

StartChar: bracketleft
Encoding: 91 91 141
Width: 672
GlyphClass: 1
Flags: W
HStem: -112 112<392 504> 784 112<392 504>
VStem: 280 224<-112 0 784 896> 280 112<0 784>
LayerCount: 2
Fore
SplineSet
280 896 m 1xe0
 504 896 l 1
 504 784 l 1xe0
 392 784 l 1
 392 0 l 1xd0
 504 0 l 1
 504 -112 l 1
 280 -112 l 1
 280 896 l 1xe0
EndSplineSet
Validated: 1
EndChar

StartChar: backslash
Encoding: 92 92 142
Width: 672
GlyphClass: 1
Flags: W
HStem: 0 112<504 616> 336 112<280 392> 672 112<56 168>
VStem: 56 112<672 784> 168 112<448 672> 280 112<336 448> 392 112<112 336> 504 112<0 112>
CounterMasks: 1 e0
LayerCount: 2
Fore
SplineSet
56 784 m 1xf0
 168 784 l 1
 168 672 l 1xf0
 280 672 l 1
 280 448 l 1xe8
 392 448 l 1
 392 336 l 1xe4
 504 336 l 1
 504 112 l 1xe2
 616 112 l 1
 616 0 l 1
 504 0 l 1xe1
 504 112 l 1
 392 112 l 1xe2
 392 336 l 1
 280 336 l 1xe4
 280 448 l 1
 168 448 l 1xe8
 168 672 l 1
 56 672 l 1
 56 784 l 1xf0
EndSplineSet
Validated: 5
EndChar

StartChar: bracketright
Encoding: 93 93 143
Width: 672
GlyphClass: 1
Flags: W
HStem: -112 112<168 280> 784 112<168 280>
VStem: 168 224<-112 0 784 896> 280 112<0 784>
LayerCount: 2
Fore
SplineSet
168 896 m 1xe0
 392 896 l 1
 392 -112 l 1
 168 -112 l 1
 168 0 l 1xe0
 280 0 l 1
 280 784 l 1xd0
 168 784 l 1
 168 896 l 1xe0
EndSplineSet
Validated: 1
EndChar

StartChar: asciicircum
Encoding: 94 94 144
Width: 672
GlyphClass: 1
Flags: W
HStem: 448 112<56 168 504 616> 560 112<168 280 392 504> 672 112<280 392>
VStem: 56 112<448 560> 168 112<560 672> 392 112<560 672> 504 112<448 560>
LayerCount: 2
Fore
SplineSet
280 784 m 1x28
 392 784 l 1x2c
 392 672 l 1
 504 672 l 1x4c
 504 560 l 1x8c
 616 560 l 1
 616 448 l 1
 504 448 l 1x82
 504 560 l 1x84
 392 560 l 1
 392 672 l 1
 280 672 l 1
 280 560 l 1x4c
 168 560 l 1
 168 448 l 1
 56 448 l 1
 56 560 l 1
 168 560 l 1x90
 168 672 l 1
 280 672 l 1x48
 280 784 l 1x28
EndSplineSet
Validated: 5
EndChar

StartChar: underscore
Encoding: 95 95 145
Width: 672
GlyphClass: 1
Flags: W
HStem: -112 112<56 616>
LayerCount: 2
Fore
SplineSet
56 0 m 1
 616 0 l 1
 616 -112 l 1
 56 -112 l 1
 56 0 l 1
EndSplineSet
Validated: 1
EndChar

StartChar: grave
Encoding: 96 96 146
Width: 672
GlyphClass: 1
Flags: W
HStem: 560 112<280 392> 672 112<168 280>
VStem: 168 112<672 784> 280 112<560 672>
LayerCount: 2
Fore
SplineSet
168 784 m 1x60
 280 784 l 1x60
 280 672 l 1xa0
 392 672 l 1
 392 560 l 1
 280 560 l 1x90
 280 672 l 1xa0
 168 672 l 1
 168 784 l 1x60
EndSplineSet
Validated: 5
EndChar

StartChar: a
Encoding: 97 97 147
Width: 672
GlyphClass: 1
Flags: W
HStem: 0 112<168 504> 224 112<168 504> 448 112<168 504>
VStem: 56 112<112 224> 504 112<112 224 336 448>
CounterMasks: 1 e0
LayerCount: 2
Fore
SplineSet
168 224 m 1
 168 336 l 1
 504 336 l 1
 504 448 l 1
 168 448 l 1
 168 560 l 1
 504 560 l 1
 504 448 l 1
 616 448 l 1
 616 0 l 1
 168 0 l 1
 168 112 l 1
 56 112 l 1
 56 224 l 1
 168 224 l 1
168 224 m 1
 168 112 l 1
 504 112 l 1
 504 224 l 1
 168 224 l 1
EndSplineSet
Validated: 5
EndChar

StartChar: b
Encoding: 98 98 148
Width: 672
GlyphClass: 1
Flags: W
HStem: 0 112<168 504> 336 112<168 280> 448 112<280 504> 764 20G<56 168>
VStem: 56 112<112 336 448 784> 504 112<112 448>
LayerCount: 2
Fore
SplineSet
280 448 m 1xdc
 280 560 l 1
 504 560 l 1
 504 448 l 1
 616 448 l 1
 616 112 l 1
 504 112 l 1
 504 448 l 1xbc
 280 448 l 1
 280 336 l 1
 168 336 l 1
 168 112 l 1
 504 112 l 1
 504 0 l 1
 56 0 l 1
 56 784 l 1
 168 784 l 1
 168 448 l 1
 280 448 l 1xdc
EndSplineSet
Validated: 5
EndChar

StartChar: c
Encoding: 99 99 149
Width: 672
GlyphClass: 1
Flags: W
HStem: 0 112<168 504> 112 112<504 616> 336 112<504 616> 448 112<168 504>
VStem: 56 112<112 448> 168 336<0 112 448 560> 504 112<112 224 336 448>
LayerCount: 2
Fore
SplineSet
168 560 m 1x54
 504 560 l 1x54
 504 448 l 1x24
 616 448 l 1
 616 336 l 1
 504 336 l 1x22
 504 448 l 1x24
 168 448 l 1
 168 112 l 1x98
 504 112 l 1
 504 0 l 1
 168 0 l 1x94
 168 112 l 1x98
 56 112 l 1
 56 448 l 1
 168 448 l 1x58
 168 560 l 1x54
616 112 m 1x42
 504 112 l 1x84
 504 224 l 1
 616 224 l 1
 616 112 l 1x42
EndSplineSet
Validated: 5
EndChar

StartChar: d
Encoding: 100 100 150
Width: 672
GlyphClass: 1
Flags: W
HStem: 0 112<168 392 504 616> 448 112<168 392> 764 20G<392 504>
VStem: 56 112<112 448> 392 112<112 448 560 784> 504 112<0 112>
LayerCount: 2
Fore
SplineSet
168 448 m 1xf8
 168 560 l 1
 392 560 l 1
 392 784 l 1
 504 784 l 1
 504 112 l 1xf8
 616 112 l 1
 616 0 l 1
 504 0 l 1xf4
 504 112 l 1
 392 112 l 1
 392 0 l 1
 168 0 l 1
 168 112 l 1
 56 112 l 1
 56 448 l 1
 168 448 l 1xf8
168 448 m 1
 168 112 l 1
 392 112 l 1
 392 448 l 1
 168 448 l 1
EndSplineSet
Validated: 5
EndChar

StartChar: e
Encoding: 101 101 151
Width: 672
GlyphClass: 1
Flags: W
HStem: 0 112<168 616> 224 112<168 504> 448 112<168 504>
VStem: 56 112<112 224 336 448> 504 112<336 448>
CounterMasks: 1 e0
LayerCount: 2
Fore
SplineSet
168 448 m 1
 168 560 l 1
 504 560 l 1
 504 448 l 1
 616 448 l 1
 616 224 l 1
 168 224 l 1
 168 112 l 1
 616 112 l 1
 616 0 l 1
 168 0 l 1
 168 112 l 1
 56 112 l 1
 56 448 l 1
 168 448 l 1
168 448 m 1
 168 336 l 1
 504 336 l 1
 504 448 l 1
 168 448 l 1
EndSplineSet
Validated: 5
EndChar

StartChar: f
Encoding: 102 102 152
Width: 672
GlyphClass: 1
Flags: W
HStem: 0 21G<168 280> 336 112<56 168 280 504> 560 112<504 616> 672 112<280 504>
VStem: 168 112<0 336 448 672> 504 112<560 672>
LayerCount: 2
Fore
SplineSet
280 784 m 1xdc
 504 784 l 1xdc
 504 672 l 1
 616 672 l 1
 616 560 l 1
 504 560 l 1
 504 672 l 1xec
 280 672 l 1
 280 448 l 1
 504 448 l 1
 504 336 l 1
 280 336 l 1
 280 0 l 1
 168 0 l 1
 168 336 l 1
 56 336 l 1
 56 448 l 1
 168 448 l 1
 168 672 l 1
 280 672 l 1
 280 784 l 1xdc
EndSplineSet
Validated: 5
EndChar

StartChar: g
Encoding: 103 103 153
Width: 672
GlyphClass: 1
Flags: W
HStem: -112 112<56 504> 112 112<168 504> 448 112<168 504>
VStem: 56 112<224 448> 504 112<0 112 224 448>
LayerCount: 2
Fore
SplineSet
168 448 m 1
 168 560 l 1
 616 560 l 1
 616 0 l 1
 504 0 l 1
 504 -112 l 1
 56 -112 l 1
 56 0 l 1
 504 0 l 1
 504 112 l 1
 168 112 l 1
 168 224 l 1
 56 224 l 1
 56 448 l 1
 168 448 l 1
168 448 m 1
 168 224 l 1
 504 224 l 1
 504 448 l 1
 168 448 l 1
EndSplineSet
Validated: 5
EndChar

StartChar: h
Encoding: 104 104 154
Width: 672
GlyphClass: 1
Flags: W
HStem: 0 21G<56 168 504 616> 336 112<168 280> 448 112<280 504> 764 20G<56 168>
VStem: 56 112<0 336 448 784> 504 112<0 448>
LayerCount: 2
Fore
SplineSet
56 784 m 1xdc
 168 784 l 1
 168 448 l 1
 280 448 l 1xdc
 280 560 l 1
 504 560 l 1
 504 448 l 1
 616 448 l 1
 616 0 l 1
 504 0 l 1
 504 448 l 1xbc
 280 448 l 1
 280 336 l 1
 168 336 l 1
 168 0 l 1
 56 0 l 1
 56 784 l 1xdc
EndSplineSet
Validated: 5
EndChar

StartChar: i
Encoding: 105 105 155
Width: 672
GlyphClass: 1
Flags: W
HStem: 0 112<168 280 392 504> 448 112<168 280> 672 112<280 392>
VStem: 280 112<112 448 672 784>
LayerCount: 2
Fore
SplineSet
280 784 m 1
 392 784 l 1
 392 672 l 1
 280 672 l 1
 280 784 l 1
168 560 m 1
 392 560 l 1
 392 112 l 1
 504 112 l 1
 504 0 l 1
 168 0 l 1
 168 112 l 1
 280 112 l 1
 280 448 l 1
 168 448 l 1
 168 560 l 1
EndSplineSet
Validated: 1
EndChar

StartChar: j
Encoding: 106 106 156
Width: 672
GlyphClass: 1
Flags: W
HStem: -112 112<168 392> 0 112<56 168> 448 112<280 392> 672 112<392 504>
VStem: 56 112<0 112> 392 112<0 448 672 784>
LayerCount: 2
Fore
SplineSet
392 784 m 1x3c
 504 784 l 1
 504 672 l 1
 392 672 l 1
 392 784 l 1x3c
280 560 m 1
 504 560 l 1
 504 0 l 1x7c
 392 0 l 1xbc
 392 448 l 1
 280 448 l 1
 280 560 l 1
392 0 m 1xbc
 392 -112 l 1
 168 -112 l 1
 168 0 l 1xbc
 56 0 l 1
 56 112 l 1
 168 112 l 1x7c
 168 0 l 1
 392 0 l 1xbc
EndSplineSet
Validated: 5
EndChar

StartChar: k
Encoding: 107 107 157
Width: 672
GlyphClass: 1
Flags: W
HStem: 0 112<392 616> 112 112<280 392> 224 112<168 280> 336 112<280 392> 448 112<392 504> 764 20G<56 168>
VStem: 56 112<0 224 336 784> 280 112<112 224 336 448> 392 112<448 560>
LayerCount: 2
Fore
SplineSet
56 784 m 1xa7
 168 784 l 1
 168 336 l 1
 280 336 l 1xa7
 280 224 l 1
 392 224 l 1x47
 392 112 l 1x87
 616 112 l 1
 616 0 l 1
 392 0 l 1x8680
 392 112 l 1x87
 280 112 l 1
 280 224 l 1x47
 168 224 l 1
 168 0 l 1
 56 0 l 1
 56 784 l 1xa7
392 336 m 1x17
 280 336 l 1x27
 280 448 l 1
 392 448 l 1x17
 392 560 l 1
 504 560 l 1
 504 448 l 1x0e80
 392 448 l 1
 392 336 l 1x17
EndSplineSet
Validated: 5
EndChar

StartChar: l
Encoding: 108 108 158
Width: 672
GlyphClass: 1
Flags: W
HStem: 0 112<392 616> 672 112<168 280>
VStem: 280 112<112 672>
LayerCount: 2
Fore
SplineSet
168 784 m 1
 392 784 l 1
 392 112 l 1
 616 112 l 1
 616 0 l 1
 392 0 l 1
 392 112 l 1
 280 112 l 1
 280 672 l 1
 168 672 l 1
 168 784 l 1
EndSplineSet
Validated: 5
Substitution2: "Single Substitution lookup 0 subtable" l.shifted
EndChar

StartChar: m
Encoding: 109 109 159
Width: 672
GlyphClass: 1
Flags: W
HStem: 0 21G<56 168 280 392 504 616> 448 112<168 280 392 504>
VStem: 56 112<0 448> 280 112<0 448> 504 112<0 448>
CounterMasks: 1 38
LayerCount: 2
Fore
SplineSet
56 560 m 1
 280 560 l 1
 280 448 l 1
 392 448 l 1
 392 560 l 1
 504 560 l 1
 504 448 l 1
 616 448 l 1
 616 0 l 1
 504 0 l 1
 504 448 l 1
 392 448 l 1
 392 0 l 1
 280 0 l 1
 280 448 l 1
 168 448 l 1
 168 0 l 1
 56 0 l 1
 56 560 l 1
EndSplineSet
Validated: 5
EndChar

StartChar: n
Encoding: 110 110 160
Width: 672
GlyphClass: 1
Flags: W
HStem: 0 21G<56 168 504 616> 336 112<168 280> 448 112<280 504>
VStem: 56 112<0 336 448 560> 504 112<0 448>
LayerCount: 2
Fore
SplineSet
56 560 m 1xb8
 168 560 l 1xb8
 168 448 l 1
 280 448 l 1xd8
 280 560 l 1
 504 560 l 1
 504 448 l 1
 616 448 l 1
 616 0 l 1
 504 0 l 1
 504 448 l 1xb8
 280 448 l 1
 280 336 l 1
 168 336 l 1xd8
 168 0 l 1
 56 0 l 1
 56 560 l 1xb8
EndSplineSet
Validated: 5
EndChar

StartChar: o
Encoding: 111 111 161
Width: 672
GlyphClass: 1
Flags: W
HStem: 0 112<168 504> 112 336<56 168 504 616> 448 112<168 504>
VStem: 56 112<112 448> 168 336<0 112 448 560> 504 112<112 448>
LayerCount: 2
Fore
SplineSet
168 448 m 1x50
 168 560 l 1
 504 560 l 1x28
 504 448 l 1x48
 616 448 l 1
 616 112 l 1x44
 504 112 l 1x88
 504 448 l 1x48
 168 448 l 1x50
 168 112 l 1x90
 504 112 l 1
 504 0 l 1
 168 0 l 1x88
 168 112 l 1x90
 56 112 l 1
 56 448 l 1
 168 448 l 1x50
EndSplineSet
Validated: 5
EndChar

StartChar: p
Encoding: 112 112 162
Width: 672
GlyphClass: 1
Flags: W
HStem: -112 21G<56 168> 112 112<168 504> 336 112<168 280> 448 112<280 504>
VStem: 56 112<-112 112 224 336 448 560> 504 112<224 448>
LayerCount: 2
Fore
SplineSet
280 448 m 1xec
 280 560 l 1
 504 560 l 1
 504 448 l 1
 616 448 l 1
 616 224 l 1
 504 224 l 1
 504 448 l 1xdc
 280 448 l 1
 280 336 l 1
 168 336 l 1xec
 168 224 l 1
 504 224 l 1
 504 112 l 1
 168 112 l 1
 168 -112 l 1
 56 -112 l 1
 56 560 l 1
 168 560 l 1xdc
 168 448 l 1
 280 448 l 1xec
EndSplineSet
Validated: 5
EndChar

StartChar: q
Encoding: 113 113 163
Width: 672
GlyphClass: 1
Flags: W
HStem: -112 112<504 616> 112 112<168 392> 448 112<168 392>
VStem: 56 112<224 448> 168 336<112 224 448 560> 392 112<0 112 224 448>
LayerCount: 2
Fore
SplineSet
168 448 m 1xf0
 168 560 l 1
 504 560 l 1xe8
 504 0 l 1
 616 0 l 1
 616 -112 l 1
 392 -112 l 1
 392 112 l 1xe4
 168 112 l 1xe8
 168 224 l 1
 56 224 l 1
 56 448 l 1
 168 448 l 1xf0
168 448 m 1xf4
 168 224 l 1
 392 224 l 1
 392 448 l 1
 168 448 l 1xf4
EndSplineSet
Validated: 5
EndChar

StartChar: r
Encoding: 114 114 164
Width: 672
GlyphClass: 1
Flags: W
HStem: 0 21G<56 168> 336 112<168 280 504 616> 448 112<280 504>
VStem: 56 112<0 336 448 560> 504 112<336 448>
LayerCount: 2
Fore
SplineSet
56 560 m 1xb8
 168 560 l 1xb8
 168 448 l 1
 280 448 l 1xd8
 280 560 l 1
 504 560 l 1xb8
 504 448 l 1
 616 448 l 1
 616 336 l 1
 504 336 l 1
 504 448 l 1
 280 448 l 1
 280 336 l 1
 168 336 l 1xd8
 168 0 l 1
 56 0 l 1
 56 560 l 1xb8
EndSplineSet
Validated: 5
EndChar

StartChar: s
Encoding: 115 115 165
Width: 672
GlyphClass: 1
Flags: W
HStem: 0 112<56 504> 224 112<168 504> 448 112<168 616>
VStem: 56 112<336 448> 504 112<112 224>
CounterMasks: 1 e0
LayerCount: 2
Fore
SplineSet
168 560 m 1
 616 560 l 1
 616 448 l 1
 168 448 l 1
 168 336 l 1
 504 336 l 1
 504 224 l 1
 616 224 l 1
 616 112 l 1
 504 112 l 1
 504 0 l 1
 56 0 l 1
 56 112 l 1
 504 112 l 1
 504 224 l 1
 168 224 l 1
 168 336 l 1
 56 336 l 1
 56 448 l 1
 168 448 l 1
 168 560 l 1
EndSplineSet
Validated: 5
EndChar

StartChar: t
Encoding: 116 116 166
Width: 672
GlyphClass: 1
Flags: W
HStem: 0 112<280 616> 448 112<56 168 280 504> 764 20G<168 280>
VStem: 168 112<112 448 560 784>
LayerCount: 2
Fore
SplineSet
168 784 m 1
 280 784 l 1
 280 560 l 1
 504 560 l 1
 504 448 l 1
 280 448 l 1
 280 112 l 1
 616 112 l 1
 616 0 l 1
 280 0 l 1
 280 112 l 1
 168 112 l 1
 168 448 l 1
 56 448 l 1
 56 560 l 1
 168 560 l 1
 168 784 l 1
EndSplineSet
Validated: 5
EndChar

StartChar: u
Encoding: 117 117 167
Width: 672
GlyphClass: 1
Flags: W
HStem: 0 112<168 392 504 616> 540 20G<56 168 392 504>
VStem: 56 112<112 560> 504 112<0 112>
LayerCount: 2
Fore
SplineSet
56 560 m 1
 168 560 l 1
 168 112 l 1
 392 112 l 1
 392 560 l 1
 504 560 l 1
 504 112 l 1
 616 112 l 1
 616 0 l 1
 504 0 l 1
 504 112 l 1
 392 112 l 1
 392 0 l 1
 168 0 l 1
 168 112 l 1
 56 112 l 1
 56 560 l 1
EndSplineSet
Validated: 5
EndChar

StartChar: v
Encoding: 118 118 168
Width: 672
GlyphClass: 1
Flags: W
HStem: 0 112<280 392> 112 112<168 280 392 504> 224 336<56 168 504 616>
VStem: 56 112<224 560> 168 112<112 224> 280 112<0 112> 392 112<112 224> 504 112<224 560>
LayerCount: 2
Fore
SplineSet
504 112 m 1x42
 392 112 l 1x84
 392 224 l 1
 504 224 l 1x42
 504 560 l 1
 616 560 l 1
 616 224 l 1x21
 504 224 l 1
 504 112 l 1x42
56 560 m 1x30
 168 560 l 1x30
 168 224 l 1x50
 280 224 l 1x48
 280 112 l 1x88
 392 112 l 1
 392 0 l 1
 280 0 l 1x84
 280 112 l 1x88
 168 112 l 1x48
 168 224 l 1x50
 56 224 l 1
 56 560 l 1x30
EndSplineSet
Validated: 5
EndChar

StartChar: w
Encoding: 119 119 169
Width: 672
GlyphClass: 1
Flags: W
HStem: 0 224<168 280 392 504> 224 336<56 168 504 616>
VStem: 56 112<224 560> 392 112<0 224> 504 112<224 560>
LayerCount: 2
Fore
SplineSet
616 224 m 1x68
 504 224 l 1xb0
 504 560 l 1
 616 560 l 1
 616 224 l 1x68
56 560 m 1x70
 168 560 l 1x70
 168 224 l 1
 280 224 l 1
 280 448 l 1
 392 448 l 1
 392 224 l 1
 504 224 l 1
 504 0 l 1
 392 0 l 1
 392 224 l 1
 280 224 l 1
 280 0 l 1
 168 0 l 1
 168 224 l 1xb0
 56 224 l 1
 56 560 l 1x70
EndSplineSet
Validated: 5
EndChar

StartChar: x
Encoding: 120 120 170
Width: 672
GlyphClass: 1
Flags: W
HStem: 0 224<168 280 392 504> 0 112<56 168 504 616> 224 112<280 392> 336 224<168 280 392 504> 448 112<56 168 504 616>
VStem: 56 224<0 112 448 560> 168 112<112 224 336 448> 280 112<224 336> 392 224<0 112 448 560> 392 112<112 224 336 448>
LayerCount: 2
Fore
SplineSet
504 336 m 1x1040
 392 336 l 1x21
 392 560 l 1x1080
 616 560 l 1
 616 448 l 1x0880
 504 448 l 1x0840
 504 336 l 1x1040
56 560 m 1x0c
 280 560 l 1x14
 280 336 l 1x22
 392 336 l 1x21
 392 224 l 1x81
 504 224 l 1x8040
 504 112 l 1x4040
 616 112 l 1
 616 0 l 1x4080
 392 0 l 1x8080
 392 224 l 1x81
 280 224 l 1x82
 280 0 l 1x84
 56 0 l 1
 56 112 l 1x44
 168 112 l 1x42
 168 224 l 1
 280 224 l 1x82
 280 336 l 1x22
 168 336 l 1x12
 168 448 l 1x0a
 56 448 l 1
 56 560 l 1x0c
EndSplineSet
Validated: 5
Substitution2: "Single Substitution lookup 18 subtable" x.calt
EndChar

StartChar: y
Encoding: 121 121 171
Width: 672
GlyphClass: 1
Flags: W
HStem: -112 112<56 504> 112 112<168 504> 540 20G<56 168 504 616>
VStem: 56 112<224 560> 504 112<0 112 224 560>
LayerCount: 2
Fore
SplineSet
56 560 m 1
 168 560 l 1
 168 224 l 1
 504 224 l 1
 504 560 l 1
 616 560 l 1
 616 0 l 1
 504 0 l 1
 504 -112 l 1
 56 -112 l 1
 56 0 l 1
 504 0 l 1
 504 112 l 1
 168 112 l 1
 168 224 l 1
 56 224 l 1
 56 560 l 1
EndSplineSet
Validated: 5
EndChar

StartChar: z
Encoding: 122 122 172
Width: 672
GlyphClass: 1
Flags: W
HStem: 0 112<56 168 280 616> 224 112<280 392> 448 112<56 392 504 616>
VStem: 168 112<112 224> 280 112<224 336> 392 112<336 448>
CounterMasks: 1 e0
LayerCount: 2
Fore
SplineSet
56 560 m 1xe4
 616 560 l 1
 616 448 l 1
 504 448 l 1
 504 336 l 1xe4
 392 336 l 1
 392 224 l 1xe8
 280 224 l 1
 280 112 l 1
 616 112 l 1
 616 0 l 1
 56 0 l 1
 56 112 l 1
 168 112 l 1
 168 224 l 1
 280 224 l 1xf0
 280 336 l 1
 392 336 l 1xe8
 392 448 l 1
 56 448 l 1
 56 560 l 1xe4
EndSplineSet
Validated: 5
EndChar

StartChar: braceleft
Encoding: 123 123 173
Width: 672
GlyphClass: 1
Flags: W
HStem: -112 112<280 504> 336 112<56 280> 784 112<280 504>
VStem: 168 112<0 224 560 784> 280 224<-112 0 784 896> 280 112<224 336 448 560>
CounterMasks: 1 e0
LayerCount: 2
Fore
SplineSet
280 896 m 1xe8
 504 896 l 1
 504 784 l 1xe8
 280 784 l 1
 280 560 l 1xf0
 392 560 l 1
 392 448 l 1
 280 448 l 1
 280 336 l 1
 392 336 l 1
 392 224 l 1xe4
 280 224 l 1
 280 0 l 1xf0
 504 0 l 1
 504 -112 l 1
 280 -112 l 1xe8
 280 0 l 1
 168 0 l 1
 168 224 l 1
 280 224 l 1xf0
 280 336 l 1
 56 336 l 1
 56 448 l 1
 280 448 l 1xe4
 280 560 l 1
 168 560 l 1
 168 784 l 1
 280 784 l 1xf0
 280 896 l 1xe8
EndSplineSet
Validated: 5
EndChar

StartChar: bar
Encoding: 124 124 174
Width: 672
GlyphClass: 1
Flags: W
HStem: -112 21G<280 392>
VStem: 280 112<-112 896>
LayerCount: 2
Fore
SplineSet
280 896 m 1
 392 896 l 1
 392 -112 l 1
 280 -112 l 1
 280 896 l 1
EndSplineSet
Validated: 1
Substitution2: "Single Substitution lookup 21 subtable" bar
EndChar

StartChar: braceright
Encoding: 125 125 175
Width: 672
GlyphClass: 1
Flags: W
HStem: -112 112<168 392> 224 112<280 392> 448 112<280 392> 784 112<168 392>
VStem: 168 224<-112 0 784 896> 280 112<224 336 448 560> 392 112<0 224 560 784>
LayerCount: 2
Fore
SplineSet
168 896 m 1xf8
 392 896 l 1
 392 784 l 1xf8
 504 784 l 1
 504 560 l 1xf2
 392 560 l 1
 392 448 l 1
 616 448 l 1
 616 336 l 1
 392 336 l 1
 392 224 l 1xf4
 504 224 l 1
 504 0 l 1xf2
 392 0 l 1
 392 -112 l 1
 168 -112 l 1
 168 0 l 1
 392 0 l 1xf8
 392 224 l 1
 280 224 l 1
 280 336 l 1
 392 336 l 1
 392 448 l 1
 280 448 l 1
 280 560 l 1
 392 560 l 1xf4
 392 784 l 1
 168 784 l 1
 168 896 l 1xf8
EndSplineSet
Validated: 5
EndChar

StartChar: asciitilde
Encoding: 126 126 176
Width: 672
GlyphClass: 1
Flags: W
HStem: 224 112<392 504> 336 112<280 392> 448 112<168 280>
VStem: 56 112<224 448> 280 112<336 448> 392 112<224 336> 504 112<336 560>
LayerCount: 2
Fore
SplineSet
616 336 m 1x52
 504 336 l 1x94
 504 560 l 1
 616 560 l 1xb2
 616 336 l 1x52
168 560 m 1xb8
 280 560 l 1xb8
 280 448 l 1
 392 448 l 1x58
 392 336 l 1x98
 504 336 l 1
 504 224 l 1
 392 224 l 1x94
 392 336 l 1x98
 280 336 l 1
 280 448 l 1x58
 168 448 l 1
 168 224 l 1
 56 224 l 1
 56 448 l 1
 168 448 l 1
 168 560 l 1xb8
EndSplineSet
Validated: 5
EndChar

StartChar: uniA7F2
Encoding: 42994 42994 177
Width: 672
GlyphClass: 1
Flags: W
HStem: 336 112<280 504> 672 112<280 504>
VStem: 168 112<448 672> 280 224<336 448 672 784>
LayerCount: 2
Fore
SplineSet
280 784 m 1xd0
 504 784 l 1
 504 672 l 1xd0
 280 672 l 1
 280 448 l 1xe0
 504 448 l 1
 504 336 l 1
 280 336 l 1xd0
 280 448 l 1
 168 448 l 1
 168 672 l 1
 280 672 l 1xe0
 280 784 l 1xd0
EndSplineSet
Validated: 5
EndChar

StartChar: uniA7F3
Encoding: 42995 42995 178
Width: 672
GlyphClass: 1
Flags: W
HStem: 448 112<280 392> 672 112<280 504>
VStem: 168 112<336 448 560 672>
LayerCount: 2
Fore
SplineSet
168 784 m 1
 504 784 l 1
 504 672 l 1
 280 672 l 1
 280 560 l 1
 392 560 l 1
 392 448 l 1
 280 448 l 1
 280 336 l 1
 168 336 l 1
 168 784 l 1
EndSplineSet
Validated: 1
EndChar

StartChar: uniA7F4
Encoding: 42996 42996 179
Width: 672
GlyphClass: 1
Flags: W
HStem: 336 112<168 280 392 504> 448 112<280 392> 560 112<392 504> 672 112<168 392>
VStem: 56 112<448 672> 168 112<336 448> 280 112<448 560> 392 112<336 448 560 672>
LayerCount: 2
Fore
SplineSet
168 672 m 1x58
 168 784 l 1
 392 784 l 1x55
 392 672 l 1
 504 672 l 1
 504 560 l 1x25
 392 560 l 1x42
 392 448 l 1x82
 504 448 l 1
 504 336 l 1
 392 336 l 1x81
 392 448 l 1x82
 280 448 l 1
 280 336 l 1
 168 336 l 1x84
 168 448 l 1x88
 56 448 l 1
 56 672 l 1
 168 672 l 1x58
168 672 m 1x19
 168 448 l 1x99
 280 448 l 1x94
 280 560 l 1
 392 560 l 1x42
 392 672 l 1x21
 168 672 l 1x19
EndSplineSet
Validated: 5
EndChar

StartChar: uniA7F9
Encoding: 43001 43001 180
Width: 672
GlyphClass: 1
Flags: W
HStem: 336 112<168 280 392 616> 448 224<56 168 280 392> 560 112<504 616> 672 112<168 280>
VStem: 56 112<448 672> 168 112<336 448 672 784> 280 112<448 560> 392 112<672 784>
LayerCount: 2
Fore
SplineSet
168 672 m 1x48
 168 784 l 1
 280 784 l 1x14
 280 672 l 1
 392 672 l 1x45
 392 784 l 1
 504 784 l 1x15
 504 672 l 1x25
 616 672 l 1
 616 560 l 1
 392 560 l 1
 392 448 l 1xa2
 616 448 l 1
 616 336 l 1
 392 336 l 1xa1
 392 448 l 1xa2
 280 448 l 1
 280 336 l 1
 168 336 l 1xa4
 168 448 l 1xa8
 56 448 l 1
 56 672 l 1
 168 672 l 1x48
168 672 m 1x48
 168 448 l 1x88
 280 448 l 1x84
 280 672 l 1x44
 168 672 l 1x48
EndSplineSet
Validated: 5
EndChar

StartChar: uni400
Encoding: 1024 1024 181
Width: 672
GlyphClass: 1
Flags: W
HStem: 0 112<168 616> 336 112<168 392> 672 112<168 616>
VStem: 56 112<112 336 448 672>
CounterMasks: 1 e0
LayerCount: 2
Fore
SplineSet
56 784 m 1
 616 784 l 1
 616 672 l 1
 168 672 l 1
 168 448 l 1
 392 448 l 1
 392 336 l 1
 168 336 l 1
 168 112 l 1
 616 112 l 1
 616 0 l 1
 56 0 l 1
 56 784 l 1
EndSplineSet
Validated: 1
EndChar

StartChar: uni401
Encoding: 1025 1025 182
Width: 672
GlyphClass: 1
Flags: W
HStem: 0 112<168 616> 336 112<168 392> 672 112<168 616> 896 112<168 280 392 504>
VStem: 56 112<112 336 448 672> 168 112<896 1008> 392 112<896 1008>
LayerCount: 2
Fore
SplineSet
168 1008 m 1xf6
 280 1008 l 1
 280 896 l 1
 168 896 l 1
 168 1008 l 1xf6
392 1008 m 1
 504 1008 l 1
 504 896 l 1
 392 896 l 1
 392 1008 l 1
56 784 m 1xfa
 616 784 l 1
 616 672 l 1
 168 672 l 1
 168 448 l 1
 392 448 l 1
 392 336 l 1
 168 336 l 1
 168 112 l 1
 616 112 l 1
 616 0 l 1
 56 0 l 1
 56 784 l 1xfa
EndSplineSet
Validated: 1
EndChar

StartChar: uni402
Encoding: 1026 1026 183
Width: 672
GlyphClass: 1
Flags: W
HStem: -112 112<392 504> 0 21G<168 280> 224 112<280 392> 336 112<392 504> 672 112<56 168 280 504>
VStem: 168 112<0 224 336 672> 392 112<-112 0 336 448> 504 112<0 336>
LayerCount: 2
Fore
SplineSet
56 784 m 1x6e
 504 784 l 1
 504 672 l 1x6d
 280 672 l 1
 280 336 l 1
 392 336 l 1x6e
 392 448 l 1
 504 448 l 1
 504 336 l 1x1e
 616 336 l 1
 616 0 l 1x5d
 504 0 l 1
 504 -112 l 1
 392 -112 l 1
 392 0 l 1
 504 0 l 1
 504 336 l 1x9e
 392 336 l 1
 392 224 l 1
 280 224 l 1
 280 0 l 1
 168 0 l 1
 168 672 l 1
 56 672 l 1
 56 784 l 1x6e
EndSplineSet
Validated: 5
EndChar

StartChar: uni403
Encoding: 1027 1027 184
Width: 672
GlyphClass: 1
Flags: W
HStem: 0 21G<56 168> 672 112<168 616> 896 112<280 392> 1008 112<392 504>
VStem: 56 112<0 672> 280 112<896 1008> 392 112<1008 1120>
LayerCount: 2
Fore
SplineSet
392 1120 m 1xda
 504 1120 l 1
 504 1008 l 1xda
 392 1008 l 1
 392 896 l 1
 280 896 l 1
 280 1008 l 1
 392 1008 l 1xec
 392 1120 l 1xda
56 784 m 1
 616 784 l 1
 616 672 l 1
 168 672 l 1
 168 0 l 1
 56 0 l 1
 56 784 l 1
EndSplineSet
Validated: 5
EndChar

StartChar: uni404
Encoding: 1028 1028 185
Width: 672
GlyphClass: 1
Flags: W
HStem: 0 112<168 504> 112 112<504 616> 336 112<168 504> 560 112<504 616> 672 112<168 504>
VStem: 56 112<112 336 448 672> 168 336<0 112 672 784> 504 112<112 224 560 672>
LayerCount: 2
Fore
SplineSet
168 784 m 1x6a
 504 784 l 1x6a
 504 672 l 1x32
 616 672 l 1
 616 560 l 1
 504 560 l 1x31
 504 672 l 1x32
 168 672 l 1
 168 448 l 1
 504 448 l 1
 504 336 l 1
 168 336 l 1
 168 112 l 1xad
 504 112 l 1
 504 0 l 1
 168 0 l 1xaa
 168 112 l 1xac
 56 112 l 1
 56 672 l 1
 168 672 l 1x6c
 168 784 l 1x6a
616 112 m 1x61
 504 112 l 1xa2
 504 224 l 1
 616 224 l 1
 616 112 l 1x61
EndSplineSet
Validated: 5
EndChar

StartChar: uni405
Encoding: 1029 1029 186
Width: 672
GlyphClass: 1
Flags: W
HStem: 0 112<168 504> 112 112<56 168> 336 112<168 504> 560 112<504 616> 672 112<168 504>
VStem: 56 112<112 224 448 672> 168 336<0 112 336 448 672 784> 504 112<112 336 560 672>
LayerCount: 2
Fore
SplineSet
168 784 m 1xaa
 504 784 l 1xaa
 504 672 l 1x32
 616 672 l 1
 616 560 l 1
 504 560 l 1x31
 504 672 l 1x32
 168 672 l 1
 168 448 l 1x2c
 504 448 l 1
 504 336 l 1x2a
 616 336 l 1
 616 112 l 1x69
 504 112 l 1
 504 336 l 1
 168 336 l 1xa2
 168 448 l 1
 56 448 l 1
 56 672 l 1
 168 672 l 1xac
 168 784 l 1xaa
504 112 m 1
 504 0 l 1
 168 0 l 1xa2
 168 112 l 1xa4
 56 112 l 1
 56 224 l 1
 168 224 l 1x64
 168 112 l 1xa4
 504 112 l 1
EndSplineSet
Validated: 5
EndChar

StartChar: uni406
Encoding: 1030 1030 187
Width: 672
GlyphClass: 1
Flags: W
HStem: 0 112<168 280 392 504> 672 112<168 280 392 504>
VStem: 168 336<0 112 672 784>
LayerCount: 2
Fore
SplineSet
168 784 m 1
 504 784 l 1
 504 672 l 1
 392 672 l 1
 392 112 l 1
 504 112 l 1
 504 0 l 1
 168 0 l 1
 168 112 l 1
 280 112 l 1
 280 672 l 1
 168 672 l 1
 168 784 l 1
EndSplineSet
Validated: 1
EndChar

StartChar: uni407
Encoding: 1031 1031 188
Width: 672
GlyphClass: 1
Flags: W
HStem: 0 112<168 280 392 504> 672 112<168 280 392 504> 896 112<168 280 392 504>
VStem: 168 112<896 1008> 392 112<896 1008>
LayerCount: 2
Fore
SplineSet
168 1008 m 1
 280 1008 l 1
 280 896 l 1
 168 896 l 1
 168 1008 l 1
392 1008 m 1
 504 1008 l 1
 504 896 l 1
 392 896 l 1
 392 1008 l 1
168 784 m 1
 504 784 l 1
 504 672 l 1
 392 672 l 1
 392 112 l 1
 504 112 l 1
 504 0 l 1
 168 0 l 1
 168 112 l 1
 280 112 l 1
 280 672 l 1
 168 672 l 1
 168 784 l 1
EndSplineSet
Validated: 1
EndChar

StartChar: uni408
Encoding: 1032 1032 189
Width: 672
GlyphClass: 1
Flags: W
HStem: 0 112<168 392> 112 112<56 168> 672 112<280 392 504 616>
VStem: 56 112<112 224> 392 112<112 672>
LayerCount: 2
Fore
SplineSet
280 784 m 1xb8
 616 784 l 1
 616 672 l 1
 504 672 l 1
 504 112 l 1x78
 392 112 l 1
 392 672 l 1
 280 672 l 1
 280 784 l 1xb8
392 112 m 1xb8
 392 0 l 1
 168 0 l 1
 168 112 l 1xb8
 56 112 l 1
 56 224 l 1
 168 224 l 1x78
 168 112 l 1
 392 112 l 1xb8
EndSplineSet
Validated: 5
EndChar

StartChar: uni409
Encoding: 1033 1033 190
Width: 672
GlyphClass: 1
Flags: W
HStem: 0 112<392 504> 336 112<392 504> 672 112<168 280>
VStem: 56 112<0 672> 280 224<0 112 336 448> 280 112<112 336 448 672> 504 112<112 336>
CounterMasks: 1 e0
LayerCount: 2
Fore
SplineSet
392 336 m 1xf4
 392 112 l 1xf4
 504 112 l 1
 504 0 l 1
 280 0 l 1xf8
 280 672 l 1
 168 672 l 1
 168 0 l 1
 56 0 l 1
 56 672 l 1
 168 672 l 1
 168 784 l 1
 392 784 l 1
 392 448 l 1xf4
 504 448 l 1
 504 336 l 1xf8
 616 336 l 1
 616 112 l 1xf2
 504 112 l 1
 504 336 l 1xf8
 392 336 l 1xf4
EndSplineSet
Validated: 5
EndChar

StartChar: uni40A
Encoding: 1034 1034 191
Width: 672
GlyphClass: 1
Flags: W
HStem: 0 112<392 504> 336 112<168 280 392 504> 764 20G<56 168 280 392>
VStem: 56 112<0 336 448 784> 280 112<112 336 448 784> 504 112<112 336>
CounterMasks: 1 1c
LayerCount: 2
Fore
SplineSet
392 336 m 1
 392 112 l 1
 504 112 l 1
 504 0 l 1
 280 0 l 1
 280 336 l 1
 168 336 l 1
 168 0 l 1
 56 0 l 1
 56 784 l 1
 168 784 l 1
 168 448 l 1
 280 448 l 1
 280 784 l 1
 392 784 l 1
 392 448 l 1
 504 448 l 1
 504 336 l 1
 616 336 l 1
 616 112 l 1
 504 112 l 1
 504 336 l 1
 392 336 l 1
EndSplineSet
Validated: 5
EndChar

StartChar: uni40B
Encoding: 1035 1035 192
Width: 672
GlyphClass: 1
Flags: W
HStem: 0 21G<168 280 504 616> 224 112<280 392> 336 112<392 504> 672 112<56 168 280 504>
VStem: 168 112<0 224 336 672> 392 112<336 448> 504 112<0 336>
LayerCount: 2
Fore
SplineSet
56 784 m 1xdc
 504 784 l 1
 504 672 l 1xda
 280 672 l 1
 280 336 l 1
 392 336 l 1xdc
 392 448 l 1
 504 448 l 1
 504 336 l 1xbc
 616 336 l 1
 616 0 l 1
 504 0 l 1xba
 504 336 l 1xbc
 392 336 l 1
 392 224 l 1
 280 224 l 1
 280 0 l 1
 168 0 l 1
 168 672 l 1
 56 672 l 1
 56 784 l 1xdc
EndSplineSet
Validated: 5
EndChar

StartChar: uni40C
Encoding: 1036 1036 193
Width: 672
GlyphClass: 1
Flags: W
HStem: 0 21G<56 168 504 616> 336 112<392 504> 448 112<168 392> 560 112<392 504> 672 112<504 616> 896 112<280 392> 1008 112<392 504>
VStem: 56 112<0 448 560 784> 280 112<896 1008> 392 112<336 448 560 672 1008 1120> 504 112<0 336 672 784>
LayerCount: 2
Fore
SplineSet
392 1120 m 1x8340
 504 1120 l 1
 504 1008 l 1x8340
 392 1008 l 1
 392 896 l 1
 280 896 l 1
 280 1008 l 1
 392 1008 l 1x8580
 392 1120 l 1x8340
504 560 m 1x9140
 392 560 l 1xa140
 392 672 l 1
 504 672 l 1x9140
 504 784 l 1
 616 784 l 1
 616 672 l 1x8920
 504 672 l 1
 504 560 l 1x9140
56 784 m 1xa940
 168 784 l 1
 168 560 l 1
 392 560 l 1xa940
 392 448 l 1
 504 448 l 1
 504 336 l 1xc140
 616 336 l 1
 616 0 l 1
 504 0 l 1xc120
 504 336 l 1
 392 336 l 1
 392 448 l 1xc140
 168 448 l 1
 168 0 l 1
 56 0 l 1
 56 784 l 1xa940
EndSplineSet
Validated: 5
EndChar

StartChar: uni40D
Encoding: 1037 1037 194
Width: 672
GlyphClass: 1
Flags: W
HStem: 0 21G<56 168 504 616> 448 112<280 392> 560 112<392 504> 764 20G<56 168 504 616> 896 112<392 504> 1008 112<280 392>
VStem: 56 112<0 336 448 784> 280 112<448 560 1008 1120> 392 112<896 1008> 504 112<0 560 672 784>
LayerCount: 2
Fore
SplineSet
280 1120 m 1x97
 392 1120 l 1x97
 392 1008 l 1x9b
 504 1008 l 1
 504 896 l 1
 392 896 l 1x9a80
 392 1008 l 1x9b
 280 1008 l 1
 280 1120 l 1x97
392 560 m 1xd340
 392 448 l 1
 280 448 l 1
 280 560 l 1
 392 560 l 1xd340
 392 672 l 1xb280
 504 672 l 1
 504 784 l 1
 616 784 l 1
 616 0 l 1
 504 0 l 1
 504 560 l 1xb240
 392 560 l 1xd340
56 784 m 1
 168 784 l 1
 168 448 l 1
 280 448 l 1
 280 336 l 1
 168 336 l 1
 168 0 l 1
 56 0 l 1
 56 784 l 1
EndSplineSet
Validated: 5
EndChar

StartChar: uni40E
Encoding: 1038 1038 195
Width: 672
GlyphClass: 1
Flags: W
HStem: 0 112<168 280> 336 224<168 280 392 504> 560 224<56 168 504 616> 896 112<280 392> 1008 112<168 280 392 504>
VStem: 56 112<560 784> 168 112<0 112 336 560 1008 1120> 280 112<112 336 896 1008> 392 112<336 560 1008 1120> 504 112<560 784>
LayerCount: 2
Fore
SplineSet
504 1008 m 1x8880
 392 1008 l 1x91
 392 1120 l 1
 504 1120 l 1
 504 1008 l 1x8880
168 1120 m 1x8a
 280 1120 l 1x8a
 280 1008 l 1x92
 392 1008 l 1
 392 896 l 1
 280 896 l 1x91
 280 1008 l 1x92
 168 1008 l 1
 168 1120 l 1x8a
504 336 m 1xc080
 392 336 l 1xc1
 392 560 l 1
 504 560 l 1xc080
 504 784 l 1
 616 784 l 1
 616 560 l 1xa040
 504 560 l 1
 504 336 l 1xc080
56 784 m 1xa4
 168 784 l 1xa4
 168 560 l 1xc4
 280 560 l 1
 280 336 l 1xc2
 392 336 l 1
 392 112 l 1xc1
 280 112 l 1
 280 0 l 1
 168 0 l 1
 168 112 l 1
 280 112 l 1
 280 336 l 1
 168 336 l 1xc2
 168 560 l 1xc4
 56 560 l 1
 56 784 l 1xa4
EndSplineSet
Validated: 5
EndChar

StartChar: uni40F
Encoding: 1039 1039 196
Width: 672
GlyphClass: 1
Flags: W
HStem: -112 21G<280 392> 0 112<168 280 392 504> 764 20G<56 168 504 616>
VStem: 56 112<112 784> 280 112<-112 0> 504 112<112 784>
CounterMasks: 1 1c
LayerCount: 2
Fore
SplineSet
56 784 m 1
 168 784 l 1
 168 112 l 1
 504 112 l 1
 504 784 l 1
 616 784 l 1
 616 0 l 1
 392 0 l 1
 392 -112 l 1
 280 -112 l 1
 280 0 l 1
 56 0 l 1
 56 784 l 1
EndSplineSet
Validated: 1
EndChar

StartChar: uni410
Encoding: 1040 1040 197
Width: 672
GlyphClass: 1
Flags: W
HStem: 0 21G<56 168 504 616> 448 112<168 504> 672 112<168 504>
VStem: 56 112<0 448 560 672> 504 112<0 448 560 672>
LayerCount: 2
Fore
SplineSet
168 672 m 1
 168 784 l 1
 504 784 l 1
 504 672 l 1
 616 672 l 1
 616 0 l 1
 504 0 l 1
 504 448 l 1
 168 448 l 1
 168 0 l 1
 56 0 l 1
 56 672 l 1
 168 672 l 1
168 672 m 1
 168 560 l 1
 504 560 l 1
 504 672 l 1
 168 672 l 1
EndSplineSet
Validated: 5
EndChar

StartChar: uni411
Encoding: 1041 1041 198
Width: 672
GlyphClass: 1
Flags: W
HStem: 0 112<168 504> 448 112<168 504> 672 112<168 616>
VStem: 56 112<112 448 560 672> 504 112<112 448>
LayerCount: 2
Fore
SplineSet
168 448 m 1
 168 112 l 1
 504 112 l 1
 504 0 l 1
 56 0 l 1
 56 784 l 1
 616 784 l 1
 616 672 l 1
 168 672 l 1
 168 560 l 1
 504 560 l 1
 504 448 l 1
 616 448 l 1
 616 112 l 1
 504 112 l 1
 504 448 l 1
 168 448 l 1
EndSplineSet
Validated: 5
EndChar

StartChar: uni412
Encoding: 1042 1042 199
Width: 672
GlyphClass: 1
Flags: W
HStem: 0 112<168 504> 448 112<168 504> 560 112<504 616> 672 112<168 504>
VStem: 56 448<0 112 448 560 672 784> 56 112<112 448 560 672> 504 112<112 448 560 672>
LayerCount: 2
Fore
SplineSet
168 448 m 1xd4
 168 112 l 1xd4
 504 112 l 1
 504 0 l 1
 56 0 l 1
 56 784 l 1
 504 784 l 1xd8
 504 672 l 1xa8
 616 672 l 1
 616 560 l 1xa2
 504 560 l 1xc8
 504 672 l 1xa8
 168 672 l 1
 168 560 l 1xd4
 504 560 l 1
 504 448 l 1xd8
 616 448 l 1
 616 112 l 1xd2
 504 112 l 1
 504 448 l 1xd8
 168 448 l 1xd4
EndSplineSet
Validated: 5
EndChar

StartChar: uni413
Encoding: 1043 1043 200
Width: 672
GlyphClass: 1
Flags: W
HStem: 0 21G<56 168> 672 112<168 616>
VStem: 56 112<0 672>
LayerCount: 2
Fore
SplineSet
56 784 m 1
 616 784 l 1
 616 672 l 1
 168 672 l 1
 168 0 l 1
 56 0 l 1
 56 784 l 1
EndSplineSet
Validated: 1
EndChar

StartChar: uni414
Encoding: 1044 1044 201
Width: 672
GlyphClass: 1
Flags: W
HStem: -112 21G<56 168 504 616> 0 112<168 504> 672 112<392 504>
VStem: 56 112<-112 0 112 224> 168 112<224 560> 280 112<560 672> 504 112<-112 0 112 672>
LayerCount: 2
Fore
SplineSet
280 784 m 1xe6
 616 784 l 1
 616 -112 l 1
 504 -112 l 1
 504 0 l 1
 168 0 l 1
 168 -112 l 1
 56 -112 l 1
 56 224 l 1
 168 224 l 1xf6
 168 560 l 1
 280 560 l 1xea
 280 784 l 1xe6
392 672 m 1
 392 560 l 1xf6
 280 560 l 1
 280 224 l 1xea
 168 224 l 1
 168 112 l 1
 504 112 l 1
 504 672 l 1
 392 672 l 1
EndSplineSet
Validated: 5
EndChar

StartChar: uni415
Encoding: 1045 1045 202
Width: 672
GlyphClass: 1
Flags: W
HStem: 0 112<168 616> 336 112<168 392> 672 112<168 616>
VStem: 56 112<112 336 448 672>
CounterMasks: 1 e0
LayerCount: 2
Fore
SplineSet
56 784 m 1
 616 784 l 1
 616 672 l 1
 168 672 l 1
 168 448 l 1
 392 448 l 1
 392 336 l 1
 168 336 l 1
 168 112 l 1
 616 112 l 1
 616 0 l 1
 56 0 l 1
 56 784 l 1
EndSplineSet
Validated: 1
EndChar

StartChar: uni416
Encoding: 1046 1046 203
Width: 672
GlyphClass: 1
Flags: W
HStem: 0 336<56 168 504 616> 336 112<168 280 392 504> 448 336<56 168 504 616>
VStem: 56 112<0 336 448 784> 280 112<0 336 448 784> 504 112<0 336 448 784>
CounterMasks: 1 1c
LayerCount: 2
Fore
SplineSet
616 448 m 1x3c
 504 448 l 1x5c
 504 784 l 1
 616 784 l 1
 616 448 l 1x3c
56 784 m 1x3c
 168 784 l 1x3c
 168 448 l 1
 280 448 l 1x5c
 280 784 l 1
 392 784 l 1x3c
 392 448 l 1
 504 448 l 1x5c
 504 336 l 1
 616 336 l 1
 616 0 l 1
 504 0 l 1
 504 336 l 1x9c
 392 336 l 1x5c
 392 0 l 1
 280 0 l 1x9c
 280 336 l 1x5c
 168 336 l 1
 168 0 l 1
 56 0 l 1
 56 336 l 1
 168 336 l 1x9c
 168 448 l 1x5c
 56 448 l 1
 56 784 l 1x3c
EndSplineSet
Validated: 5
EndChar

StartChar: uni417
Encoding: 1047 1047 204
Width: 672
GlyphClass: 1
Flags: W
HStem: 0 112<168 504> 112 112<56 168> 336 112<280 504> 560 112<56 168> 672 112<168 504>
VStem: 56 112<112 224 560 672> 168 336<0 112 672 784> 504 112<112 336 448 672>
LayerCount: 2
Fore
SplineSet
168 784 m 1x2a
 504 784 l 1
 504 672 l 1x2a
 616 672 l 1
 616 448 l 1
 504 448 l 1
 504 336 l 1
 616 336 l 1
 616 112 l 1x69
 504 112 l 1xa2
 504 336 l 1
 280 336 l 1
 280 448 l 1
 504 448 l 1xa1
 504 672 l 1xaa
 168 672 l 1
 168 560 l 1
 56 560 l 1
 56 672 l 1
 168 672 l 1x34
 168 784 l 1x2a
504 112 m 1xa2
 504 0 l 1
 168 0 l 1xa2
 168 112 l 1xa4
 56 112 l 1
 56 224 l 1
 168 224 l 1x64
 168 112 l 1xa4
 504 112 l 1xa2
EndSplineSet
Validated: 5
EndChar

StartChar: uni418
Encoding: 1048 1048 205
Width: 672
GlyphClass: 1
Flags: W
HStem: 0 21G<56 168 504 616> 448 112<280 392> 560 112<392 504> 764 20G<56 168 504 616>
VStem: 56 112<0 336 448 784> 280 112<448 560> 504 112<0 560 672 784>
CounterMasks: 1 0e
LayerCount: 2
Fore
SplineSet
392 560 m 1xde
 392 448 l 1
 280 448 l 1
 280 560 l 1
 392 560 l 1xde
 392 672 l 1
 504 672 l 1
 504 784 l 1
 616 784 l 1
 616 0 l 1
 504 0 l 1
 504 560 l 1xbe
 392 560 l 1xde
56 784 m 1
 168 784 l 1
 168 448 l 1
 280 448 l 1
 280 336 l 1
 168 336 l 1
 168 0 l 1
 56 0 l 1
 56 784 l 1
EndSplineSet
Validated: 5
EndChar

StartChar: uni419
Encoding: 1049 1049 206
Width: 672
GlyphClass: 1
Flags: W
HStem: 0 21G<56 168 504 616> 448 112<280 392> 560 112<392 504> 764 20G<56 168 504 616> 896 112<280 392> 1008 112<168 280 392 504>
VStem: 56 112<0 336 448 784> 168 112<1008 1120> 280 112<448 560 896 1008> 392 112<1008 1120> 504 112<0 560 672 784>
LayerCount: 2
Fore
SplineSet
504 1008 m 1x9440
 392 1008 l 1x9880
 392 1120 l 1
 504 1120 l 1
 504 1008 l 1x9440
168 1120 m 1x95
 280 1120 l 1x95
 280 1008 l 1x99
 392 1008 l 1
 392 896 l 1
 280 896 l 1x9880
 280 1008 l 1x99
 168 1008 l 1
 168 1120 l 1x95
392 560 m 1xd0a0
 392 448 l 1
 280 448 l 1
 280 560 l 1
 392 560 l 1xd0a0
 392 672 l 1xb040
 504 672 l 1
 504 784 l 1
 616 784 l 1
 616 0 l 1
 504 0 l 1
 504 560 l 1xb020
 392 560 l 1xd0a0
56 784 m 1xd280
 168 784 l 1
 168 448 l 1
 280 448 l 1
 280 336 l 1
 168 336 l 1
 168 0 l 1
 56 0 l 1
 56 784 l 1xd280
EndSplineSet
Validated: 5
EndChar

StartChar: uni41A
Encoding: 1050 1050 207
Width: 672
GlyphClass: 1
Flags: W
HStem: 0 21G<56 168 504 616> 336 112<392 504> 448 112<168 392> 560 112<392 504> 672 112<504 616>
VStem: 56 112<0 448 560 784> 392 112<336 448 560 672> 504 112<0 336 672 784>
LayerCount: 2
Fore
SplineSet
504 560 m 1x96
 392 560 l 1xa6
 392 672 l 1
 504 672 l 1x96
 504 784 l 1
 616 784 l 1
 616 672 l 1x8d
 504 672 l 1
 504 560 l 1x96
56 784 m 1xae
 168 784 l 1
 168 560 l 1
 392 560 l 1xae
 392 448 l 1
 504 448 l 1
 504 336 l 1xc6
 616 336 l 1
 616 0 l 1
 504 0 l 1xc5
 504 336 l 1
 392 336 l 1
 392 448 l 1xc6
 168 448 l 1
 168 0 l 1
 56 0 l 1
 56 784 l 1xae
EndSplineSet
Validated: 5
EndChar

StartChar: uni41B
Encoding: 1051 1051 208
Width: 672
GlyphClass: 1
Flags: W
HStem: 0 21G<56 168 504 616> 672 112<392 504>
VStem: 56 112<0 224> 168 112<224 560> 280 112<560 672> 504 112<0 672>
LayerCount: 2
Fore
SplineSet
280 784 m 1xcc
 616 784 l 1
 616 0 l 1
 504 0 l 1
 504 672 l 1
 392 672 l 1
 392 560 l 1xcc
 280 560 l 1
 280 224 l 1xd4
 168 224 l 1
 168 0 l 1
 56 0 l 1
 56 224 l 1
 168 224 l 1xe4
 168 560 l 1
 280 560 l 1xd4
 280 784 l 1xcc
EndSplineSet
Validated: 5
EndChar

StartChar: uni41C
Encoding: 1052 1052 209
Width: 672
GlyphClass: 1
Flags: W
HStem: 0 21G<56 168 504 616> 448 112<280 392> 560 112<168 280 392 504> 764 20G<56 168 504 616>
VStem: 56 112<0 560 672 784> 280 112<448 560> 504 112<0 560 672 784>
CounterMasks: 1 0e
LayerCount: 2
Fore
SplineSet
56 784 m 1xbe
 168 784 l 1
 168 672 l 1
 280 672 l 1xbe
 280 560 l 1
 392 560 l 1xde
 392 672 l 1
 504 672 l 1
 504 784 l 1
 616 784 l 1
 616 0 l 1
 504 0 l 1
 504 560 l 1xbe
 392 560 l 1
 392 448 l 1
 280 448 l 1
 280 560 l 1xde
 168 560 l 1
 168 0 l 1
 56 0 l 1
 56 784 l 1xbe
EndSplineSet
Validated: 5
EndChar

StartChar: uni41D
Encoding: 1053 1053 210
Width: 672
GlyphClass: 1
Flags: W
HStem: 0 21G<56 168 504 616> 448 112<168 504> 764 20G<56 168 504 616>
VStem: 56 112<0 448 560 784> 504 112<0 448 560 784>
LayerCount: 2
Fore
SplineSet
56 784 m 1
 168 784 l 1
 168 560 l 1
 504 560 l 1
 504 784 l 1
 616 784 l 1
 616 0 l 1
 504 0 l 1
 504 448 l 1
 168 448 l 1
 168 0 l 1
 56 0 l 1
 56 784 l 1
EndSplineSet
Validated: 1
EndChar

StartChar: uni41E
Encoding: 1054 1054 211
Width: 672
GlyphClass: 1
Flags: W
HStem: 0 112<168 504> 672 112<168 504>
VStem: 56 112<112 672> 168 336<0 112 672 784> 504 112<112 672>
LayerCount: 2
Fore
SplineSet
168 672 m 1xe0
 168 784 l 1
 504 784 l 1
 504 672 l 1xd0
 616 672 l 1
 616 112 l 1xc8
 504 112 l 1
 504 672 l 1xd0
 168 672 l 1
 168 112 l 1xe0
 504 112 l 1
 504 0 l 1
 168 0 l 1xd0
 168 112 l 1
 56 112 l 1
 56 672 l 1
 168 672 l 1xe0
EndSplineSet
Validated: 5
EndChar

StartChar: uni41F
Encoding: 1055 1055 212
Width: 672
GlyphClass: 1
Flags: W
HStem: 0 21G<56 168 504 616> 672 112<168 504>
VStem: 56 112<0 672> 504 112<0 672>
LayerCount: 2
Fore
SplineSet
56 784 m 1
 616 784 l 1
 616 0 l 1
 504 0 l 1
 504 672 l 1
 168 672 l 1
 168 0 l 1
 56 0 l 1
 56 784 l 1
EndSplineSet
Validated: 1
EndChar

StartChar: uni420
Encoding: 1056 1056 213
Width: 672
GlyphClass: 1
Flags: W
HStem: 0 21G<56 168> 336 112<168 504> 672 112<168 504>
VStem: 56 112<0 336 448 672> 504 112<448 672>
LayerCount: 2
Fore
SplineSet
168 672 m 1
 168 448 l 1
 504 448 l 1
 504 336 l 1
 168 336 l 1
 168 0 l 1
 56 0 l 1
 56 784 l 1
 504 784 l 1
 504 672 l 1
 616 672 l 1
 616 448 l 1
 504 448 l 1
 504 672 l 1
 168 672 l 1
EndSplineSet
Validated: 5
EndChar

StartChar: uni421
Encoding: 1057 1057 214
Width: 672
GlyphClass: 1
Flags: W
HStem: 0 112<168 504> 112 112<504 616> 560 112<504 616> 672 112<168 504>
VStem: 56 112<112 672> 168 336<0 112 672 784> 504 112<112 224 560 672>
LayerCount: 2
Fore
SplineSet
168 784 m 1x54
 504 784 l 1x54
 504 672 l 1x24
 616 672 l 1
 616 560 l 1
 504 560 l 1x22
 504 672 l 1x24
 168 672 l 1
 168 112 l 1x98
 504 112 l 1
 504 0 l 1
 168 0 l 1x94
 168 112 l 1x98
 56 112 l 1
 56 672 l 1
 168 672 l 1x58
 168 784 l 1x54
616 112 m 1x42
 504 112 l 1x84
 504 224 l 1
 616 224 l 1
 616 112 l 1x42
EndSplineSet
Validated: 5
EndChar

StartChar: uni422
Encoding: 1058 1058 215
Width: 672
GlyphClass: 1
Flags: W
HStem: 0 21G<280 392> 672 112<56 280 392 616>
VStem: 280 112<0 672>
LayerCount: 2
Fore
SplineSet
56 784 m 1
 616 784 l 1
 616 672 l 1
 392 672 l 1
 392 0 l 1
 280 0 l 1
 280 672 l 1
 56 672 l 1
 56 784 l 1
EndSplineSet
Validated: 1
EndChar

StartChar: uni423
Encoding: 1059 1059 216
Width: 672
GlyphClass: 1
Flags: W
HStem: 0 112<168 280> 336 224<168 280 392 504> 560 224<56 168 504 616>
VStem: 56 112<560 784> 168 112<0 112 336 560> 280 112<112 336> 392 112<336 560> 504 112<560 784>
LayerCount: 2
Fore
SplineSet
504 336 m 1xc2
 392 336 l 1xc4
 392 560 l 1
 504 560 l 1xc2
 504 784 l 1
 616 784 l 1
 616 560 l 1xa1
 504 560 l 1
 504 336 l 1xc2
56 784 m 1xb0
 168 784 l 1xb0
 168 560 l 1xd0
 280 560 l 1
 280 336 l 1xc8
 392 336 l 1
 392 112 l 1xc4
 280 112 l 1
 280 0 l 1
 168 0 l 1
 168 112 l 1
 280 112 l 1
 280 336 l 1
 168 336 l 1xc8
 168 560 l 1xd0
 56 560 l 1
 56 784 l 1xb0
EndSplineSet
Validated: 5
EndChar

StartChar: uni424
Encoding: 1060 1060 217
Width: 672
GlyphClass: 1
Flags: W
HStem: 0 21G<280 392> 112 112<168 280 392 504> 224 336<56 168 504 616> 560 112<168 280 392 504> 764 20G<280 392>
VStem: 56 112<224 560> 168 336<112 224 560 672> 280 112<0 112 224 560 672 784> 504 112<224 560>
LayerCount: 2
Fore
SplineSet
168 560 m 1xac
 168 672 l 1x9a
 280 672 l 1
 280 784 l 1
 392 784 l 1
 392 672 l 1x99
 504 672 l 1x9a
 504 560 l 1xaa
 616 560 l 1
 616 224 l 1xa880
 504 224 l 1xca
 504 560 l 1xaa
 392 560 l 1
 392 224 l 1xd9
 504 224 l 1
 504 112 l 1xda
 392 112 l 1
 392 0 l 1
 280 0 l 1
 280 112 l 1xd9
 168 112 l 1xda
 168 224 l 1xdc
 56 224 l 1
 56 560 l 1
 168 560 l 1xac
168 560 m 1xad
 168 224 l 1
 280 224 l 1
 280 560 l 1xdd
 168 560 l 1xad
EndSplineSet
Validated: 5
EndChar

StartChar: uni425
Encoding: 1061 1061 218
Width: 672
GlyphClass: 1
Flags: W
HStem: 0 224<56 168 504 616> 224 112<168 280 392 504> 336 112<280 392> 448 112<168 280 392 504> 560 224<56 168 504 616>
VStem: 56 112<0 224 560 784> 168 112<224 336 448 560> 280 112<336 448> 392 112<224 336 448 560> 504 112<0 224 560 784>
LayerCount: 2
Fore
SplineSet
504 448 m 1x1080
 392 448 l 1x21
 392 560 l 1
 504 560 l 1x1080
 504 784 l 1
 616 784 l 1
 616 560 l 1x0840
 504 560 l 1
 504 448 l 1x1080
56 784 m 1x0c
 168 784 l 1x0c
 168 560 l 1x14
 280 560 l 1x12
 280 448 l 1x22
 392 448 l 1x21
 392 336 l 1x41
 504 336 l 1x4080
 504 224 l 1x8080
 616 224 l 1
 616 0 l 1
 504 0 l 1x8040
 504 224 l 1x8080
 392 224 l 1x4080
 392 336 l 1x41
 280 336 l 1
 280 224 l 1x42
 168 224 l 1
 168 0 l 1
 56 0 l 1
 56 224 l 1
 168 224 l 1x84
 168 336 l 1
 280 336 l 1x42
 280 448 l 1x22
 168 448 l 1x12
 168 560 l 1x14
 56 560 l 1
 56 784 l 1x0c
EndSplineSet
Validated: 5
EndChar

StartChar: uni426
Encoding: 1062 1062 219
Width: 672
GlyphClass: 1
Flags: W
HStem: -112 21G<504 616> 0 112<168 392> 764 20G<56 168 392 504>
VStem: 56 112<112 784> 392 112<112 784> 504 112<-112 0>
LayerCount: 2
Fore
SplineSet
56 784 m 1xf4
 168 784 l 1
 168 112 l 1
 392 112 l 1
 392 784 l 1
 504 784 l 1
 504 112 l 1xf8
 616 112 l 1
 616 -112 l 1
 504 -112 l 1
 504 0 l 1
 56 0 l 1
 56 784 l 1xf4
EndSplineSet
Validated: 1
EndChar

StartChar: uni427
Encoding: 1063 1063 220
Width: 672
GlyphClass: 1
Flags: W
HStem: 0 21G<504 616> 224 112<168 504> 764 20G<56 168 504 616>
VStem: 56 112<336 784> 504 112<0 224 336 784>
LayerCount: 2
Fore
SplineSet
56 784 m 1
 168 784 l 1
 168 336 l 1
 504 336 l 1
 504 784 l 1
 616 784 l 1
 616 0 l 1
 504 0 l 1
 504 224 l 1
 168 224 l 1
 168 336 l 1
 56 336 l 1
 56 784 l 1
EndSplineSet
Validated: 5
EndChar

StartChar: uni428
Encoding: 1064 1064 221
Width: 672
GlyphClass: 1
Flags: W
HStem: 0 112<168 280 392 504> 764 20G<56 168 280 392 504 616>
VStem: 56 112<112 784> 280 112<112 784> 504 112<112 784>
CounterMasks: 1 38
LayerCount: 2
Fore
SplineSet
56 784 m 1
 168 784 l 1
 168 112 l 1
 280 112 l 1
 280 784 l 1
 392 784 l 1
 392 112 l 1
 504 112 l 1
 504 784 l 1
 616 784 l 1
 616 0 l 1
 56 0 l 1
 56 784 l 1
EndSplineSet
Validated: 1
EndChar

StartChar: uni429
Encoding: 1065 1065 222
Width: 672
GlyphClass: 1
Flags: W
HStem: -112 21G<504 616> 0 112<168 280 392 504> 764 20G<56 168 280 392 504 616>
VStem: 56 112<112 784> 280 112<112 784> 504 112<-112 0 112 784>
CounterMasks: 1 1c
LayerCount: 2
Fore
SplineSet
56 784 m 1
 168 784 l 1
 168 112 l 1
 280 112 l 1
 280 784 l 1
 392 784 l 1
 392 112 l 1
 504 112 l 1
 504 784 l 1
 616 784 l 1
 616 -112 l 1
 504 -112 l 1
 504 0 l 1
 56 0 l 1
 56 784 l 1
EndSplineSet
Validated: 1
EndChar

StartChar: uni42A
Encoding: 1066 1066 223
Width: 672
GlyphClass: 1
Flags: W
HStem: 0 112<280 504> 336 112<280 504> 672 112<56 168>
VStem: 168 336<0 112 336 448> 168 112<112 336 448 672> 504 112<112 336>
CounterMasks: 1 e0
LayerCount: 2
Fore
SplineSet
280 336 m 1xe8
 280 112 l 1xe8
 504 112 l 1
 504 0 l 1
 168 0 l 1xf0
 168 672 l 1
 56 672 l 1
 56 784 l 1
 280 784 l 1
 280 448 l 1xe8
 504 448 l 1
 504 336 l 1xf0
 616 336 l 1
 616 112 l 1xe4
 504 112 l 1
 504 336 l 1xf0
 280 336 l 1xe8
EndSplineSet
Validated: 5
EndChar

StartChar: uni42B
Encoding: 1067 1067 224
Width: 672
GlyphClass: 1
Flags: W
HStem: 0 112<168 392> 336 112<168 392> 764 20G<56 168 504 616>
VStem: 56 336<0 112 336 448> 56 112<112 336 448 784> 392 224<112 336> 504 112<0 112 336 784>
LayerCount: 2
Fore
SplineSet
56 784 m 1xe8
 168 784 l 1
 168 448 l 1xe8
 392 448 l 1
 392 336 l 1
 504 336 l 1
 504 784 l 1
 616 784 l 1
 616 0 l 1
 504 0 l 1
 504 112 l 1
 392 112 l 1
 392 0 l 1
 56 0 l 1xf2
 56 784 l 1xe8
168 336 m 1
 168 112 l 1xe8
 392 112 l 1
 392 336 l 1xf0
 168 336 l 1
EndSplineSet
Validated: 5
EndChar

StartChar: uni42C
Encoding: 1068 1068 225
Width: 672
GlyphClass: 1
Flags: W
HStem: 0 112<168 504> 336 112<168 504> 764 20G<56 168>
VStem: 56 112<112 336 448 784> 504 112<112 336>
LayerCount: 2
Fore
SplineSet
168 336 m 1
 168 112 l 1
 504 112 l 1
 504 0 l 1
 56 0 l 1
 56 784 l 1
 168 784 l 1
 168 448 l 1
 504 448 l 1
 504 336 l 1
 616 336 l 1
 616 112 l 1
 504 112 l 1
 504 336 l 1
 168 336 l 1
EndSplineSet
Validated: 5
EndChar

StartChar: uni42D
Encoding: 1069 1069 226
Width: 672
GlyphClass: 1
Flags: W
HStem: 0 112<168 504> 112 112<56 168> 336 112<168 504> 560 112<56 168> 672 112<168 504>
VStem: 56 112<112 224 560 672> 168 336<0 112 672 784> 504 112<112 336 448 672>
LayerCount: 2
Fore
SplineSet
168 784 m 1x2a
 504 784 l 1
 504 672 l 1x2a
 616 672 l 1
 616 112 l 1x69
 504 112 l 1xa2
 504 336 l 1xa1
 168 336 l 1
 168 448 l 1xa2
 504 448 l 1xa1
 504 672 l 1xaa
 168 672 l 1
 168 560 l 1
 56 560 l 1
 56 672 l 1
 168 672 l 1x34
 168 784 l 1x2a
504 112 m 1xa2
 504 0 l 1
 168 0 l 1xa2
 168 112 l 1xa4
 56 112 l 1
 56 224 l 1
 168 224 l 1x64
 168 112 l 1xa4
 504 112 l 1xa2
EndSplineSet
Validated: 5
EndChar

StartChar: uni42E
Encoding: 1070 1070 227
Width: 672
GlyphClass: 1
Flags: W
HStem: 0 112<392 504> 336 112<168 280> 672 112<392 504>
VStem: 56 112<0 336 448 784> 280 112<112 336 448 672> 392 112<0 112 672 784> 504 112<112 672>
CounterMasks: 1 e0
LayerCount: 2
Fore
SplineSet
392 672 m 1xf8
 392 784 l 1
 504 784 l 1
 504 672 l 1xf4
 616 672 l 1
 616 112 l 1xf2
 504 112 l 1
 504 672 l 1xf4
 392 672 l 1
 392 112 l 1xf8
 504 112 l 1
 504 0 l 1
 392 0 l 1xf4
 392 112 l 1
 280 112 l 1
 280 336 l 1
 168 336 l 1
 168 0 l 1
 56 0 l 1
 56 784 l 1
 168 784 l 1
 168 448 l 1
 280 448 l 1
 280 672 l 1
 392 672 l 1xf8
EndSplineSet
Validated: 5
EndChar

StartChar: uni42F
Encoding: 1071 1071 228
Width: 672
GlyphClass: 1
Flags: W
HStem: 0 21G<56 168 504 616> 336 112<168 504> 672 112<168 504>
VStem: 56 112<0 336 448 672> 504 112<0 336 448 672>
LayerCount: 2
Fore
SplineSet
168 672 m 1
 168 784 l 1
 616 784 l 1
 616 0 l 1
 504 0 l 1
 504 336 l 1
 168 336 l 1
 168 0 l 1
 56 0 l 1
 56 336 l 1
 168 336 l 1
 168 448 l 1
 56 448 l 1
 56 672 l 1
 168 672 l 1
168 672 m 1
 168 448 l 1
 504 448 l 1
 504 672 l 1
 168 672 l 1
EndSplineSet
Validated: 5
EndChar

StartChar: uni430
Encoding: 1072 1072 229
Width: 672
GlyphClass: 1
Flags: W
HStem: 0 112<168 504> 224 112<168 504> 448 112<168 504>
VStem: 56 112<112 224> 504 112<112 224 336 448>
CounterMasks: 1 e0
LayerCount: 2
Fore
SplineSet
168 224 m 1
 168 336 l 1
 504 336 l 1
 504 448 l 1
 168 448 l 1
 168 560 l 1
 504 560 l 1
 504 448 l 1
 616 448 l 1
 616 0 l 1
 168 0 l 1
 168 112 l 1
 56 112 l 1
 56 224 l 1
 168 224 l 1
168 224 m 1
 168 112 l 1
 504 112 l 1
 504 224 l 1
 168 224 l 1
EndSplineSet
Validated: 5
EndChar

StartChar: uni431
Encoding: 1073 1073 230
Width: 672
GlyphClass: 1
Flags: W
HStem: 0 112<168 504> 336 112<168 280> 448 112<280 504> 672 112<168 504>
VStem: 56 112<112 336 448 672> 168 336<0 112 672 784> 504 112<112 448>
LayerCount: 2
Fore
SplineSet
280 448 m 1xd8
 280 560 l 1
 504 560 l 1
 504 448 l 1
 616 448 l 1
 616 112 l 1xba
 504 112 l 1xb4
 504 448 l 1xb2
 280 448 l 1
 280 336 l 1
 168 336 l 1
 168 112 l 1xda
 504 112 l 1
 504 0 l 1
 168 0 l 1xd4
 168 112 l 1
 56 112 l 1
 56 672 l 1
 168 672 l 1xd8
 168 784 l 1
 504 784 l 1
 504 672 l 1xd4
 168 672 l 1
 168 448 l 1
 280 448 l 1xd8
EndSplineSet
Validated: 5
EndChar

StartChar: uni432
Encoding: 1074 1074 231
Width: 672
GlyphClass: 1
Flags: W
HStem: 0 112<280 504> 112 112<504 616> 224 112<280 504> 336 112<504 616> 448 112<280 504>
VStem: 168 336<0 112 224 336 448 560> 168 112<112 224 336 448> 504 112<112 224 336 448>
LayerCount: 2
Fore
SplineSet
280 224 m 1x22
 280 112 l 1xa2
 504 112 l 1
 504 0 l 1
 168 0 l 1
 168 560 l 1
 504 560 l 1xac
 504 448 l 1x14
 616 448 l 1
 616 336 l 1x11
 504 336 l 1x24
 504 448 l 1x14
 280 448 l 1
 280 336 l 1x2a
 504 336 l 1x2c
 504 224 l 1x44
 616 224 l 1
 616 112 l 1x41
 504 112 l 1x84
 504 224 l 1x44
 280 224 l 1x22
EndSplineSet
Validated: 5
EndChar

StartChar: uni433
Encoding: 1075 1075 232
Width: 672
GlyphClass: 1
Flags: W
HStem: 0 21G<168 280> 448 112<280 616>
VStem: 168 112<0 448>
LayerCount: 2
Fore
SplineSet
168 560 m 1
 616 560 l 1
 616 448 l 1
 280 448 l 1
 280 0 l 1
 168 0 l 1
 168 560 l 1
EndSplineSet
Validated: 1
EndChar

StartChar: uni434
Encoding: 1076 1076 233
Width: 672
GlyphClass: 1
Flags: W
HStem: -112 21G<56 168 504 616> 0 112<168 504> 448 112<280 504>
VStem: 56 112<-112 0 112 224> 168 112<224 448> 504 112<-112 0 112 448>
LayerCount: 2
Fore
SplineSet
168 560 m 1xec
 616 560 l 1
 616 -112 l 1
 504 -112 l 1
 504 0 l 1
 168 0 l 1
 168 -112 l 1
 56 -112 l 1
 56 224 l 1
 168 224 l 1xf4
 168 560 l 1xec
280 448 m 1xec
 280 224 l 1xec
 168 224 l 1
 168 112 l 1xf4
 504 112 l 1
 504 448 l 1
 280 448 l 1xec
EndSplineSet
Validated: 5
EndChar

StartChar: uni435
Encoding: 1077 1077 234
Width: 672
GlyphClass: 1
Flags: W
HStem: 0 112<168 616> 224 112<168 504> 448 112<168 504>
VStem: 56 112<112 224 336 448> 504 112<336 448>
CounterMasks: 1 e0
LayerCount: 2
Fore
SplineSet
168 448 m 1
 168 560 l 1
 504 560 l 1
 504 448 l 1
 616 448 l 1
 616 224 l 1
 168 224 l 1
 168 112 l 1
 616 112 l 1
 616 0 l 1
 168 0 l 1
 168 112 l 1
 56 112 l 1
 56 448 l 1
 168 448 l 1
168 448 m 1
 168 336 l 1
 504 336 l 1
 504 448 l 1
 168 448 l 1
EndSplineSet
Validated: 5
EndChar

StartChar: uni436
Encoding: 1078 1078 235
Width: 672
GlyphClass: 1
Flags: W
HStem: 0 224<56 168 504 616> 224 112<168 280 392 504> 336 224<56 168 504 616>
VStem: 56 112<0 224 336 560> 280 112<0 224 336 560> 504 112<0 224 336 560>
CounterMasks: 1 1c
LayerCount: 2
Fore
SplineSet
616 336 m 1x3c
 504 336 l 1x5c
 504 560 l 1
 616 560 l 1
 616 336 l 1x3c
56 560 m 1x3c
 168 560 l 1x3c
 168 336 l 1
 280 336 l 1x5c
 280 560 l 1
 392 560 l 1x3c
 392 336 l 1
 504 336 l 1x5c
 504 224 l 1
 616 224 l 1
 616 0 l 1
 504 0 l 1
 504 224 l 1x9c
 392 224 l 1x5c
 392 0 l 1
 280 0 l 1x9c
 280 224 l 1x5c
 168 224 l 1
 168 0 l 1
 56 0 l 1
 56 224 l 1
 168 224 l 1x9c
 168 336 l 1x5c
 56 336 l 1
 56 560 l 1x3c
EndSplineSet
Validated: 5
EndChar

StartChar: uni437
Encoding: 1079 1079 236
Width: 672
GlyphClass: 1
Flags: W
HStem: 0 112<168 504> 112 112<56 168 504 616> 336 112<56 168 504 616> 448 112<168 504>
VStem: 56 112<112 224 336 448> 168 336<0 112 448 560> 504 112<112 224 336 448>
LayerCount: 2
Fore
SplineSet
168 560 m 1x14
 504 560 l 1x14
 504 448 l 1x24
 616 448 l 1
 616 336 l 1
 504 336 l 1
 504 224 l 1
 616 224 l 1
 616 112 l 1x62
 504 112 l 1x84
 504 224 l 1
 280 224 l 1
 280 336 l 1
 504 336 l 1x62
 504 448 l 1x64
 168 448 l 1
 168 336 l 1
 56 336 l 1
 56 448 l 1
 168 448 l 1x68
 168 560 l 1x14
504 112 m 1x84
 504 0 l 1
 168 0 l 1x84
 168 112 l 1x88
 56 112 l 1
 56 224 l 1
 168 224 l 1x48
 168 112 l 1x88
 504 112 l 1x84
EndSplineSet
Validated: 5
EndChar

StartChar: uni438
Encoding: 1080 1080 237
Width: 672
GlyphClass: 1
Flags: W
HStem: 0 21G<56 168 504 616> 224 112<280 392> 336 112<392 504> 540 20G<56 168 504 616>
VStem: 56 112<0 112 224 560> 280 112<224 336> 504 112<0 336 448 560>
CounterMasks: 1 0e
LayerCount: 2
Fore
SplineSet
392 336 m 1xde
 392 224 l 1
 280 224 l 1
 280 336 l 1
 392 336 l 1xde
 392 448 l 1
 504 448 l 1
 504 560 l 1
 616 560 l 1
 616 0 l 1
 504 0 l 1
 504 336 l 1xbe
 392 336 l 1xde
56 560 m 1
 168 560 l 1
 168 224 l 1
 280 224 l 1
 280 112 l 1
 168 112 l 1
 168 0 l 1
 56 0 l 1
 56 560 l 1
EndSplineSet
Validated: 5
EndChar

StartChar: uni439
Encoding: 1081 1081 238
Width: 672
GlyphClass: 1
Flags: W
HStem: 0 21G<56 168 504 616> 224 112<280 392> 336 112<392 504> 540 20G<56 168 504 616> 672 112<280 392> 784 112<168 280 392 504>
VStem: 56 112<0 112 224 560> 168 112<784 896> 280 112<224 336 672 784> 392 112<784 896> 504 112<0 336 448 560>
LayerCount: 2
Fore
SplineSet
504 784 m 1x9440
 392 784 l 1x9880
 392 896 l 1
 504 896 l 1
 504 784 l 1x9440
168 896 m 1x95
 280 896 l 1x95
 280 784 l 1x99
 392 784 l 1
 392 672 l 1
 280 672 l 1x9880
 280 784 l 1x99
 168 784 l 1
 168 896 l 1x95
392 336 m 1xd0a0
 392 224 l 1
 280 224 l 1
 280 336 l 1
 392 336 l 1xd0a0
 392 448 l 1xb040
 504 448 l 1
 504 560 l 1
 616 560 l 1
 616 0 l 1
 504 0 l 1
 504 336 l 1xb020
 392 336 l 1xd0a0
56 560 m 1xd280
 168 560 l 1
 168 224 l 1
 280 224 l 1
 280 112 l 1
 168 112 l 1
 168 0 l 1
 56 0 l 1
 56 560 l 1xd280
EndSplineSet
Validated: 5
EndChar

StartChar: uni43A
Encoding: 1082 1082 239
Width: 672
GlyphClass: 1
Flags: W
HStem: 0 112<504 616> 112 112<392 504> 224 112<168 392> 336 112<392 504> 448 112<504 616>
VStem: 56 112<0 224 336 560> 392 112<112 224 336 448> 504 112<0 112 448 560>
LayerCount: 2
Fore
SplineSet
504 336 m 1x16
 392 336 l 1x26
 392 448 l 1
 504 448 l 1x16
 504 560 l 1
 616 560 l 1
 616 448 l 1x0d
 504 448 l 1
 504 336 l 1x16
56 560 m 1xae
 168 560 l 1
 168 336 l 1
 392 336 l 1xae
 392 224 l 1
 504 224 l 1x46
 504 112 l 1x86
 616 112 l 1
 616 0 l 1
 504 0 l 1x85
 504 112 l 1x86
 392 112 l 1
 392 224 l 1x46
 168 224 l 1
 168 0 l 1
 56 0 l 1
 56 560 l 1xae
EndSplineSet
Validated: 5
EndChar

StartChar: uni43B
Encoding: 1083 1083 240
Width: 672
GlyphClass: 1
Flags: W
HStem: 0 21G<56 168 504 616> 448 112<280 504>
VStem: 56 112<0 224> 168 112<224 448> 504 112<0 448>
LayerCount: 2
Fore
SplineSet
168 560 m 1xd8
 616 560 l 1
 616 0 l 1
 504 0 l 1
 504 448 l 1
 280 448 l 1
 280 224 l 1xd8
 168 224 l 1
 168 0 l 1
 56 0 l 1
 56 224 l 1
 168 224 l 1xe8
 168 560 l 1xd8
EndSplineSet
Validated: 5
EndChar

StartChar: uni43C
Encoding: 1084 1084 241
Width: 672
GlyphClass: 1
Flags: W
HStem: 0 21G<56 168 504 616> 224 112<280 392> 336 112<168 280 392 504> 540 20G<56 168 504 616>
VStem: 56 112<0 336 448 560> 280 112<224 336> 504 112<0 336 448 560>
CounterMasks: 1 0e
LayerCount: 2
Fore
SplineSet
56 560 m 1xbe
 168 560 l 1
 168 448 l 1
 280 448 l 1xbe
 280 336 l 1
 392 336 l 1xde
 392 448 l 1
 504 448 l 1
 504 560 l 1
 616 560 l 1
 616 0 l 1
 504 0 l 1
 504 336 l 1xbe
 392 336 l 1
 392 224 l 1
 280 224 l 1
 280 336 l 1xde
 168 336 l 1
 168 0 l 1
 56 0 l 1
 56 560 l 1xbe
EndSplineSet
Validated: 5
EndChar

StartChar: uni43D
Encoding: 1085 1085 242
Width: 672
GlyphClass: 1
Flags: W
HStem: 0 21G<56 168 504 616> 224 112<168 504> 540 20G<56 168 504 616>
VStem: 56 112<0 224 336 560> 504 112<0 224 336 560>
LayerCount: 2
Fore
SplineSet
56 560 m 1
 168 560 l 1
 168 336 l 1
 504 336 l 1
 504 560 l 1
 616 560 l 1
 616 0 l 1
 504 0 l 1
 504 224 l 1
 168 224 l 1
 168 0 l 1
 56 0 l 1
 56 560 l 1
EndSplineSet
Validated: 1
EndChar

StartChar: uni43E
Encoding: 1086 1086 243
Width: 672
GlyphClass: 1
Flags: W
HStem: 0 112<168 504> 112 336<56 168 504 616> 448 112<168 504>
VStem: 56 112<112 448> 168 336<0 112 448 560> 504 112<112 448>
LayerCount: 2
Fore
SplineSet
168 448 m 1x50
 168 560 l 1
 504 560 l 1x28
 504 448 l 1x48
 616 448 l 1
 616 112 l 1x44
 504 112 l 1x88
 504 448 l 1x48
 168 448 l 1x50
 168 112 l 1x90
 504 112 l 1
 504 0 l 1
 168 0 l 1x88
 168 112 l 1x90
 56 112 l 1
 56 448 l 1
 168 448 l 1x50
EndSplineSet
Validated: 5
EndChar

StartChar: uni43F
Encoding: 1087 1087 244
Width: 672
GlyphClass: 1
Flags: W
HStem: 0 21G<56 168 504 616> 448 112<168 504>
VStem: 56 112<0 448> 504 112<0 448>
LayerCount: 2
Fore
SplineSet
56 560 m 1
 616 560 l 1
 616 0 l 1
 504 0 l 1
 504 448 l 1
 168 448 l 1
 168 0 l 1
 56 0 l 1
 56 560 l 1
EndSplineSet
Validated: 1
EndChar

StartChar: uni440
Encoding: 1088 1088 245
Width: 672
GlyphClass: 1
Flags: W
HStem: -112 21G<56 168> 112 112<168 504> 336 112<168 280> 448 112<280 504>
VStem: 56 112<-112 112 224 336 448 560> 504 112<224 448>
LayerCount: 2
Fore
SplineSet
280 448 m 1xec
 280 560 l 1
 504 560 l 1
 504 448 l 1
 616 448 l 1
 616 224 l 1
 504 224 l 1
 504 448 l 1xdc
 280 448 l 1
 280 336 l 1
 168 336 l 1xec
 168 224 l 1
 504 224 l 1
 504 112 l 1
 168 112 l 1
 168 -112 l 1
 56 -112 l 1
 56 560 l 1
 168 560 l 1xdc
 168 448 l 1
 280 448 l 1xec
EndSplineSet
Validated: 5
EndChar

StartChar: uni441
Encoding: 1089 1089 246
Width: 672
GlyphClass: 1
Flags: W
HStem: 0 112<168 504> 112 112<504 616> 336 112<504 616> 448 112<168 504>
VStem: 56 112<112 448> 168 336<0 112 448 560> 504 112<112 224 336 448>
LayerCount: 2
Fore
SplineSet
168 560 m 1x54
 504 560 l 1x54
 504 448 l 1x24
 616 448 l 1
 616 336 l 1
 504 336 l 1x22
 504 448 l 1x24
 168 448 l 1
 168 112 l 1x98
 504 112 l 1
 504 0 l 1
 168 0 l 1x94
 168 112 l 1x98
 56 112 l 1
 56 448 l 1
 168 448 l 1x58
 168 560 l 1x54
616 112 m 1x42
 504 112 l 1x84
 504 224 l 1
 616 224 l 1
 616 112 l 1x42
EndSplineSet
Validated: 5
EndChar

StartChar: uni442
Encoding: 1090 1090 247
Width: 672
GlyphClass: 1
Flags: W
HStem: 0 21G<280 392> 448 112<56 280 392 616>
VStem: 280 112<0 448>
LayerCount: 2
Fore
SplineSet
56 560 m 1
 616 560 l 1
 616 448 l 1
 392 448 l 1
 392 0 l 1
 280 0 l 1
 280 448 l 1
 56 448 l 1
 56 560 l 1
EndSplineSet
Validated: 1
EndChar

StartChar: uni443
Encoding: 1091 1091 248
Width: 672
GlyphClass: 1
Flags: W
HStem: -224 112<168 280> 112 224<168 280 392 504> 336 224<56 168 504 616>
VStem: 56 112<336 560> 168 112<-224 -112 112 336> 280 112<-112 112> 392 112<112 336> 504 112<336 560>
LayerCount: 2
Fore
SplineSet
504 112 m 1xc2
 392 112 l 1xc4
 392 336 l 1
 504 336 l 1xc2
 504 560 l 1
 616 560 l 1
 616 336 l 1xa1
 504 336 l 1
 504 112 l 1xc2
56 560 m 1xb0
 168 560 l 1xb0
 168 336 l 1xd0
 280 336 l 1
 280 112 l 1xc8
 392 112 l 1
 392 -112 l 1xc4
 280 -112 l 1
 280 -224 l 1
 168 -224 l 1
 168 -112 l 1
 280 -112 l 1
 280 112 l 1
 168 112 l 1xc8
 168 336 l 1xd0
 56 336 l 1
 56 560 l 1xb0
EndSplineSet
Validated: 5
EndChar

StartChar: uni444
Encoding: 1092 1092 249
Width: 672
GlyphClass: 1
Flags: W
HStem: 0 112<168 280 392 504> 112 336<56 168 504 616> 448 112<168 280 392 504> 764 20G<280 392>
VStem: 56 112<112 448> 168 336<0 112 448 560> 280 112<-224 0 112 448 560 784> 504 112<112 448>
LayerCount: 2
Fore
SplineSet
168 448 m 1x58
 168 560 l 1x34
 280 560 l 1
 280 784 l 1
 392 784 l 1
 392 560 l 1x32
 504 560 l 1x34
 504 448 l 1x54
 616 448 l 1
 616 112 l 1x51
 504 112 l 1x94
 504 448 l 1x54
 392 448 l 1
 392 112 l 1xb2
 504 112 l 1
 504 0 l 1xb4
 392 0 l 1
 392 -224 l 1
 280 -224 l 1
 280 0 l 1xb2
 168 0 l 1xb4
 168 112 l 1xb8
 56 112 l 1
 56 448 l 1
 168 448 l 1x58
168 448 m 1x5a
 168 112 l 1
 280 112 l 1
 280 448 l 1xba
 168 448 l 1x5a
EndSplineSet
Validated: 5
EndChar

StartChar: uni445
Encoding: 1093 1093 250
Width: 672
GlyphClass: 1
Flags: W
HStem: 0 224<168 280 392 504> 0 112<56 168 504 616> 224 112<280 392> 336 224<168 280 392 504> 448 112<56 168 504 616>
VStem: 56 224<0 112 448 560> 168 112<112 224 336 448> 280 112<224 336> 392 224<0 112 448 560> 392 112<112 224 336 448>
LayerCount: 2
Fore
SplineSet
504 336 m 1x1040
 392 336 l 1x21
 392 560 l 1x1080
 616 560 l 1
 616 448 l 1x0880
 504 448 l 1x0840
 504 336 l 1x1040
56 560 m 1x0c
 280 560 l 1x14
 280 336 l 1x22
 392 336 l 1x21
 392 224 l 1x81
 504 224 l 1x8040
 504 112 l 1x4040
 616 112 l 1
 616 0 l 1x4080
 392 0 l 1x8080
 392 224 l 1x81
 280 224 l 1x82
 280 0 l 1x84
 56 0 l 1
 56 112 l 1x44
 168 112 l 1x42
 168 224 l 1
 280 224 l 1x82
 280 336 l 1x22
 168 336 l 1x12
 168 448 l 1x0a
 56 448 l 1
 56 560 l 1x0c
EndSplineSet
Validated: 5
EndChar

StartChar: uni446
Encoding: 1094 1094 251
Width: 672
GlyphClass: 1
Flags: W
HStem: -112 21G<504 616> 0 112<168 392> 540 20G<56 168 392 504>
VStem: 56 112<112 560> 392 112<112 560> 504 112<-112 0>
LayerCount: 2
Fore
SplineSet
56 560 m 1xf4
 168 560 l 1
 168 112 l 1
 392 112 l 1
 392 560 l 1
 504 560 l 1
 504 112 l 1xf8
 616 112 l 1
 616 -112 l 1
 504 -112 l 1
 504 0 l 1
 56 0 l 1
 56 560 l 1xf4
EndSplineSet
Validated: 1
EndChar

StartChar: uni447
Encoding: 1095 1095 252
Width: 672
GlyphClass: 1
Flags: W
HStem: 0 21G<504 616> 112 112<168 504> 540 20G<56 168 504 616>
VStem: 56 112<224 560> 504 112<0 112 224 560>
LayerCount: 2
Fore
SplineSet
56 560 m 1
 168 560 l 1
 168 224 l 1
 504 224 l 1
 504 560 l 1
 616 560 l 1
 616 0 l 1
 504 0 l 1
 504 112 l 1
 168 112 l 1
 168 224 l 1
 56 224 l 1
 56 560 l 1
EndSplineSet
Validated: 5
EndChar

StartChar: uni448
Encoding: 1096 1096 253
Width: 672
GlyphClass: 1
Flags: W
HStem: 0 112<168 280 392 504> 540 20G<56 168 280 392 504 616>
VStem: 56 112<112 560> 280 112<112 560> 504 112<112 560>
CounterMasks: 1 38
LayerCount: 2
Fore
SplineSet
56 560 m 1
 168 560 l 1
 168 112 l 1
 280 112 l 1
 280 560 l 1
 392 560 l 1
 392 112 l 1
 504 112 l 1
 504 560 l 1
 616 560 l 1
 616 0 l 1
 56 0 l 1
 56 560 l 1
EndSplineSet
Validated: 1
EndChar

StartChar: uni449
Encoding: 1097 1097 254
Width: 672
GlyphClass: 1
Flags: W
HStem: -112 21G<504 616> 0 112<168 280 392 504> 540 20G<56 168 280 392 504 616>
VStem: 56 112<112 560> 280 112<112 560> 504 112<-112 0 112 560>
CounterMasks: 1 1c
LayerCount: 2
Fore
SplineSet
56 560 m 1
 168 560 l 1
 168 112 l 1
 280 112 l 1
 280 560 l 1
 392 560 l 1
 392 112 l 1
 504 112 l 1
 504 560 l 1
 616 560 l 1
 616 -112 l 1
 504 -112 l 1
 504 0 l 1
 56 0 l 1
 56 560 l 1
EndSplineSet
Validated: 1
EndChar

StartChar: uni44A
Encoding: 1098 1098 255
Width: 672
GlyphClass: 1
Flags: W
HStem: 0 112<280 504> 336 112<280 504> 448 112<56 168>
VStem: 168 336<0 112 336 448> 168 112<112 336> 504 112<112 336>
LayerCount: 2
Fore
SplineSet
280 336 m 1xc8
 280 112 l 1xc8
 504 112 l 1
 504 0 l 1
 168 0 l 1
 168 448 l 1xb0
 56 448 l 1
 56 560 l 1
 280 560 l 1xa8
 280 448 l 1xc8
 504 448 l 1
 504 336 l 1xd0
 616 336 l 1
 616 112 l 1xc4
 504 112 l 1
 504 336 l 1xd0
 280 336 l 1xc8
EndSplineSet
Validated: 5
EndChar

StartChar: uni44B
Encoding: 1099 1099 256
Width: 672
GlyphClass: 1
Flags: W
HStem: 0 112<168 392> 336 112<168 392> 540 20G<56 168 504 616>
VStem: 56 336<0 112 336 448> 56 112<112 336 448 560> 392 224<112 336> 504 112<0 112 336 560>
LayerCount: 2
Fore
SplineSet
56 560 m 1xe8
 168 560 l 1
 168 448 l 1xe8
 392 448 l 1
 392 336 l 1
 504 336 l 1
 504 560 l 1
 616 560 l 1
 616 0 l 1
 504 0 l 1
 504 112 l 1
 392 112 l 1
 392 0 l 1
 56 0 l 1xf2
 56 560 l 1xe8
168 336 m 1
 168 112 l 1xe8
 392 112 l 1
 392 336 l 1xf0
 168 336 l 1
EndSplineSet
Validated: 5
EndChar

StartChar: uni44C
Encoding: 1100 1100 257
Width: 672
GlyphClass: 1
Flags: W
HStem: 0 112<168 504> 336 112<168 504> 540 20G<56 168>
VStem: 56 112<112 336 448 560> 504 112<112 336>
LayerCount: 2
Fore
SplineSet
168 336 m 1
 168 112 l 1
 504 112 l 1
 504 0 l 1
 56 0 l 1
 56 560 l 1
 168 560 l 1
 168 448 l 1
 504 448 l 1
 504 336 l 1
 616 336 l 1
 616 112 l 1
 504 112 l 1
 504 336 l 1
 168 336 l 1
EndSplineSet
Validated: 5
EndChar

StartChar: uni44D
Encoding: 1101 1101 258
Width: 672
GlyphClass: 1
Flags: W
HStem: 0 112<168 504> 112 112<56 168> 224 112<280 504> 336 112<56 168> 448 112<168 504>
VStem: 56 112<112 224 336 448> 168 336<0 112 448 560> 504 112<112 224 336 448>
LayerCount: 2
Fore
SplineSet
168 560 m 1x0a
 504 560 l 1
 504 448 l 1x0a
 616 448 l 1
 616 112 l 1x49
 504 112 l 1x82
 504 224 l 1
 280 224 l 1
 280 336 l 1
 504 336 l 1xa1
 504 448 l 1xaa
 168 448 l 1
 168 336 l 1
 56 336 l 1
 56 448 l 1
 168 448 l 1x14
 168 560 l 1x0a
504 112 m 1x82
 504 0 l 1
 168 0 l 1x82
 168 112 l 1x84
 56 112 l 1
 56 224 l 1
 168 224 l 1x44
 168 112 l 1x84
 504 112 l 1x82
EndSplineSet
Validated: 5
EndChar

StartChar: uni44E
Encoding: 1102 1102 259
Width: 672
GlyphClass: 1
Flags: W
HStem: 0 112<392 504> 112 336<280 392 504 616> 448 112<392 504>
VStem: 56 112<0 224 336 560> 280 112<112 224 336 448> 392 112<0 112 448 560> 504 112<112 448>
LayerCount: 2
Fore
SplineSet
392 448 m 1x58
 392 560 l 1
 504 560 l 1x34
 504 448 l 1x54
 616 448 l 1
 616 112 l 1x52
 504 112 l 1x94
 504 448 l 1x54
 392 448 l 1x58
 392 112 l 1x98
 504 112 l 1
 504 0 l 1
 392 0 l 1x94
 392 112 l 1x98
 280 112 l 1x58
 280 224 l 1
 168 224 l 1
 168 0 l 1
 56 0 l 1
 56 560 l 1
 168 560 l 1xb8
 168 336 l 1
 280 336 l 1
 280 448 l 1
 392 448 l 1x58
EndSplineSet
Validated: 5
EndChar

StartChar: uni44F
Encoding: 1103 1103 260
Width: 672
GlyphClass: 1
Flags: W
HStem: 0 21G<56 168 504 616> 224 112<168 504> 448 112<168 504>
VStem: 56 112<0 224 336 448> 504 112<0 224 336 448>
LayerCount: 2
Fore
SplineSet
168 448 m 1
 168 560 l 1
 616 560 l 1
 616 0 l 1
 504 0 l 1
 504 224 l 1
 168 224 l 1
 168 0 l 1
 56 0 l 1
 56 224 l 1
 168 224 l 1
 168 336 l 1
 56 336 l 1
 56 448 l 1
 168 448 l 1
168 448 m 1
 168 336 l 1
 504 336 l 1
 504 448 l 1
 168 448 l 1
EndSplineSet
Validated: 5
EndChar

StartChar: uni450
Encoding: 1104 1104 261
Width: 672
GlyphClass: 1
Flags: W
HStem: 0 112<168 616> 224 112<168 504> 448 112<168 504> 672 112<392 504> 784 112<280 392>
VStem: 56 112<112 224 336 448> 280 112<784 896> 392 112<672 784> 504 112<336 448>
LayerCount: 2
Fore
SplineSet
280 896 m 1xee
 392 896 l 1xee
 392 784 l 1xf6
 504 784 l 1
 504 672 l 1
 392 672 l 1xf5
 392 784 l 1xf6
 280 784 l 1
 280 896 l 1xee
168 448 m 1
 168 560 l 1
 504 560 l 1
 504 448 l 1
 616 448 l 1
 616 224 l 1
 168 224 l 1
 168 112 l 1
 616 112 l 1
 616 0 l 1xe480
 168 0 l 1
 168 112 l 1
 56 112 l 1
 56 448 l 1
 168 448 l 1
168 448 m 1
 168 336 l 1
 504 336 l 1
 504 448 l 1
 168 448 l 1
EndSplineSet
Validated: 5
EndChar

StartChar: uni451
Encoding: 1105 1105 262
Width: 672
GlyphClass: 1
Flags: W
HStem: 0 112<168 616> 224 112<168 504> 448 112<168 504> 672 112<168 280 392 504>
VStem: 56 112<112 224 336 448> 168 112<672 784> 392 112<672 784> 504 112<336 448>
LayerCount: 2
Fore
SplineSet
168 784 m 1xf4
 280 784 l 1
 280 672 l 1
 168 672 l 1
 168 784 l 1xf4
392 784 m 1xf2
 504 784 l 1
 504 672 l 1
 392 672 l 1
 392 784 l 1xf2
168 448 m 1xf8
 168 560 l 1xf4
 504 560 l 1
 504 448 l 1
 616 448 l 1
 616 224 l 1
 168 224 l 1
 168 112 l 1xf9
 616 112 l 1
 616 0 l 1
 168 0 l 1xf5
 168 112 l 1
 56 112 l 1
 56 448 l 1
 168 448 l 1xf8
168 448 m 1xf9
 168 336 l 1
 504 336 l 1
 504 448 l 1
 168 448 l 1xf9
EndSplineSet
Validated: 5
EndChar

StartChar: uni452
Encoding: 1106 1106 263
Width: 672
GlyphClass: 1
Flags: W
HStem: -112 112<392 504> 0 21G<168 280> 224 112<280 392> 336 112<392 504> 560 112<56 168 280 392> 764 20G<168 280>
VStem: 168 112<0 224 336 560 672 784> 392 112<-112 0 336 448> 504 112<0 336>
LayerCount: 2
Fore
SplineSet
168 784 m 1x6f
 280 784 l 1
 280 672 l 1
 392 672 l 1
 392 560 l 1
 280 560 l 1
 280 336 l 1
 392 336 l 1x6f
 392 448 l 1
 504 448 l 1
 504 336 l 1x1f
 616 336 l 1
 616 0 l 1x5e80
 504 0 l 1
 504 -112 l 1
 392 -112 l 1
 392 0 l 1
 504 0 l 1
 504 336 l 1x9f
 392 336 l 1
 392 224 l 1
 280 224 l 1
 280 0 l 1
 168 0 l 1
 168 560 l 1
 56 560 l 1
 56 672 l 1
 168 672 l 1
 168 784 l 1x6f
EndSplineSet
Validated: 5
EndChar

StartChar: uni453
Encoding: 1107 1107 264
Width: 672
GlyphClass: 1
Flags: W
HStem: 0 21G<168 280> 448 112<280 616> 672 112<280 392> 784 112<392 504>
VStem: 168 112<0 448> 280 112<672 784> 392 112<784 896>
LayerCount: 2
Fore
SplineSet
392 896 m 1xd2
 504 896 l 1
 504 784 l 1xd2
 392 784 l 1
 392 672 l 1
 280 672 l 1
 280 784 l 1
 392 784 l 1xe4
 392 896 l 1xd2
168 560 m 1xc8
 616 560 l 1
 616 448 l 1
 280 448 l 1
 280 0 l 1
 168 0 l 1
 168 560 l 1xc8
EndSplineSet
Validated: 5
EndChar

StartChar: uni454
Encoding: 1108 1108 265
Width: 672
GlyphClass: 1
Flags: W
HStem: 0 112<168 504> 112 112<504 616> 224 112<168 392> 336 112<504 616> 448 112<168 504>
VStem: 56 112<112 224 336 448> 168 336<0 112 448 560> 504 112<112 224 336 448>
LayerCount: 2
Fore
SplineSet
168 560 m 1x4a
 504 560 l 1x4a
 504 448 l 1x12
 616 448 l 1
 616 336 l 1
 504 336 l 1x11
 504 448 l 1x12
 168 448 l 1
 168 336 l 1
 392 336 l 1
 392 224 l 1
 168 224 l 1
 168 112 l 1xac
 504 112 l 1
 504 0 l 1
 168 0 l 1xaa
 168 112 l 1xac
 56 112 l 1
 56 448 l 1
 168 448 l 1x4c
 168 560 l 1x4a
616 112 m 1x41
 504 112 l 1x82
 504 224 l 1
 616 224 l 1
 616 112 l 1x41
EndSplineSet
Validated: 5
EndChar

StartChar: uni455
Encoding: 1109 1109 266
Width: 672
GlyphClass: 1
Flags: W
HStem: 0 112<56 504> 224 112<168 504> 448 112<168 616>
VStem: 56 112<336 448> 504 112<112 224>
CounterMasks: 1 e0
LayerCount: 2
Fore
SplineSet
168 560 m 1
 616 560 l 1
 616 448 l 1
 168 448 l 1
 168 336 l 1
 504 336 l 1
 504 224 l 1
 616 224 l 1
 616 112 l 1
 504 112 l 1
 504 0 l 1
 56 0 l 1
 56 112 l 1
 504 112 l 1
 504 224 l 1
 168 224 l 1
 168 336 l 1
 56 336 l 1
 56 448 l 1
 168 448 l 1
 168 560 l 1
EndSplineSet
Validated: 5
EndChar

StartChar: uni456
Encoding: 1110 1110 267
Width: 672
GlyphClass: 1
Flags: W
HStem: 0 112<168 280 392 504> 448 112<168 280> 672 112<280 392>
VStem: 280 112<112 448 672 784>
LayerCount: 2
Fore
SplineSet
280 784 m 1
 392 784 l 1
 392 672 l 1
 280 672 l 1
 280 784 l 1
168 560 m 1
 392 560 l 1
 392 112 l 1
 504 112 l 1
 504 0 l 1
 168 0 l 1
 168 112 l 1
 280 112 l 1
 280 448 l 1
 168 448 l 1
 168 560 l 1
EndSplineSet
Validated: 1
EndChar

StartChar: uni457
Encoding: 1111 1111 268
Width: 672
GlyphClass: 1
Flags: W
HStem: 0 112<168 280 392 504> 448 112<168 280> 672 112<168 280 392 504>
VStem: 168 112<672 784> 280 112<112 448> 392 112<672 784>
LayerCount: 2
Fore
SplineSet
168 784 m 1xf0
 280 784 l 1
 280 672 l 1
 168 672 l 1
 168 784 l 1xf0
392 784 m 1xe4
 504 784 l 1
 504 672 l 1
 392 672 l 1
 392 784 l 1xe4
168 560 m 1xf0
 392 560 l 1xf4
 392 112 l 1xe8
 504 112 l 1
 504 0 l 1
 168 0 l 1
 168 112 l 1xf4
 280 112 l 1
 280 448 l 1xe8
 168 448 l 1
 168 560 l 1xf0
EndSplineSet
Validated: 1
EndChar

StartChar: uni458
Encoding: 1112 1112 269
Width: 672
GlyphClass: 1
Flags: W
HStem: -112 112<168 392> 0 112<56 168> 448 112<280 392> 672 112<392 504>
VStem: 56 112<0 112> 392 112<0 448 672 784>
LayerCount: 2
Fore
SplineSet
392 784 m 1x3c
 504 784 l 1
 504 672 l 1
 392 672 l 1
 392 784 l 1x3c
280 560 m 1
 504 560 l 1
 504 0 l 1x7c
 392 0 l 1xbc
 392 448 l 1
 280 448 l 1
 280 560 l 1
392 0 m 1xbc
 392 -112 l 1
 168 -112 l 1
 168 0 l 1xbc
 56 0 l 1
 56 112 l 1
 168 112 l 1x7c
 168 0 l 1
 392 0 l 1xbc
EndSplineSet
Validated: 5
EndChar

StartChar: uni459
Encoding: 1113 1113 270
Width: 672
GlyphClass: 1
Flags: W
HStem: 0 112<392 504> 112 112<504 616> 224 112<392 504> 448 112<168 280>
VStem: 56 112<0 448> 280 224<0 112 224 336> 280 112<112 224 336 448> 504 112<112 224>
LayerCount: 2
Fore
SplineSet
392 224 m 1x3a
 392 112 l 1xba
 504 112 l 1
 504 0 l 1
 280 0 l 1xbc
 280 448 l 1
 168 448 l 1
 168 0 l 1
 56 0 l 1
 56 448 l 1
 168 448 l 1
 168 560 l 1
 392 560 l 1
 392 336 l 1xba
 504 336 l 1xbc
 504 224 l 1x5c
 616 224 l 1
 616 112 l 1x59
 504 112 l 1x9c
 504 224 l 1x5c
 392 224 l 1x3a
EndSplineSet
Validated: 5
EndChar

StartChar: uni45A
Encoding: 1114 1114 271
Width: 672
GlyphClass: 1
Flags: W
HStem: 0 112<392 504> 112 112<504 616> 224 112<168 280 392 504> 540 20G<56 168 280 392>
VStem: 56 112<0 224 336 560> 280 112<112 224 336 560> 504 112<112 224>
CounterMasks: 1 0e
LayerCount: 2
Fore
SplineSet
392 224 m 1x3e
 392 112 l 1
 504 112 l 1
 504 0 l 1
 280 0 l 1
 280 224 l 1
 168 224 l 1
 168 0 l 1
 56 0 l 1
 56 560 l 1
 168 560 l 1
 168 336 l 1
 280 336 l 1
 280 560 l 1
 392 560 l 1
 392 336 l 1
 504 336 l 1xbe
 504 224 l 1
 616 224 l 1
 616 112 l 1x5e
 504 112 l 1x9e
 504 224 l 1x5e
 392 224 l 1x3e
EndSplineSet
Validated: 5
EndChar

StartChar: uni45B
Encoding: 1115 1115 272
Width: 672
GlyphClass: 1
Flags: W
HStem: 0 21G<168 280 504 616> 224 112<280 392> 336 112<392 504> 560 112<56 168 280 392> 764 20G<168 280>
VStem: 168 112<0 224 336 560 672 784> 504 112<0 336>
LayerCount: 2
Fore
SplineSet
168 784 m 1xde
 280 784 l 1
 280 672 l 1
 392 672 l 1
 392 560 l 1
 280 560 l 1
 280 336 l 1
 392 336 l 1xde
 392 448 l 1
 504 448 l 1
 504 336 l 1
 616 336 l 1
 616 0 l 1
 504 0 l 1
 504 336 l 1xbe
 392 336 l 1
 392 224 l 1
 280 224 l 1
 280 0 l 1
 168 0 l 1
 168 560 l 1
 56 560 l 1
 56 672 l 1
 168 672 l 1
 168 784 l 1xde
EndSplineSet
Validated: 5
EndChar

StartChar: uni45C
Encoding: 1116 1116 273
Width: 672
GlyphClass: 1
Flags: W
HStem: 0 112<504 616> 112 112<392 504> 224 112<168 392> 336 112<392 504> 448 112<504 616> 672 112<280 392> 784 112<392 504>
VStem: 56 112<0 224 336 560> 280 112<672 784> 392 112<112 224 336 448 784 896> 504 112<0 112 448 560>
LayerCount: 2
Fore
SplineSet
392 896 m 1x0340
 504 896 l 1
 504 784 l 1x0340
 392 784 l 1
 392 672 l 1
 280 672 l 1
 280 784 l 1
 392 784 l 1x0580
 392 896 l 1x0340
504 336 m 1x1140
 392 336 l 1x2140
 392 448 l 1
 504 448 l 1x1140
 504 560 l 1
 616 560 l 1
 616 448 l 1x0920
 504 448 l 1
 504 336 l 1x1140
56 560 m 1xa940
 168 560 l 1
 168 336 l 1
 392 336 l 1xa940
 392 224 l 1
 504 224 l 1x4140
 504 112 l 1x8140
 616 112 l 1
 616 0 l 1
 504 0 l 1x8120
 504 112 l 1x8140
 392 112 l 1
 392 224 l 1x4140
 168 224 l 1
 168 0 l 1
 56 0 l 1
 56 560 l 1xa940
EndSplineSet
Validated: 5
EndChar

StartChar: uni45D
Encoding: 1117 1117 274
Width: 672
GlyphClass: 1
Flags: W
HStem: 0 21G<56 168 504 616> 224 112<280 392> 336 112<392 504> 540 20G<56 168 504 616> 672 112<392 504> 784 112<280 392>
VStem: 56 112<0 112 224 560> 280 112<224 336 784 896> 392 112<672 784> 504 112<0 336 448 560>
LayerCount: 2
Fore
SplineSet
280 896 m 1x97
 392 896 l 1x97
 392 784 l 1x9b
 504 784 l 1
 504 672 l 1
 392 672 l 1x9a80
 392 784 l 1x9b
 280 784 l 1
 280 896 l 1x97
392 336 m 1xd340
 392 224 l 1
 280 224 l 1
 280 336 l 1
 392 336 l 1xd340
 392 448 l 1xb280
 504 448 l 1
 504 560 l 1
 616 560 l 1
 616 0 l 1
 504 0 l 1
 504 336 l 1xb240
 392 336 l 1xd340
56 560 m 1
 168 560 l 1
 168 224 l 1
 280 224 l 1
 280 112 l 1
 168 112 l 1
 168 0 l 1
 56 0 l 1
 56 560 l 1
EndSplineSet
Validated: 5
EndChar

StartChar: uni45E
Encoding: 1118 1118 275
Width: 672
GlyphClass: 1
Flags: W
HStem: -224 112<168 280> 112 224<168 280 392 504> 336 224<56 168 504 616> 672 112<280 392> 784 112<168 280 392 504>
VStem: 56 112<336 560> 168 112<-224 -112 112 336 784 896> 280 112<-112 112 672 784> 392 112<112 336 784 896> 504 112<336 560>
LayerCount: 2
Fore
SplineSet
504 784 m 1x8880
 392 784 l 1x91
 392 896 l 1
 504 896 l 1
 504 784 l 1x8880
168 896 m 1x8a
 280 896 l 1x8a
 280 784 l 1x92
 392 784 l 1
 392 672 l 1
 280 672 l 1x91
 280 784 l 1x92
 168 784 l 1
 168 896 l 1x8a
504 112 m 1xc080
 392 112 l 1xc1
 392 336 l 1
 504 336 l 1xc080
 504 560 l 1
 616 560 l 1
 616 336 l 1xa040
 504 336 l 1
 504 112 l 1xc080
56 560 m 1xa4
 168 560 l 1xa4
 168 336 l 1xc4
 280 336 l 1
 280 112 l 1xc2
 392 112 l 1
 392 -112 l 1xc1
 280 -112 l 1
 280 -224 l 1
 168 -224 l 1
 168 -112 l 1
 280 -112 l 1
 280 112 l 1
 168 112 l 1xc2
 168 336 l 1xc4
 56 336 l 1
 56 560 l 1xa4
EndSplineSet
Validated: 5
EndChar

StartChar: uni45F
Encoding: 1119 1119 276
Width: 672
GlyphClass: 1
Flags: W
HStem: -112 21G<280 392> 0 112<168 280 392 504> 540 20G<56 168 504 616>
VStem: 56 112<112 560> 280 112<-112 0> 504 112<112 560>
CounterMasks: 1 1c
LayerCount: 2
Fore
SplineSet
56 560 m 1
 168 560 l 1
 168 112 l 1
 504 112 l 1
 504 560 l 1
 616 560 l 1
 616 0 l 1
 392 0 l 1
 392 -112 l 1
 280 -112 l 1
 280 0 l 1
 56 0 l 1
 56 560 l 1
EndSplineSet
Validated: 1
EndChar

StartChar: uni1FB00
Encoding: 129792 129792 277
Width: 672
GlyphClass: 1
Flags: W
HStem: 672 448<56 392>
VStem: 56 336<672 1120>
LayerCount: 2
Fore
SplineSet
56 1120 m 1
 392 1120 l 1
 392 672 l 1
 56 672 l 1
 56 1120 l 1
EndSplineSet
Validated: 1
EndChar

StartChar: uni1FB01
Encoding: 129793 129793 278
Width: 672
GlyphClass: 1
Flags: W
HStem: 672 448<392 728>
VStem: 392 336<672 1120>
LayerCount: 2
Fore
SplineSet
392 1120 m 1
 728 1120 l 1
 728 672 l 1
 392 672 l 1
 392 1120 l 1
EndSplineSet
Validated: 1
EndChar

StartChar: uni1FB02
Encoding: 129794 129794 279
Width: 672
GlyphClass: 1
Flags: W
HStem: 672 448<56 728>
LayerCount: 2
Fore
SplineSet
56 1120 m 1
 728 1120 l 1
 728 672 l 1
 56 672 l 1
 56 1120 l 1
EndSplineSet
Validated: 1
EndChar

StartChar: uni1FB03
Encoding: 129795 129795 280
Width: 672
GlyphClass: 1
Flags: W
HStem: 224 448<56 392>
VStem: 56 336<224 672>
LayerCount: 2
Fore
SplineSet
56 672 m 1
 392 672 l 1
 392 224 l 1
 56 224 l 1
 56 672 l 1
EndSplineSet
Validated: 1
EndChar

StartChar: uni1FB04
Encoding: 129796 129796 281
Width: 672
GlyphClass: 1
Flags: W
VStem: 56 336<224 1120>
LayerCount: 2
Fore
SplineSet
56 1120 m 1
 392 1120 l 1
 392 224 l 1
 56 224 l 1
 56 1120 l 1
EndSplineSet
Validated: 1
EndChar

StartChar: uni1FB05
Encoding: 129797 129797 282
Width: 672
GlyphClass: 1
Flags: W
HStem: 224 448<56 392> 672 448<392 728>
VStem: 56 336<224 672> 392 336<672 1120>
LayerCount: 2
Fore
SplineSet
392 1120 m 1x50
 728 1120 l 1
 728 672 l 1x50
 392 672 l 1
 392 224 l 1
 56 224 l 1
 56 672 l 1
 392 672 l 1xa0
 392 1120 l 1x50
EndSplineSet
Validated: 5
EndChar

StartChar: uni1FB06
Encoding: 129798 129798 283
Width: 672
GlyphClass: 1
Flags: W
HStem: 672 448<392 728>
VStem: 56 336<224 672>
LayerCount: 2
Fore
SplineSet
56 1120 m 1
 728 1120 l 1
 728 672 l 1
 392 672 l 1
 392 224 l 1
 56 224 l 1
 56 1120 l 1
EndSplineSet
Validated: 1
EndChar

StartChar: uni1FB07
Encoding: 129799 129799 284
Width: 672
GlyphClass: 1
Flags: W
HStem: 224 448<392 728>
VStem: 392 336<224 672>
LayerCount: 2
Fore
SplineSet
392 672 m 1
 728 672 l 1
 728 224 l 1
 392 224 l 1
 392 672 l 1
EndSplineSet
Validated: 1
EndChar

StartChar: uni1FB08
Encoding: 129800 129800 285
Width: 672
GlyphClass: 1
Flags: W
HStem: 224 448<392 728> 672 448<56 392>
VStem: 56 336<672 1120> 392 336<224 672>
LayerCount: 2
Fore
SplineSet
56 1120 m 1x60
 392 1120 l 1x60
 392 672 l 1xa0
 728 672 l 1
 728 224 l 1
 392 224 l 1x90
 392 672 l 1xa0
 56 672 l 1
 56 1120 l 1x60
EndSplineSet
Validated: 5
EndChar

StartChar: uni1FB09
Encoding: 129801 129801 286
Width: 672
GlyphClass: 1
Flags: W
VStem: 392 336<224 1120>
LayerCount: 2
Fore
SplineSet
392 1120 m 1
 728 1120 l 1
 728 224 l 1
 392 224 l 1
 392 1120 l 1
EndSplineSet
Validated: 1
EndChar

StartChar: uni1FB0A
Encoding: 129802 129802 287
Width: 672
GlyphClass: 1
Flags: W
HStem: 672 448<56 392>
VStem: 392 336<224 672>
LayerCount: 2
Fore
SplineSet
56 1120 m 1
 728 1120 l 1
 728 224 l 1
 392 224 l 1
 392 672 l 1
 56 672 l 1
 56 1120 l 1
EndSplineSet
Validated: 1
EndChar

StartChar: uni1FB0B
Encoding: 129803 129803 288
Width: 672
GlyphClass: 1
Flags: W
HStem: 224 448<56 728>
LayerCount: 2
Fore
SplineSet
56 672 m 1
 728 672 l 1
 728 224 l 1
 56 224 l 1
 56 672 l 1
EndSplineSet
Validated: 1
EndChar

StartChar: uni1FB0C
Encoding: 129804 129804 289
Width: 672
GlyphClass: 1
Flags: W
HStem: 224 448<392 728>
VStem: 56 336<672 1120>
LayerCount: 2
Fore
SplineSet
56 1120 m 1
 392 1120 l 1
 392 672 l 1
 728 672 l 1
 728 224 l 1
 56 224 l 1
 56 1120 l 1
EndSplineSet
Validated: 1
EndChar

StartChar: uni1FB0D
Encoding: 129805 129805 290
Width: 672
GlyphClass: 1
Flags: W
HStem: 224 448<56 392>
VStem: 392 336<672 1120>
LayerCount: 2
Fore
SplineSet
392 1120 m 1
 728 1120 l 1
 728 224 l 1
 56 224 l 1
 56 672 l 1
 392 672 l 1
 392 1120 l 1
EndSplineSet
Validated: 1
EndChar

StartChar: uni1FB0E
Encoding: 129806 129806 291
Width: 672
GlyphClass: 1
Flags: W
VStem: 56 672<224 1120>
LayerCount: 2
Fore
SplineSet
56 1120 m 1
 728 1120 l 1
 728 224 l 1
 56 224 l 1
 56 1120 l 1
EndSplineSet
Validated: 1
EndChar

StartChar: uni1FB0F
Encoding: 129807 129807 292
Width: 672
GlyphClass: 1
Flags: W
HStem: -224 448<56 392>
VStem: 56 336<-224 224>
LayerCount: 2
Fore
SplineSet
56 224 m 1
 392 224 l 1
 392 -224 l 1
 56 -224 l 1
 56 224 l 1
EndSplineSet
Validated: 1
EndChar

StartChar: uni1FB10
Encoding: 129808 129808 293
Width: 672
GlyphClass: 1
Flags: W
HStem: -224 448<56 392> 672 448<56 392>
VStem: 56 336<-224 224 672 1120>
LayerCount: 2
Fore
SplineSet
56 1120 m 1
 392 1120 l 1
 392 672 l 1
 56 672 l 1
 56 1120 l 1
56 224 m 1
 392 224 l 1
 392 -224 l 1
 56 -224 l 1
 56 224 l 1
EndSplineSet
Validated: 1
EndChar

StartChar: uni1FB11
Encoding: 129809 129809 294
Width: 672
GlyphClass: 1
Flags: W
HStem: -224 448<56 392> 672 448<392 728>
VStem: 56 336<-224 224> 392 336<672 1120>
LayerCount: 2
Fore
SplineSet
392 1120 m 1xd0
 728 1120 l 1
 728 672 l 1
 392 672 l 1
 392 1120 l 1xd0
56 224 m 1xe0
 392 224 l 1
 392 -224 l 1
 56 -224 l 1
 56 224 l 1xe0
EndSplineSet
Validated: 1
EndChar

StartChar: uni1FB12
Encoding: 129810 129810 295
Width: 672
GlyphClass: 1
Flags: W
HStem: -224 448<56 392> 672 448<56 728>
VStem: 56 336<-224 224>
LayerCount: 2
Fore
SplineSet
56 1120 m 1
 728 1120 l 1
 728 672 l 1
 56 672 l 1
 56 1120 l 1
56 224 m 1
 392 224 l 1
 392 -224 l 1
 56 -224 l 1
 56 224 l 1
EndSplineSet
Validated: 1
EndChar

StartChar: uni1FB13
Encoding: 129811 129811 296
Width: 672
GlyphClass: 1
Flags: W
VStem: 56 336<-224 672>
LayerCount: 2
Fore
SplineSet
56 672 m 1
 392 672 l 1
 392 -224 l 1
 56 -224 l 1
 56 672 l 1
EndSplineSet
Validated: 1
EndChar

StartChar: uni1FB14
Encoding: 129812 129812 297
Width: 672
GlyphClass: 1
Flags: W
HStem: 672 448<392 728>
VStem: 56 336<-224 672> 392 336<672 1120>
LayerCount: 2
Fore
SplineSet
392 1120 m 1xa0
 728 1120 l 1
 728 672 l 1xa0
 392 672 l 1
 392 -224 l 1
 56 -224 l 1
 56 672 l 1
 392 672 l 1xc0
 392 1120 l 1xa0
EndSplineSet
Validated: 5
EndChar

StartChar: uni1FB15
Encoding: 129813 129813 298
Width: 672
GlyphClass: 1
Flags: W
HStem: 672 448<392 728>
VStem: 56 336<-224 672>
LayerCount: 2
Fore
SplineSet
56 1120 m 1
 728 1120 l 1
 728 672 l 1
 392 672 l 1
 392 -224 l 1
 56 -224 l 1
 56 1120 l 1
EndSplineSet
Validated: 1
EndChar

StartChar: uni1FB16
Encoding: 129814 129814 299
Width: 672
GlyphClass: 1
Flags: W
HStem: -224 448<56 392> 224 448<392 728>
VStem: 56 336<-224 224> 392 336<224 672>
LayerCount: 2
Fore
SplineSet
392 672 m 1x50
 728 672 l 1
 728 224 l 1x50
 392 224 l 1
 392 -224 l 1
 56 -224 l 1
 56 224 l 1
 392 224 l 1xa0
 392 672 l 1x50
EndSplineSet
Validated: 5
EndChar

StartChar: uni1FB17
Encoding: 129815 129815 300
Width: 672
GlyphClass: 1
Flags: W
HStem: -224 448<56 392> 672 448<56 392>
VStem: 56 336<-224 224 672 1120> 392 336<224 672>
LayerCount: 2
Fore
SplineSet
56 1120 m 1xe0
 392 1120 l 1
 392 672 l 1xe0
 728 672 l 1
 728 224 l 1xd0
 392 224 l 1
 392 -224 l 1
 56 -224 l 1
 56 224 l 1
 392 224 l 1
 392 672 l 1
 56 672 l 1
 56 1120 l 1xe0
EndSplineSet
Validated: 5
EndChar

StartChar: uni1FB18
Encoding: 129816 129816 301
Width: 672
GlyphClass: 1
Flags: W
HStem: -224 448<56 392>
VStem: 56 336<-224 224> 392 336<224 1120>
LayerCount: 2
Fore
SplineSet
392 1120 m 1xa0
 728 1120 l 1
 728 224 l 1xa0
 392 224 l 1
 392 -224 l 1
 56 -224 l 1
 56 224 l 1
 392 224 l 1xc0
 392 1120 l 1xa0
EndSplineSet
Validated: 5
EndChar

StartChar: uni1FB19
Encoding: 129817 129817 302
Width: 672
GlyphClass: 1
Flags: W
HStem: -224 448<56 392>
VStem: 56 336<-224 224> 168 560<672 1120> 392 336<224 672>
LayerCount: 2
Fore
SplineSet
168 1120 m 1xa0
 728 1120 l 1xa0
 728 224 l 1x90
 392 224 l 1
 392 -224 l 1
 56 -224 l 1
 56 224 l 1
 392 224 l 1xc0
 392 672 l 1x90
 168 672 l 1
 168 1120 l 1xa0
EndSplineSet
Validated: 5
EndChar

StartChar: uni1FB1A
Encoding: 129818 129818 303
Width: 672
GlyphClass: 1
Flags: W
HStem: 224 448<392 728>
VStem: 56 336<-224 224>
LayerCount: 2
Fore
SplineSet
56 672 m 1
 728 672 l 1
 728 224 l 1
 392 224 l 1
 392 -224 l 1
 56 -224 l 1
 56 672 l 1
EndSplineSet
Validated: 1
EndChar

StartChar: uni1FB1B
Encoding: 129819 129819 304
Width: 672
GlyphClass: 1
Flags: W
HStem: 224 448<392 728>
VStem: 56 336<-224 224 672 1120>
LayerCount: 2
Fore
SplineSet
56 1120 m 1
 392 1120 l 1
 392 672 l 1
 728 672 l 1
 728 224 l 1
 392 224 l 1
 392 -224 l 1
 56 -224 l 1
 56 1120 l 1
EndSplineSet
Validated: 1
EndChar

StartChar: uni1FB1C
Encoding: 129820 129820 305
Width: 672
GlyphClass: 1
Flags: W
VStem: 56 336<-224 224> 392 336<672 1120>
LayerCount: 2
Fore
SplineSet
392 1120 m 1x40
 728 1120 l 1
 728 224 l 1x40
 392 224 l 1
 392 -224 l 1
 56 -224 l 1
 56 672 l 1x80
 392 672 l 1
 392 1120 l 1x40
EndSplineSet
Validated: 1
EndChar

StartChar: uni1FB1D
Encoding: 129821 129821 306
Width: 672
GlyphClass: 1
Flags: W
VStem: 56 672<224 1120> 56 336<-224 224>
LayerCount: 2
Fore
SplineSet
56 1120 m 1x80
 728 1120 l 1
 728 224 l 1x80
 392 224 l 1
 392 -224 l 1
 56 -224 l 1x40
 56 1120 l 1x80
EndSplineSet
Validated: 1
EndChar

StartChar: uni1FB1E
Encoding: 129822 129822 307
Width: 672
GlyphClass: 1
Flags: W
HStem: -224 448<392 728>
VStem: 392 336<-224 224>
LayerCount: 2
Fore
SplineSet
392 224 m 1
 728 224 l 1
 728 -224 l 1
 392 -224 l 1
 392 224 l 1
EndSplineSet
Validated: 1
EndChar

StartChar: uni1FB1F
Encoding: 129823 129823 308
Width: 672
GlyphClass: 1
Flags: W
HStem: -224 448<392 728> 672 448<56 392>
VStem: 56 336<672 1120> 392 336<-224 224>
LayerCount: 2
Fore
SplineSet
56 1120 m 1xe0
 392 1120 l 1
 392 672 l 1
 56 672 l 1
 56 1120 l 1xe0
392 224 m 1xd0
 728 224 l 1
 728 -224 l 1
 392 -224 l 1
 392 224 l 1xd0
EndSplineSet
Validated: 1
EndChar

StartChar: uni1FB20
Encoding: 129824 129824 309
Width: 672
GlyphClass: 1
Flags: W
HStem: -224 448<392 728> 672 448<392 728>
VStem: 392 336<-224 224 672 1120>
LayerCount: 2
Fore
SplineSet
392 1120 m 1
 728 1120 l 1
 728 672 l 1
 392 672 l 1
 392 1120 l 1
392 224 m 1
 728 224 l 1
 728 -224 l 1
 392 -224 l 1
 392 224 l 1
EndSplineSet
Validated: 1
EndChar

StartChar: uni1FB21
Encoding: 129825 129825 310
Width: 672
GlyphClass: 1
Flags: W
HStem: -224 448<392 728> 672 448<56 728>
VStem: 392 336<-224 224>
LayerCount: 2
Fore
SplineSet
56 1120 m 1
 728 1120 l 1
 728 672 l 1
 56 672 l 1
 56 1120 l 1
392 224 m 1
 728 224 l 1
 728 -224 l 1
 392 -224 l 1
 392 224 l 1
EndSplineSet
Validated: 1
EndChar

StartChar: uni1FB22
Encoding: 129826 129826 311
Width: 672
GlyphClass: 1
Flags: W
HStem: -224 448<392 728> 224 448<56 392>
VStem: 56 336<224 672> 392 336<-224 224>
LayerCount: 2
Fore
SplineSet
56 672 m 1x60
 392 672 l 1x60
 392 224 l 1xa0
 728 224 l 1
 728 -224 l 1
 392 -224 l 1x90
 392 224 l 1xa0
 56 224 l 1
 56 672 l 1x60
EndSplineSet
Validated: 5
EndChar

StartChar: uni1FB23
Encoding: 129827 129827 312
Width: 672
GlyphClass: 1
Flags: W
HStem: -224 448<392 728>
VStem: 56 336<224 1120> 392 336<-224 224>
LayerCount: 2
Fore
SplineSet
56 1120 m 1xc0
 392 1120 l 1
 392 224 l 1xc0
 728 224 l 1
 728 -224 l 1
 392 -224 l 1xa0
 392 224 l 1
 56 224 l 1
 56 1120 l 1xc0
EndSplineSet
Validated: 5
EndChar

StartChar: uni1FB24
Encoding: 129828 129828 313
Width: 672
GlyphClass: 1
Flags: W
HStem: -224 448<392 728> 672 448<392 728>
VStem: 56 336<224 672> 392 336<-224 224 672 1120>
LayerCount: 2
Fore
SplineSet
392 1120 m 1xd0
 728 1120 l 1
 728 672 l 1xd0
 392 672 l 1
 392 224 l 1xe0
 728 224 l 1
 728 -224 l 1
 392 -224 l 1xd0
 392 224 l 1
 56 224 l 1
 56 672 l 1
 392 672 l 1xe0
 392 1120 l 1xd0
EndSplineSet
Validated: 5
EndChar

StartChar: uni1FB25
Encoding: 129829 129829 314
Width: 672
GlyphClass: 1
Flags: W
HStem: -224 448<392 728> 672 448<392 728>
VStem: 56 336<224 672> 392 336<-224 224>
LayerCount: 2
Fore
SplineSet
56 1120 m 1xe0
 728 1120 l 1
 728 672 l 1xd0
 392 672 l 1
 392 224 l 1xe0
 728 224 l 1
 728 -224 l 1
 392 -224 l 1xd0
 392 224 l 1
 56 224 l 1
 56 1120 l 1xe0
EndSplineSet
Validated: 5
EndChar

StartChar: uni1FB26
Encoding: 129830 129830 315
Width: 672
GlyphClass: 1
Flags: W
VStem: 392 336<-224 672>
LayerCount: 2
Fore
SplineSet
392 672 m 1
 728 672 l 1
 728 -224 l 1
 392 -224 l 1
 392 672 l 1
EndSplineSet
Validated: 1
EndChar

StartChar: uni1FB27
Encoding: 129831 129831 316
Width: 672
GlyphClass: 1
Flags: W
HStem: 672 448<56 392>
VStem: 56 336<672 1120> 392 336<-224 672>
LayerCount: 2
Fore
SplineSet
56 1120 m 1xc0
 392 1120 l 1
 392 672 l 1xc0
 728 672 l 1
 728 -224 l 1
 392 -224 l 1xa0
 392 672 l 1
 56 672 l 1
 56 1120 l 1xc0
EndSplineSet
Validated: 5
EndChar

StartChar: uni1FB28
Encoding: 129832 129832 317
Width: 672
GlyphClass: 1
Flags: W
HStem: 672 448<56 392>
VStem: 392 336<-224 672>
LayerCount: 2
Fore
SplineSet
56 1120 m 1
 728 1120 l 1
 728 -224 l 1
 392 -224 l 1
 392 672 l 1
 56 672 l 1
 56 1120 l 1
EndSplineSet
Validated: 1
EndChar

StartChar: uni1FB29
Encoding: 129833 129833 318
Width: 672
GlyphClass: 1
Flags: W
HStem: 224 448<56 392>
VStem: 392 336<-224 224>
LayerCount: 2
Fore
SplineSet
56 672 m 1
 728 672 l 1
 728 -224 l 1
 392 -224 l 1
 392 224 l 1
 56 224 l 1
 56 672 l 1
EndSplineSet
Validated: 1
EndChar

StartChar: uni1FB2A
Encoding: 129834 129834 319
Width: 672
GlyphClass: 1
Flags: W
VStem: 56 336<672 1120> 392 336<-224 224>
LayerCount: 2
Fore
SplineSet
56 1120 m 1x80
 392 1120 l 1
 392 672 l 1x80
 728 672 l 1
 728 -224 l 1
 392 -224 l 1
 392 224 l 1x40
 56 224 l 1
 56 1120 l 1x80
EndSplineSet
Validated: 1
EndChar

StartChar: uni1FB2B
Encoding: 129835 129835 320
Width: 672
GlyphClass: 1
Flags: W
HStem: 224 448<56 392>
VStem: 392 336<-224 224 672 1120>
LayerCount: 2
Fore
SplineSet
392 1120 m 1
 728 1120 l 1
 728 -224 l 1
 392 -224 l 1
 392 224 l 1
 56 224 l 1
 56 672 l 1
 392 672 l 1
 392 1120 l 1
EndSplineSet
Validated: 1
EndChar

StartChar: uni1FB2C
Encoding: 129836 129836 321
Width: 672
GlyphClass: 1
Flags: W
VStem: 56 672<224 1120> 392 336<-224 224>
LayerCount: 2
Fore
SplineSet
56 1120 m 1x80
 728 1120 l 1x80
 728 -224 l 1
 392 -224 l 1
 392 224 l 1x40
 56 224 l 1
 56 1120 l 1x80
EndSplineSet
Validated: 1
EndChar

StartChar: uni1FB2D
Encoding: 129837 129837 322
Width: 672
GlyphClass: 1
Flags: W
HStem: -224 448<56 728>
LayerCount: 2
Fore
SplineSet
56 224 m 1
 728 224 l 1
 728 -224 l 1
 56 -224 l 1
 56 224 l 1
EndSplineSet
Validated: 1
EndChar

StartChar: uni1FB2E
Encoding: 129838 129838 323
Width: 672
GlyphClass: 1
Flags: W
HStem: -224 448<56 728> 672 448<56 392>
VStem: 56 336<672 1120>
LayerCount: 2
Fore
SplineSet
56 1120 m 1
 392 1120 l 1
 392 672 l 1
 56 672 l 1
 56 1120 l 1
56 224 m 1
 728 224 l 1
 728 -224 l 1
 56 -224 l 1
 56 224 l 1
EndSplineSet
Validated: 1
EndChar

StartChar: uni1FB2F
Encoding: 129839 129839 324
Width: 672
GlyphClass: 1
Flags: W
HStem: -224 448<56 728> 672 448<392 728>
VStem: 392 336<672 1120>
LayerCount: 2
Fore
SplineSet
392 1120 m 1
 728 1120 l 1
 728 672 l 1
 392 672 l 1
 392 1120 l 1
56 224 m 1
 728 224 l 1
 728 -224 l 1
 56 -224 l 1
 56 224 l 1
EndSplineSet
Validated: 1
EndChar

StartChar: uni1FB30
Encoding: 129840 129840 325
Width: 672
GlyphClass: 1
Flags: W
HStem: -224 448<56 728> 672 448<56 728>
VStem: 56 672<-224 224 672 1120>
LayerCount: 2
Fore
SplineSet
56 1120 m 1
 728 1120 l 1
 728 672 l 1
 56 672 l 1
 56 1120 l 1
56 224 m 1
 728 224 l 1
 728 -224 l 1
 56 -224 l 1
 56 224 l 1
EndSplineSet
Validated: 1
EndChar

StartChar: uni1FB31
Encoding: 129841 129841 326
Width: 672
GlyphClass: 1
Flags: W
HStem: -224 448<392 728>
VStem: 56 336<224 672>
LayerCount: 2
Fore
SplineSet
56 672 m 1
 392 672 l 1
 392 224 l 1
 728 224 l 1
 728 -224 l 1
 56 -224 l 1
 56 672 l 1
EndSplineSet
Validated: 1
EndChar

StartChar: uni1FB32
Encoding: 129842 129842 327
Width: 672
GlyphClass: 1
Flags: W
HStem: -224 448<392 728>
VStem: 56 336<224 1120>
LayerCount: 2
Fore
SplineSet
56 1120 m 1
 392 1120 l 1
 392 224 l 1
 728 224 l 1
 728 -224 l 1
 56 -224 l 1
 56 1120 l 1
EndSplineSet
Validated: 1
EndChar

StartChar: uni1FB33
Encoding: 129843 129843 328
Width: 672
GlyphClass: 1
Flags: W
HStem: -224 448<392 728> 672 448<392 728>
VStem: 56 336<224 672> 392 336<672 1120>
LayerCount: 2
Fore
SplineSet
392 1120 m 1xd0
 728 1120 l 1
 728 672 l 1xd0
 392 672 l 1
 392 224 l 1xe0
 728 224 l 1
 728 -224 l 1xd0
 56 -224 l 1
 56 672 l 1
 392 672 l 1xe0
 392 1120 l 1xd0
EndSplineSet
Validated: 5
EndChar

StartChar: uni1FB34
Encoding: 129844 129844 329
Width: 672
GlyphClass: 1
Flags: W
HStem: -224 448<392 728> 672 448<392 728>
VStem: 56 672<-224 224 672 1120> 56 336<224 672>
LayerCount: 2
Fore
SplineSet
56 1120 m 1xe0
 728 1120 l 1
 728 672 l 1xe0
 392 672 l 1
 392 224 l 1xd0
 728 224 l 1
 728 -224 l 1
 56 -224 l 1
 56 1120 l 1xe0
EndSplineSet
Validated: 1
EndChar

StartChar: uni1FB35
Encoding: 129845 129845 330
Width: 672
GlyphClass: 1
Flags: W
HStem: -224 448<56 392>
VStem: 392 336<224 672>
LayerCount: 2
Fore
SplineSet
392 672 m 1
 728 672 l 1
 728 -224 l 1
 56 -224 l 1
 56 224 l 1
 392 224 l 1
 392 672 l 1
EndSplineSet
Validated: 1
EndChar

StartChar: uni1FB36
Encoding: 129846 129846 331
Width: 672
GlyphClass: 1
Flags: W
HStem: -224 448<56 392> 672 448<56 392>
VStem: 56 336<672 1120> 392 336<224 672>
LayerCount: 2
Fore
SplineSet
56 1120 m 1xe0
 392 1120 l 1
 392 672 l 1xe0
 728 672 l 1
 728 -224 l 1xd0
 56 -224 l 1
 56 224 l 1xe0
 392 224 l 1xd0
 392 672 l 1
 56 672 l 1
 56 1120 l 1xe0
EndSplineSet
Validated: 5
EndChar

StartChar: uni1FB37
Encoding: 129847 129847 332
Width: 672
GlyphClass: 1
Flags: W
HStem: -224 448<56 392>
VStem: 392 336<224 1120>
LayerCount: 2
Fore
SplineSet
392 1120 m 1
 728 1120 l 1
 728 -224 l 1
 56 -224 l 1
 56 224 l 1
 392 224 l 1
 392 1120 l 1
EndSplineSet
Validated: 1
EndChar

StartChar: uni1FB38
Encoding: 129848 129848 333
Width: 672
GlyphClass: 1
Flags: W
HStem: -224 448<56 392> 672 448<56 392>
VStem: 56 672<-224 224 672 1120> 392 336<224 672>
LayerCount: 2
Fore
SplineSet
56 1120 m 1xe0
 728 1120 l 1
 728 -224 l 1
 56 -224 l 1
 56 224 l 1xe0
 392 224 l 1
 392 672 l 1xd0
 56 672 l 1
 56 1120 l 1xe0
EndSplineSet
Validated: 1
EndChar

StartChar: uni1FB39
Encoding: 129849 129849 334
Width: 672
GlyphClass: 1
Flags: W
VStem: 56 672<-224 672>
LayerCount: 2
Fore
SplineSet
56 672 m 1
 728 672 l 1
 728 -224 l 1
 56 -224 l 1
 56 672 l 1
EndSplineSet
Validated: 1
EndChar

StartChar: uni1FB3A
Encoding: 129850 129850 335
Width: 672
GlyphClass: 1
Flags: W
VStem: 56 672<-224 672> 56 336<672 1120>
LayerCount: 2
Fore
SplineSet
56 1120 m 1x40
 392 1120 l 1
 392 672 l 1x40
 728 672 l 1
 728 -224 l 1
 56 -224 l 1x80
 56 1120 l 1x40
EndSplineSet
Validated: 1
EndChar

StartChar: uni1FB3B
Encoding: 129851 129851 336
Width: 672
GlyphClass: 1
Flags: W
VStem: 56 672<-224 672> 392 336<672 1120>
LayerCount: 2
Fore
SplineSet
392 1120 m 1x40
 728 1120 l 1x40
 728 -224 l 1
 56 -224 l 1
 56 672 l 1x80
 392 672 l 1
 392 1120 l 1x40
EndSplineSet
Validated: 1
EndChar

StartChar: uni1FB3C
Encoding: 129852 129852 337
Width: 672
GlyphClass: 1
Flags: W
HStem: -224 112<280 392>
VStem: 56 112<0 224>
LayerCount: 2
Fore
SplineSet
56 224 m 1
 168 224 l 1
 168 0 l 1
 280 0 l 1
 280 -112 l 1
 392 -112 l 1
 392 -224 l 1
 56 -224 l 1
 56 224 l 1
EndSplineSet
Validated: 1
EndChar

StartChar: uni1FB3D
Encoding: 129853 129853 338
Width: 672
GlyphClass: 1
Flags: W
HStem: -224 224<280 504> -224 112<504 728>
VStem: 56 112<112 224>
LayerCount: 2
Fore
SplineSet
56 224 m 1x60
 168 224 l 1
 168 112 l 1
 280 112 l 1
 280 0 l 1
 504 0 l 1xa0
 504 -112 l 1
 728 -112 l 1
 728 -224 l 1
 56 -224 l 1
 56 224 l 1x60
EndSplineSet
Validated: 1
EndChar

StartChar: uni1FB3E
Encoding: 129854 129854 339
Width: 672
GlyphClass: 1
Flags: W
VStem: 56 336<-224 0> 56 224<0 336> 56 112<336 672>
LayerCount: 2
Fore
SplineSet
56 672 m 1x20
 168 672 l 1
 168 336 l 1x20
 280 336 l 1
 280 0 l 1x40
 392 0 l 1
 392 -224 l 1
 56 -224 l 1x80
 56 672 l 1x20
EndSplineSet
Validated: 1
EndChar

StartChar: uni1FB3F
Encoding: 129855 129855 340
Width: 672
GlyphClass: 1
Flags: W
HStem: -224 112<616 728>
VStem: 56 224<224 448> 56 112<448 672>
LayerCount: 2
Fore
SplineSet
56 672 m 1xa0
 168 672 l 1
 168 448 l 1xa0
 280 448 l 1
 280 224 l 1xc0
 392 224 l 1
 392 112 l 1
 504 112 l 1
 504 0 l 1
 616 0 l 1
 616 -112 l 1
 728 -112 l 1
 728 -224 l 1
 56 -224 l 1
 56 672 l 1xa0
EndSplineSet
Validated: 1
EndChar

StartChar: uni1FB40
Encoding: 129856 129856 341
Width: 672
GlyphClass: 1
Flags: W
VStem: 56 336<-224 224> 56 224<224 672> 56 112<672 1120>
LayerCount: 2
Fore
SplineSet
56 1120 m 1x20
 168 1120 l 1
 168 672 l 1x20
 280 672 l 1
 280 224 l 1x40
 392 224 l 1
 392 -224 l 1
 56 -224 l 1x80
 56 1120 l 1x20
EndSplineSet
Validated: 1
EndChar

StartChar: uni1FB41
Encoding: 129857 129857 342
Width: 672
GlyphClass: 1
Flags: W
VStem: 56 672<-224 784>
LayerCount: 2
Fore
SplineSet
392 1120 m 1
 728 1120 l 1
 728 -224 l 1
 56 -224 l 1
 56 784 l 1
 168 784 l 1
 168 896 l 1
 280 896 l 1
 280 1008 l 1
 392 1008 l 1
 392 1120 l 1
EndSplineSet
Validated: 1
EndChar

StartChar: uni1FB42
Encoding: 129858 129858 343
Width: 672
GlyphClass: 1
Flags: W
VStem: 56 672<-224 672> 616 112<1008 1120>
LayerCount: 2
Fore
SplineSet
616 1120 m 1x40
 728 1120 l 1x40
 728 -224 l 1
 56 -224 l 1
 56 672 l 1x80
 168 672 l 1
 168 784 l 1
 392 784 l 1
 392 896 l 1
 504 896 l 1
 504 1008 l 1
 616 1008 l 1
 616 1120 l 1x40
EndSplineSet
Validated: 1
EndChar

StartChar: uni1FB43
Encoding: 129859 129859 344
Width: 672
GlyphClass: 1
Flags: W
VStem: 280 448<560 896> 392 336<896 1120>
LayerCount: 2
Fore
SplineSet
392 1120 m 1x40
 728 1120 l 1
 728 -224 l 1x40
 56 -224 l 1
 56 224 l 1
 168 224 l 1
 168 560 l 1
 280 560 l 1
 280 896 l 1x80
 392 896 l 1
 392 1120 l 1x40
EndSplineSet
Validated: 1
EndChar

StartChar: uni1FB44
Encoding: 129860 129860 345
Width: 672
GlyphClass: 1
Flags: W
VStem: 392 336<560 784> 616 112<896 1120>
LayerCount: 2
Fore
SplineSet
616 1120 m 1x40
 728 1120 l 1
 728 -224 l 1x40
 56 -224 l 1
 56 224 l 1
 168 224 l 1
 168 448 l 1
 280 448 l 1
 280 560 l 1
 392 560 l 1
 392 784 l 1x80
 504 784 l 1
 504 896 l 1
 616 896 l 1
 616 1120 l 1x40
EndSplineSet
Validated: 1
EndChar

StartChar: uni1FB45
Encoding: 129861 129861 346
Width: 672
GlyphClass: 1
Flags: W
VStem: 280 448<448 784> 392 336<784 1120>
LayerCount: 2
Fore
SplineSet
392 1120 m 1x40
 728 1120 l 1
 728 -224 l 1x40
 56 -224 l 1
 56 112 l 1
 168 112 l 1
 168 448 l 1
 280 448 l 1
 280 784 l 1x80
 392 784 l 1
 392 1120 l 1x40
EndSplineSet
Validated: 1
EndChar

StartChar: uni1FB46
Encoding: 129862 129862 347
Width: 672
GlyphClass: 1
Flags: W
VStem: 616 112<560 672>
LayerCount: 2
Fore
SplineSet
616 672 m 1
 728 672 l 1
 728 -224 l 1
 56 -224 l 1
 56 224 l 1
 168 224 l 1
 168 336 l 1
 392 336 l 1
 392 448 l 1
 504 448 l 1
 504 560 l 1
 616 560 l 1
 616 672 l 1
EndSplineSet
Validated: 1
EndChar

StartChar: uni1FB47
Encoding: 129863 129863 348
Width: 672
GlyphClass: 1
Flags: W
HStem: -224 112<392 504>
VStem: 616 112<0 224>
LayerCount: 2
Fore
SplineSet
616 224 m 1
 728 224 l 1
 728 -224 l 1
 392 -224 l 1
 392 -112 l 1
 504 -112 l 1
 504 0 l 1
 616 0 l 1
 616 224 l 1
EndSplineSet
Validated: 1
EndChar

StartChar: uni1FB48
Encoding: 129864 129864 349
Width: 672
GlyphClass: 1
Flags: W
HStem: -224 224<280 504> -224 112<56 280>
VStem: 616 112<112 224>
LayerCount: 2
Fore
SplineSet
616 224 m 1xa0
 728 224 l 1
 728 -224 l 1
 56 -224 l 1
 56 -112 l 1
 280 -112 l 1x60
 280 0 l 1
 504 0 l 1
 504 112 l 1
 616 112 l 1
 616 224 l 1xa0
EndSplineSet
Validated: 1
EndChar

StartChar: uni1FB49
Encoding: 129865 129865 350
Width: 672
GlyphClass: 1
Flags: W
VStem: 392 336<-224 0> 504 224<0 336> 616 112<336 672>
LayerCount: 2
Fore
SplineSet
616 672 m 1x20
 728 672 l 1x20
 728 -224 l 1
 392 -224 l 1
 392 0 l 1x80
 504 0 l 1
 504 336 l 1x40
 616 336 l 1
 616 672 l 1x20
EndSplineSet
Validated: 1
EndChar

StartChar: uni1FB4A
Encoding: 129866 129866 351
Width: 672
GlyphClass: 1
Flags: W
HStem: -224 112<56 168>
VStem: 504 224<224 448> 616 112<448 672>
LayerCount: 2
Fore
SplineSet
616 672 m 1xa0
 728 672 l 1
 728 -224 l 1xa0
 56 -224 l 1
 56 -112 l 1
 168 -112 l 1
 168 0 l 1
 280 0 l 1
 280 112 l 1
 392 112 l 1
 392 224 l 1
 504 224 l 1
 504 448 l 1xc0
 616 448 l 1
 616 672 l 1xa0
EndSplineSet
Validated: 1
EndChar

StartChar: uni1FB4B
Encoding: 129867 129867 352
Width: 672
GlyphClass: 1
Flags: W
VStem: 392 336<-224 224> 504 224<224 672> 616 112<672 1120>
LayerCount: 2
Fore
SplineSet
616 1120 m 1x20
 728 1120 l 1x20
 728 -224 l 1
 392 -224 l 1
 392 224 l 1x80
 504 224 l 1
 504 672 l 1x40
 616 672 l 1
 616 1120 l 1x20
EndSplineSet
Validated: 1
EndChar

StartChar: uni1FB4C
Encoding: 129868 129868 353
Width: 672
GlyphClass: 1
Flags: W
VStem: 56 672<-224 784>
LayerCount: 2
Fore
SplineSet
56 1120 m 1
 392 1120 l 1
 392 1008 l 1
 504 1008 l 1
 504 896 l 1
 616 896 l 1
 616 784 l 1
 728 784 l 1
 728 -224 l 1
 56 -224 l 1
 56 1120 l 1
EndSplineSet
Validated: 1
EndChar

StartChar: uni1FB4D
Encoding: 129869 129869 354
Width: 672
GlyphClass: 1
Flags: W
VStem: 56 672<-224 672> 56 112<1008 1120>
LayerCount: 2
Fore
SplineSet
56 1120 m 1x40
 168 1120 l 1
 168 1008 l 1x40
 280 1008 l 1
 280 896 l 1
 392 896 l 1
 392 784 l 1
 616 784 l 1
 616 672 l 1
 728 672 l 1
 728 -224 l 1
 56 -224 l 1x80
 56 1120 l 1x40
EndSplineSet
Validated: 1
EndChar

StartChar: uni1FB4E
Encoding: 129870 129870 355
Width: 672
GlyphClass: 1
Flags: W
VStem: 56 448<560 896> 56 336<896 1120>
LayerCount: 2
Fore
SplineSet
56 1120 m 1x40
 392 1120 l 1
 392 896 l 1x40
 504 896 l 1
 504 560 l 1x80
 616 560 l 1
 616 224 l 1
 728 224 l 1
 728 -224 l 1
 56 -224 l 1
 56 1120 l 1x40
EndSplineSet
Validated: 1
EndChar

StartChar: uni1FB4F
Encoding: 129871 129871 356
Width: 672
GlyphClass: 1
Flags: W
VStem: 56 336<560 784> 56 112<896 1120>
LayerCount: 2
Fore
SplineSet
56 1120 m 1x40
 168 1120 l 1
 168 896 l 1x40
 280 896 l 1
 280 784 l 1
 392 784 l 1
 392 560 l 1x80
 504 560 l 1
 504 448 l 1
 616 448 l 1
 616 224 l 1
 728 224 l 1
 728 -224 l 1
 56 -224 l 1
 56 1120 l 1x40
EndSplineSet
Validated: 1
EndChar

StartChar: uni1FB50
Encoding: 129872 129872 357
Width: 672
GlyphClass: 1
Flags: W
VStem: 56 448<448 784> 56 336<784 1120>
LayerCount: 2
Fore
SplineSet
56 1120 m 1x40
 392 1120 l 1
 392 784 l 1x40
 504 784 l 1
 504 448 l 1x80
 616 448 l 1
 616 112 l 1
 728 112 l 1
 728 -224 l 1
 56 -224 l 1
 56 1120 l 1x40
EndSplineSet
Validated: 1
EndChar

StartChar: uni1FB51
Encoding: 129873 129873 358
Width: 672
GlyphClass: 1
Flags: W
VStem: 56 112<560 672>
LayerCount: 2
Fore
SplineSet
56 672 m 1
 168 672 l 1
 168 560 l 1
 280 560 l 1
 280 448 l 1
 392 448 l 1
 392 336 l 1
 616 336 l 1
 616 224 l 1
 728 224 l 1
 728 -224 l 1
 56 -224 l 1
 56 672 l 1
EndSplineSet
Validated: 1
EndChar

StartChar: uni1FB52
Encoding: 129874 129874 359
Width: 672
GlyphClass: 1
Flags: W
VStem: 56 672<112 1120>
LayerCount: 2
Fore
SplineSet
56 1120 m 1
 728 1120 l 1
 728 -224 l 1
 392 -224 l 1
 392 -112 l 1
 280 -112 l 1
 280 0 l 1
 168 0 l 1
 168 112 l 1
 56 112 l 1
 56 1120 l 1
EndSplineSet
Validated: 1
EndChar

StartChar: uni1FB53
Encoding: 129875 129875 360
Width: 672
GlyphClass: 1
Flags: W
VStem: 56 672<224 1120> 616 112<-224 -112>
LayerCount: 2
Fore
SplineSet
56 1120 m 1x80
 728 1120 l 1x80
 728 -224 l 1
 616 -224 l 1
 616 -112 l 1x40
 504 -112 l 1
 504 0 l 1
 392 0 l 1
 392 112 l 1
 168 112 l 1
 168 224 l 1
 56 224 l 1
 56 1120 l 1x80
EndSplineSet
Validated: 1
EndChar

StartChar: uni1FB54
Encoding: 129876 129876 361
Width: 672
GlyphClass: 1
Flags: W
VStem: 280 448<0 336> 392 336<-224 0>
LayerCount: 2
Fore
SplineSet
56 1120 m 1x80
 728 1120 l 1
 728 -224 l 1
 392 -224 l 1
 392 0 l 1x40
 280 0 l 1
 280 336 l 1
 168 336 l 1
 168 672 l 1
 56 672 l 1
 56 1120 l 1x80
EndSplineSet
Validated: 1
EndChar

StartChar: uni1FB55
Encoding: 129877 129877 362
Width: 672
GlyphClass: 1
Flags: W
VStem: 392 336<112 336> 616 112<-224 0>
LayerCount: 2
Fore
SplineSet
56 1120 m 1x80
 728 1120 l 1
 728 -224 l 1
 616 -224 l 1
 616 0 l 1x40
 504 0 l 1
 504 112 l 1
 392 112 l 1
 392 336 l 1
 280 336 l 1
 280 448 l 1
 168 448 l 1
 168 672 l 1
 56 672 l 1
 56 1120 l 1x80
EndSplineSet
Validated: 1
EndChar

StartChar: uni1FB56
Encoding: 129878 129878 363
Width: 672
GlyphClass: 1
Flags: W
VStem: 280 448<112 448> 392 336<-224 112>
LayerCount: 2
Fore
SplineSet
56 1120 m 1x80
 728 1120 l 1
 728 -224 l 1
 392 -224 l 1
 392 112 l 1x40
 280 112 l 1
 280 448 l 1
 168 448 l 1
 168 784 l 1
 56 784 l 1
 56 1120 l 1x80
EndSplineSet
Validated: 1
EndChar

StartChar: uni1FB57
Encoding: 129879 129879 364
Width: 672
GlyphClass: 1
Flags: W
HStem: 1008 112<280 392>
VStem: 56 112<672 896>
LayerCount: 2
Fore
SplineSet
56 1120 m 1
 392 1120 l 1
 392 1008 l 1
 280 1008 l 1
 280 896 l 1
 168 896 l 1
 168 672 l 1
 56 672 l 1
 56 1120 l 1
EndSplineSet
Validated: 1
EndChar

StartChar: uni1FB58
Encoding: 129880 129880 365
Width: 672
GlyphClass: 1
Flags: W
HStem: 896 224<280 504> 1008 112<504 728>
VStem: 56 112<672 784>
LayerCount: 2
Fore
SplineSet
56 1120 m 1x60
 728 1120 l 1
 728 1008 l 1
 504 1008 l 1x60
 504 896 l 1
 280 896 l 1xa0
 280 784 l 1
 168 784 l 1
 168 672 l 1
 56 672 l 1
 56 1120 l 1x60
EndSplineSet
Validated: 1
EndChar

StartChar: uni1FB59
Encoding: 129881 129881 366
Width: 672
GlyphClass: 1
Flags: W
VStem: 56 336<896 1120> 56 224<560 896> 56 112<224 560>
LayerCount: 2
Fore
SplineSet
56 1120 m 1x80
 392 1120 l 1
 392 896 l 1x80
 280 896 l 1
 280 560 l 1x40
 168 560 l 1
 168 224 l 1
 56 224 l 1x20
 56 1120 l 1x80
EndSplineSet
Validated: 1
EndChar

StartChar: uni1FB5A
Encoding: 129882 129882 367
Width: 672
GlyphClass: 1
Flags: W
HStem: 1008 112<616 728>
VStem: 56 224<448 672> 56 112<224 448>
LayerCount: 2
Fore
SplineSet
56 1120 m 1xa0
 728 1120 l 1
 728 1008 l 1
 616 1008 l 1
 616 896 l 1
 504 896 l 1
 504 784 l 1
 392 784 l 1
 392 672 l 1
 280 672 l 1
 280 448 l 1xc0
 168 448 l 1
 168 224 l 1
 56 224 l 1
 56 1120 l 1xa0
EndSplineSet
Validated: 1
EndChar

StartChar: uni1FB5B
Encoding: 129883 129883 368
Width: 672
GlyphClass: 1
Flags: W
VStem: 56 336<672 1120> 56 224<224 672> 56 112<-224 224>
LayerCount: 2
Fore
SplineSet
56 1120 m 1x80
 392 1120 l 1
 392 672 l 1x80
 280 672 l 1
 280 224 l 1x40
 168 224 l 1
 168 -224 l 1
 56 -224 l 1x20
 56 1120 l 1x80
EndSplineSet
Validated: 1
EndChar

StartChar: uni1FB5C
Encoding: 129884 129884 369
Width: 672
GlyphClass: 1
Flags: W
VStem: 56 112<224 336>
LayerCount: 2
Fore
SplineSet
56 1120 m 1
 728 1120 l 1
 728 672 l 1
 616 672 l 1
 616 560 l 1
 392 560 l 1
 392 448 l 1
 280 448 l 1
 280 336 l 1
 168 336 l 1
 168 224 l 1
 56 224 l 1
 56 1120 l 1
EndSplineSet
Validated: 1
EndChar

StartChar: uni1FB5D
Encoding: 129885 129885 370
Width: 672
GlyphClass: 1
Flags: W
VStem: 56 672<112 1120>
LayerCount: 2
Fore
SplineSet
56 1120 m 1
 728 1120 l 1
 728 112 l 1
 616 112 l 1
 616 0 l 1
 504 0 l 1
 504 -112 l 1
 392 -112 l 1
 392 -224 l 1
 56 -224 l 1
 56 1120 l 1
EndSplineSet
Validated: 1
EndChar

StartChar: uni1FB5E
Encoding: 129886 129886 371
Width: 672
GlyphClass: 1
Flags: W
VStem: 56 672<224 1120> 56 112<-224 -112>
LayerCount: 2
Fore
SplineSet
56 1120 m 1x80
 728 1120 l 1
 728 224 l 1x80
 616 224 l 1
 616 112 l 1
 392 112 l 1
 392 0 l 1
 280 0 l 1
 280 -112 l 1
 168 -112 l 1
 168 -224 l 1
 56 -224 l 1x40
 56 1120 l 1x80
EndSplineSet
Validated: 1
EndChar

StartChar: uni1FB5F
Encoding: 129887 129887 372
Width: 672
GlyphClass: 1
Flags: W
VStem: 56 448<0 336> 56 336<-224 0>
LayerCount: 2
Fore
SplineSet
56 1120 m 1x40
 728 1120 l 1
 728 672 l 1
 616 672 l 1
 616 336 l 1
 504 336 l 1
 504 0 l 1x80
 392 0 l 1
 392 -224 l 1
 56 -224 l 1
 56 1120 l 1x40
EndSplineSet
Validated: 1
EndChar

StartChar: uni1FB60
Encoding: 129888 129888 373
Width: 672
GlyphClass: 1
Flags: W
VStem: 56 336<112 336> 56 112<-224 0>
LayerCount: 2
Fore
SplineSet
56 1120 m 1x40
 728 1120 l 1
 728 672 l 1
 616 672 l 1
 616 448 l 1
 504 448 l 1
 504 336 l 1
 392 336 l 1
 392 112 l 1x80
 280 112 l 1
 280 0 l 1
 168 0 l 1
 168 -224 l 1
 56 -224 l 1
 56 1120 l 1x40
EndSplineSet
Validated: 1
EndChar

StartChar: uni1FB61
Encoding: 129889 129889 374
Width: 672
GlyphClass: 1
Flags: W
VStem: 56 448<112 448> 56 336<-224 112>
LayerCount: 2
Fore
SplineSet
56 1120 m 1x40
 728 1120 l 1
 728 784 l 1
 616 784 l 1
 616 448 l 1
 504 448 l 1
 504 112 l 1x80
 392 112 l 1
 392 -224 l 1
 56 -224 l 1
 56 1120 l 1x40
EndSplineSet
Validated: 1
EndChar

StartChar: uni1FB62
Encoding: 129890 129890 375
Width: 672
GlyphClass: 1
Flags: W
HStem: 1008 112<392 504>
VStem: 616 112<672 896>
LayerCount: 2
Fore
SplineSet
392 1120 m 1
 728 1120 l 1
 728 672 l 1
 616 672 l 1
 616 896 l 1
 504 896 l 1
 504 1008 l 1
 392 1008 l 1
 392 1120 l 1
EndSplineSet
Validated: 1
EndChar

StartChar: uni1FB63
Encoding: 129891 129891 376
Width: 672
GlyphClass: 1
Flags: W
HStem: 896 224<280 504> 1008 112<56 280>
VStem: 616 112<672 784>
LayerCount: 2
Fore
SplineSet
56 1120 m 1x60
 728 1120 l 1x60
 728 672 l 1
 616 672 l 1
 616 784 l 1
 504 784 l 1
 504 896 l 1
 280 896 l 1xa0
 280 1008 l 1
 56 1008 l 1
 56 1120 l 1x60
EndSplineSet
Validated: 1
EndChar

StartChar: uni1FB64
Encoding: 129892 129892 377
Width: 672
GlyphClass: 1
Flags: W
VStem: 392 336<896 1120> 504 224<560 896> 616 112<224 560>
LayerCount: 2
Fore
SplineSet
392 1120 m 1x80
 728 1120 l 1x80
 728 224 l 1
 616 224 l 1
 616 560 l 1x20
 504 560 l 1
 504 896 l 1x40
 392 896 l 1
 392 1120 l 1x80
EndSplineSet
Validated: 1
EndChar

StartChar: uni1FB65
Encoding: 129893 129893 378
Width: 672
GlyphClass: 1
Flags: W
HStem: 1008 112<56 168>
VStem: 504 224<448 672> 616 112<224 448>
LayerCount: 2
Fore
SplineSet
56 1120 m 1xc0
 728 1120 l 1
 728 224 l 1
 616 224 l 1
 616 448 l 1xa0
 504 448 l 1
 504 672 l 1
 392 672 l 1
 392 784 l 1
 280 784 l 1
 280 896 l 1
 168 896 l 1
 168 1008 l 1
 56 1008 l 1
 56 1120 l 1xc0
EndSplineSet
Validated: 1
EndChar

StartChar: uni1FB66
Encoding: 129894 129894 379
Width: 672
GlyphClass: 1
Flags: W
VStem: 392 336<672 1120> 504 224<224 672> 616 112<-224 224>
LayerCount: 2
Fore
SplineSet
392 1120 m 1x80
 728 1120 l 1x80
 728 -224 l 1
 616 -224 l 1
 616 224 l 1x20
 504 224 l 1
 504 672 l 1x40
 392 672 l 1
 392 1120 l 1x80
EndSplineSet
Validated: 1
EndChar

StartChar: uni1FB67
Encoding: 129895 129895 380
Width: 672
GlyphClass: 1
Flags: W
VStem: 616 112<224 336>
LayerCount: 2
Fore
SplineSet
56 1120 m 1
 728 1120 l 1
 728 224 l 1
 616 224 l 1
 616 336 l 1
 504 336 l 1
 504 448 l 1
 392 448 l 1
 392 560 l 1
 168 560 l 1
 168 672 l 1
 56 672 l 1
 56 1120 l 1
EndSplineSet
Validated: 1
EndChar

StartChar: uni1FB68
Encoding: 129896 129896 381
Width: 672
GlyphClass: 1
Flags: W
HStem: -224 112<56 168> 1008 112<56 168>
VStem: 168 560<-112 112 784 1008> 280 448<112 336 560 784> 392 336<336 560>
LayerCount: 2
Fore
SplineSet
56 1120 m 1xe0
 728 1120 l 1
 728 -224 l 1xc8
 56 -224 l 1
 56 -112 l 1
 168 -112 l 1
 168 112 l 1xe0
 280 112 l 1
 280 336 l 1xd0
 392 336 l 1
 392 560 l 1xc8
 280 560 l 1
 280 784 l 1xd0
 168 784 l 1
 168 1008 l 1
 56 1008 l 1
 56 1120 l 1xe0
EndSplineSet
Validated: 1
EndChar

StartChar: uni1FB69
Encoding: 129897 129897 382
Width: 672
GlyphClass: 1
Flags: W
VStem: 56 224<560 784> 56 112<784 1008> 504 224<560 784> 616 112<784 1008>
LayerCount: 2
Fore
SplineSet
56 1008 m 1x50
 168 1008 l 1
 168 784 l 1x50
 280 784 l 1
 280 560 l 1
 504 560 l 1
 504 784 l 1xa0
 616 784 l 1
 616 1008 l 1
 728 1008 l 1
 728 -224 l 1
 56 -224 l 1
 56 1008 l 1x50
EndSplineSet
Validated: 1
EndChar

